<?xml version="1.0" encoding="UTF-8" standalone="no"?>
<!-- Created with Inkscape (http://www.inkscape.org/) -->

<svg
   viewBox="0 0 38.549999 41.919998"
   version="1.1"
   id="svg1"
   inkscape:version="1.3.2 (091e20e, 2023-11-25, custom)"
   sodipodi:docname="Ou.svg"
   xml:space="preserve"
   xmlns:inkscape="http://www.inkscape.org/namespaces/inkscape"
   xmlns:sodipodi="http://sodipodi.sourceforge.net/DTD/sodipodi-0.dtd"
   xmlns="http://www.w3.org/2000/svg"
   xmlns:svg="http://www.w3.org/2000/svg"><sodipodi:namedview
     id="namedview1"
     pagecolor="#ffffff"
     bordercolor="#111111"
     borderopacity="1"
     inkscape:showpageshadow="false"
     inkscape:pageopacity="0"
     inkscape:pagecheckerboard="1"
     inkscape:deskcolor="#d1d1d1"
     inkscape:document-units="mm"
     showguides="true"
     inkscape:zoom="11.569391"
     inkscape:cx="19.275"
     inkscape:cy="20.960482"
     inkscape:window-width="1292"
     inkscape:window-height="745"
     inkscape:window-x="-8"
     inkscape:window-y="-8"
     inkscape:window-maximized="1"
     inkscape:current-layer="layer1"
     labelstyle="default"><inkscape:page
       x="0"
       y="0"
       width="38.549999"
       height="41.919998"
       id="page42"
       margin="0"
       bleed="0" /></sodipodi:namedview><defs
     id="defs1"><inkscape:path-effect
       effect="powerstroke"
       id="path-effect12"
       is_visible="true"
       lpeversion="1.3"
       scale_width="1"
       interpolator_type="CubicBezierJohan"
       interpolator_beta="0.2"
       start_linecap_type="zerowidth"
       end_linecap_type="zerowidth"
       offset_points="7,4.9921382"
       linejoin_type="extrp_arc"
       miter_limit="4"
       not_jump="false"
       sort_points="true"
       message="&lt;b&gt;Ctrl + click&lt;/b&gt; on existing node and move it" /><inkscape:path-effect
       effect="powerstroke"
       id="path-effect13"
       is_visible="true"
       lpeversion="1.3"
       scale_width="1"
       interpolator_type="CubicBezierJohan"
       interpolator_beta="0.2"
       start_linecap_type="zerowidth"
       end_linecap_type="zerowidth"
       offset_points="5,4.9921382"
       linejoin_type="extrp_arc"
       miter_limit="4"
       not_jump="false"
       sort_points="true"
       message="&lt;b&gt;Ctrl + click&lt;/b&gt; on existing node and move it" /><inkscape:path-effect
       effect="powerstroke"
       id="path-effect13-9"
       is_visible="true"
       lpeversion="1.3"
       scale_width="1"
       interpolator_type="CubicBezierJohan"
       interpolator_beta="0.2"
       start_linecap_type="zerowidth"
       end_linecap_type="zerowidth"
       offset_points="5,4.9921382"
       linejoin_type="extrp_arc"
       miter_limit="4"
       not_jump="false"
       sort_points="true"
       message="&lt;b&gt;Ctrl + click&lt;/b&gt; on existing node and move it" /></defs><g
     inkscape:label="Layer 1"
     inkscape:groupmode="layer"
     id="layer1"
     transform="rotate(180,62.137499,101.68)"><path
       style="fill:#938e5e;fill-opacity:1;fill-rule:evenodd;stroke:none;stroke-width:1;stroke-linecap:round;stroke-linejoin:round;stroke-dasharray:none;stroke-opacity:1;paint-order:stroke fill markers"
       d="m 119.35,200 v -6.4 L 114.78527,167.97943 105,164.8 95.21473,167.97943 90.649996,193.6 l 2e-6,6.4 z"
       id="path12"
       sodipodi:nodetypes="cccccccc" /><path
       style="display:inline;fill:#fff29e;fill-opacity:1;fill-rule:evenodd;stroke:none;stroke-width:0.385762;stroke-linecap:round;stroke-linejoin:round;paint-order:stroke fill markers"
       d="m 105,168 9.78527,3.17942 L 119.35,200 h -28.7 l 4.56473,-28.82058 z"
       id="path13" /><path
       id="path5-2"
       style="fill:#000000;stroke-width:0.673537"
       inkscape:label="path1"
       d="m 109.20363,176.32393 c -0.85805,-10e-4 -1.76294,0.0652 -2.28728,0.20075 -1.92683,0.49813 -4.20407,1.01705 -6.2907,1.43625 -1.193655,0.2398 -2.053245,0.31551 -2.717025,0.2375 -0.53416,-0.0628 -0.97259,-0.0447 -0.97259,0.0424 0,0.2588 2.57321,1.54088 3.093055,1.54088 0.26344,0 0.83701,-0.10072 1.2751,-0.22336 0.75485,-0.21134 0.81471,-0.2006 1.15071,0.20073 0.50698,0.6056 1.10334,2.26334 1.04044,2.89232 -0.0496,0.49709 -0.12979,0.55316 -1.12243,0.78315 -0.58809,0.13622 -1.61331,0.21811 -2.27597,0.18379 -1.412395,-0.0733 -1.448885,0.0631 -0.234665,0.88493 0.955005,0.64639 1.693465,0.72592 2.858385,0.31101 0.38829,-0.13825 0.7429,-0.21272 0.78881,-0.16682 0.0459,0.0459 0.11903,0.74488 0.16116,1.55219 l 0.0763,1.46735 -0.51174,0.0339 c -0.46764,0.0311 -1.46592,0.30975 -4.427525,1.23551 -1.28035,0.40023 -3.66926,0.39174 -4.289,-0.0141 -0.21636,-0.14171 -0.43874,-0.21153 -0.49477,-0.15549 -0.15848,0.15848 0.49668,1.31451 1.21856,2.15155 0.35924,0.41655 0.72456,0.75772 0.81426,0.75772 0.15452,0 2.41345,-0.85375 4.354015,-1.64549 1.82631,-0.74512 3.0825,-1.07058 4.99015,-1.29772 2.39482,-0.28514 5.80457,-0.21686 7.48384,0.14984 0.68608,0.14983 1.49667,0.31353 1.80098,0.36473 1.10547,0.18599 1.74338,-0.88598 0.98106,-1.6483 -0.45821,-0.45822 -2.20278,-1.0914 -3.01106,-1.09134 -0.36388,1e-5 -1.62284,0.15444 -2.79901,0.3421 -3.2118,0.51244 -3.96408,0.59203 -4.04302,0.42974 -0.0395,-0.0812 -0.028,-0.82592 0.0255,-1.65396 l 0.0961,-1.50411 1.63134,-0.38735 c 1.86227,-0.4435 2.02151,-0.51927 2.02151,-0.93582 0,-0.67453 -1.76203,-1.05476 -2.66048,-0.57393 -0.50651,0.27108 -0.77794,0.0668 -0.66724,-0.50327 0.18023,-0.92818 -0.0547,-1.4306 -0.83687,-1.78685 -1.61656,-0.73632 -1.59983,-0.82821 0.23184,-1.16483 0.90981,-0.16719 1.90865,-0.30587 2.21659,-0.30535 1.11832,0.001 3.23823,-0.38666 3.54258,-0.65028 0.49308,-0.42708 0.39551,-1.03029 -0.20921,-1.28077 -0.33238,-0.13764 -1.14366,-0.20708 -2.00172,-0.20921 z" /></g></svg>
