<?xml version="1.0" encoding="UTF-8" standalone="no"?>
<!-- Created with Inkscape (http://www.inkscape.org/) -->

<svg
   viewBox="0 0 38.549999 41.919998"
   version="1.1"
   id="svg1"
   inkscape:version="1.3.2 (091e20e, 2023-11-25, custom)"
   sodipodi:docname="Ou.svg"
   xml:space="preserve"
   xmlns:inkscape="http://www.inkscape.org/namespaces/inkscape"
   xmlns:sodipodi="http://sodipodi.sourceforge.net/DTD/sodipodi-0.dtd"
   xmlns="http://www.w3.org/2000/svg"
   xmlns:svg="http://www.w3.org/2000/svg"><sodipodi:namedview
     id="namedview1"
     pagecolor="#ffffff"
     bordercolor="#111111"
     borderopacity="1"
     inkscape:showpageshadow="0"
     inkscape:pageopacity="0"
     inkscape:pagecheckerboard="1"
     inkscape:deskcolor="#d1d1d1"
     inkscape:document-units="mm"
     showguides="true"
     inkscape:zoom="13.096375"
     inkscape:cx="19.280144"
     inkscape:cy="20.959998"
     inkscape:window-width="1292"
     inkscape:window-height="745"
     inkscape:window-x="-8"
     inkscape:window-y="-8"
     inkscape:window-maximized="1"
     inkscape:current-layer="layer1"><inkscape:page
       x="0"
       y="0"
       width="38.549999"
       height="41.919998"
       id="page42"
       margin="0"
       bleed="0" /></sodipodi:namedview><defs
     id="defs1"><inkscape:path-effect
       effect="powerstroke"
       id="path-effect13"
       is_visible="true"
       lpeversion="1.3"
       scale_width="1"
       interpolator_type="CubicBezierJohan"
       interpolator_beta="0.2"
       start_linecap_type="zerowidth"
       end_linecap_type="zerowidth"
       offset_points="5,4.9921382"
       linejoin_type="extrp_arc"
       miter_limit="4"
       not_jump="false"
       sort_points="true"
       message="&lt;b&gt;Ctrl + click&lt;/b&gt; on existing node and move it" /></defs><g
     inkscape:label="Layer 1"
     inkscape:groupmode="layer"
     id="layer1"
     transform="translate(-85.749998,-164.64)"><path
       style="fill:#fff29e;fill-opacity:1;fill-rule:evenodd;stroke:none;stroke-width:0.385762;stroke-linecap:round;stroke-linejoin:round;paint-order:stroke fill markers"
       d="m 105,168 9.78527,3.17942 L 119.35,200 H 90.649995 l 4.56473,-28.82058 z"
       id="path13" /><path
       style="display:inline;fill:#938e5e;fill-opacity:1;fill-rule:evenodd;stroke:none;stroke-width:0.386001;stroke-linecap:round;stroke-linejoin:round;stroke-dasharray:none;stroke-opacity:1;paint-order:stroke fill markers"
       d="m 90.649998,200 -3e-6,3.2 H 119.35 V 200 Z"
       id="path45" /><path
       id="path5-2"
       style="fill:#000000;stroke-width:0.465288"
       inkscape:label="path1"
       d="m 107.50029,171.19842 c -0.59275,-0.001 -1.21846,0.0444 -1.58068,0.13802 -1.33108,0.34412 -2.90431,0.70368 -4.34578,0.99327 -0.82459,0.16566 -1.41883,0.21739 -1.87738,0.1635 -0.369004,-0.0434 -0.670838,-0.0297 -0.670838,0.0305 0,0.17878 1.776498,1.06324 2.135618,1.06324 0.18199,0 0.57835,-0.0694 0.88099,-0.15412 0.52146,-0.146 0.56303,-0.13876 0.79514,0.13849 0.35023,0.41835 0.7619,1.5631 0.71845,1.99761 -0.0343,0.34339 -0.0897,0.38212 -0.77543,0.541 -0.40626,0.0941 -1.11328,0.15163 -1.57106,0.12792 -0.9757,-0.0506 -1.00062,0.0437 -0.16182,0.61144 0.65973,0.44654 1.16954,0.50207 1.97428,0.21544 0.26824,-0.0955 0.51362,-0.1476 0.54533,-0.11589 0.0317,0.0317 0.0815,0.51396 0.1106,1.07166 l 0.0529,1.01395 -0.35345,0.0236 c -0.32305,0.0215 -1.01301,0.21404 -3.05893,0.85357 -0.884481,0.27648 -2.534374,0.27138 -2.962498,-0.009 -0.149464,-0.0979 -0.30344,-0.14643 -0.342151,-0.10772 -0.109477,0.10948 0.342628,0.90818 0.841312,1.48643 0.248169,0.28776 0.501875,0.5232 0.563841,0.5232 0.106747,0 1.666896,-0.58963 3.007466,-1.13657 1.26164,-0.51474 2.12916,-0.74067 3.447,-0.89758 1.65437,-0.19698 4.01045,-0.1497 5.17051,0.10363 0.47395,0.1035 1.03359,0.2171 1.24381,0.25247 0.76367,0.12848 1.20491,-0.6126 0.67829,-1.13922 -0.31654,-0.31654 -1.52243,-0.75287 -2.0808,-0.75283 -0.25137,1e-5 -1.12162,0.10599 -1.93413,0.23563 -2.21875,0.354 -2.73846,0.4093 -2.79299,0.29719 -0.0273,-0.0561 -0.0196,-0.57009 0.0173,-1.14211 l 0.0673,-1.03992 1.12576,-0.26809 c 1.28648,-0.30638 1.39793,-0.35783 1.39793,-0.64559 0,-0.46597 -1.21753,-0.72842 -1.83819,-0.39626 -0.3499,0.18727 -0.53764,0.0454 -0.46117,-0.3484 0.12451,-0.6412 -0.0382,-0.98858 -0.57851,-1.23468 -1.11674,-0.50866 -1.104,-0.57222 0.16134,-0.80476 0.62851,-0.1155 1.31674,-0.20979 1.52947,-0.20943 0.77255,0.001 2.23866,-0.26848 2.44891,-0.45059 0.34062,-0.29503 0.27204,-0.7106 -0.14571,-0.88363 -0.22961,-0.0951 -0.78931,-0.14376 -1.38207,-0.14523 z m -0.21135,9.86901 c -0.41139,-0.0277 -0.75379,0.007 -0.75379,0.12143 0,0.0677 0.0554,0.12311 0.1231,0.12311 0.0677,0 0.12288,0.0969 0.12263,0.21543 -10e-4,0.42335 -0.46872,0.95778 -1.12287,1.28301 -1.2069,0.60004 -1.75269,0.84059 -1.90792,0.84059 -0.0844,0 -0.30177,0.0562 -0.48281,0.12503 -0.25696,0.0977 -0.29906,0.16155 -0.19188,0.2907 0.11376,0.13707 0.30083,0.13882 1.09065,0.0103 2.37712,-0.3867 4.89581,-1.31982 5.03249,-1.86441 0.0913,-0.36383 -0.0852,-0.57637 -0.74273,-0.89469 -0.27533,-0.13328 -0.75549,-0.22285 -1.16687,-0.25054 z m -5.53959,0.78649 c -0.20219,-0.009 -0.4533,0.0154 -0.83698,0.0688 -0.5099,0.0709 -0.973422,0.15759 -1.030059,0.1926 -0.05663,0.035 0.125319,0.27656 0.404419,0.53691 l 0.50734,0.47343 -0.0315,1.27699 c -0.0174,0.70237 -0.044,1.28974 -0.0594,1.30513 -0.0154,0.0154 -0.19148,-0.0162 -0.3912,-0.0702 -0.348591,-0.0942 -0.837922,-0.0304 -1.336865,0.17432 -0.212791,0.0873 -0.226533,0.0567 -0.146189,-0.32436 0.04879,-0.23142 0.120075,-0.70567 0.158453,-1.05387 0.06312,-0.57276 0.04205,-0.6498 -0.222892,-0.80933 -0.295652,-0.17801 -1.537187,-0.21688 -1.797076,-0.0563 -0.08314,0.0514 0.01992,0.23608 0.272663,0.48882 0.349204,0.3492 0.418646,0.52197 0.494352,1.22891 0.04845,0.45241 0.05829,0.90007 0.02188,0.99495 -0.09183,0.2393 -1.224906,0.49011 -1.88051,0.41621 -0.400622,-0.0451 -0.543403,-0.0182 -0.543403,0.10243 0,0.16023 0.866126,0.81945 1.231072,0.93701 0.278915,0.0898 1.406463,-0.34141 2.66195,-1.01804 1.267235,-0.68297 1.593255,-0.75531 1.476805,-0.32821 -0.0416,0.15235 -0.11117,0.56819 -0.15461,0.92403 -0.073,0.59792 -0.10319,0.64627 -0.40034,0.63934 -0.776411,-0.0181 -1.257522,0.12985 -3.19044,0.98053 -0.878471,0.38662 -1.348773,0.51754 -2.017562,0.56168 -0.933774,0.0616 -1.135409,0.13171 -0.763409,0.26568 0.128182,0.0462 0.482522,0.26003 0.787212,0.47536 0.604534,0.42723 0.673856,0.42527 1.638624,-0.0498 0.451111,-0.22212 0.626416,-0.25745 0.735758,-0.14811 0.29488,0.29488 0.142031,1.0442 -0.454679,2.22963 -0.483872,0.96127 -0.577503,1.25256 -0.526572,1.63598 0.102012,0.76795 0.494666,1.03158 0.993273,0.66699 0.249685,-0.18257 1.161176,-2.82381 1.266176,-3.66893 0.06522,-0.52496 0.04335,-0.58489 -0.302237,-0.83097 -0.204846,-0.14586 -0.432912,-0.26521 -0.507096,-0.26521 -0.07418,0 -0.134889,-0.0554 -0.134889,-0.12311 0,-0.0677 0.08645,-0.12311 0.192355,-0.12311 0.105902,0 0.48358,-0.1331 0.839149,-0.29574 0.588913,-0.26938 1.477777,-0.56356 1.707627,-0.56528 0.12971,-0.001 0.1141,1.2869 -0.0358,2.95385 -0.16686,1.85524 -0.14186,1.803 -0.702815,1.46742 -0.253913,-0.15189 -0.586084,-0.38743 -0.738161,-0.52344 -0.152077,-0.13602 -0.307179,-0.21675 -0.344555,-0.17937 -0.06865,0.0686 1.056919,2.10688 1.634291,2.95938 0.17197,0.2539 0.3382,0.46165 0.36932,0.46165 0.19974,0 0.77395,-0.55658 0.94398,-0.91489 0.17871,-0.37659 0.18985,-0.69726 0.0938,-2.70547 -0.1148,-2.39952 -0.0238,-4.15534 0.29695,-5.73578 0.10305,-0.50782 0.21677,-1.12674 0.25271,-1.37535 0.0359,-0.24859 0.14774,-0.80258 0.24861,-1.23107 0.10088,-0.42848 0.21316,-0.98727 0.24959,-1.24165 0.0629,-0.43908 0.0434,-0.47203 -0.38639,-0.6516 -0.18735,-0.0783 -0.3405,-0.12006 -0.54269,-0.12888 z m 9.48767,0.86993 c -0.16402,-0.0135 -0.33798,-0.008 -0.52104,0.0161 -0.57133,0.0758 -0.83083,0.32472 -0.4655,0.4465 0.0799,0.0266 0.1108,0.13813 0.0688,0.24766 -0.0962,0.25066 -1.82235,1.68973 -2.02983,1.69224 -0.18802,0.002 -0.19461,-0.27746 -0.0212,-0.90215 0.16785,-0.60449 0.0851,-0.67922 -0.31234,-0.28179 l -0.31762,0.31762 -0.45925,-0.2378 c -0.63491,-0.32882 -0.9632,-0.26045 -0.91248,0.19019 0.0687,0.61042 0.36982,1.16095 0.75499,1.38015 0.20551,0.11695 0.37394,0.24292 0.37437,0.27988 5.3e-4,0.0369 -0.27063,0.23085 -0.60255,0.43087 -1.12867,0.68014 -1.85863,1.22126 -1.85863,1.37751 0,0.21831 0.16409,0.19407 0.50661,-0.0745 0.16148,-0.12664 0.76447,-0.47156 1.34,-0.76654 0.57552,-0.29497 1.06471,-0.57905 1.08728,-0.6314 0.0784,-0.18177 0.22796,-0.0935 0.37005,0.21832 0.20651,0.45325 0.17628,0.67132 -0.0933,0.67132 -0.79767,0 -2.37577,0.59282 -4.06518,1.5273 -1.14618,0.63399 -1.31128,0.67115 -1.42295,0.31931 -0.12808,-0.40353 -0.27471,-0.28177 -0.36211,0.30103 -0.0873,0.58217 0.10515,1.54557 0.30873,1.54557 0.11489,0 0.92918,-0.58407 1.79371,-1.28661 0.21242,-0.17262 0.41251,-0.31378 0.44458,-0.31378 0.0321,0 0.25645,0.43354 0.49868,0.96346 0.52395,1.14623 0.65349,1.27666 1.13994,1.14764 0.49279,-0.13071 0.6684,-0.7711 0.37871,-1.38159 -0.18031,-0.37996 -0.41488,-0.54572 -1.09378,-0.77279 -0.32513,-0.10875 -0.26031,-0.25046 0.18466,-0.40346 0.22005,-0.0757 0.67709,-0.2509 1.01563,-0.38952 1.05755,-0.43301 1.6543,-0.57462 1.80141,-0.42751 0.13506,0.13508 0.21986,3.73382 0.132,5.6033 -0.0421,0.89595 -0.0618,0.95408 -0.32364,0.95408 -0.39273,0 -1.61689,-0.43697 -2.01468,-0.71917 -0.37403,-0.26534 -1.23358,-0.75812 -1.32243,-0.75812 -0.0318,0 -0.0577,0.0576 -0.0577,0.12792 0,0.21757 0.87943,1.04625 1.8466,1.74009 0.50782,0.3643 1.08951,0.82003 1.29263,1.01275 0.20313,0.19272 0.56322,0.4788 0.8002,0.63573 0.59411,0.39344 0.93232,0.37244 1.34913,-0.0839 0.45742,-0.50082 0.50373,-0.8995 0.27675,-2.38616 -0.17796,-1.16558 -0.30843,-5.74218 -0.17793,-6.2412 0.0518,-0.19794 0.21465,-0.22193 1.51191,-0.22193 0.79971,0 1.88754,0.0631 2.41718,0.14042 1.48518,0.21669 1.64641,0.18021 1.41838,-0.32028 -0.30879,-0.67771 -2.08777,-1.19909 -3.22531,-0.94542 -0.30469,0.0679 -0.95372,0.16192 -1.44218,0.20894 -0.87389,0.0841 -0.8904,0.0803 -1.03488,-0.23683 -0.084,-0.18438 -0.32373,-0.38623 -0.56023,-0.47175 -0.22735,-0.0822 -0.39546,-0.20362 -0.37341,-0.26978 0.0221,-0.0662 0.66654,-0.35733 1.43208,-0.64703 2.08289,-0.78822 2.27874,-0.98295 1.71172,-1.70379 -0.29163,-0.37075 -0.69451,-0.58043 -1.18658,-0.62107 z m -6.03682,1.93317 c -0.0576,6e-5 -0.18609,0.12614 -0.39673,0.37846 l -0.33373,0.39985 -0.49219,-0.27675 c -0.56441,-0.31721 -1.13562,-0.36696 -1.13562,-0.0991 0,0.0976 0.0546,0.21117 0.12143,0.25247 0.0668,0.0413 0.20887,0.37572 0.3157,0.74321 0.11941,0.41076 0.31617,0.76404 0.5107,0.91705 0.35289,0.27758 0.89486,0.32635 1.12023,0.10099 0.0824,-0.0824 0.14787,-0.47748 0.14787,-0.89325 0,-0.41009 0.0515,-0.92539 0.11445,-1.14499 0.0723,-0.25215 0.0855,-0.37806 0.0279,-0.37798 z" /><path
       id="path1"
       style="fill:#000000;stroke-width:0.0291405"
       d="m 110.19261,201.3607 c 0.002,-0.0233 -0.005,-0.0458 -0.0198,-0.0779 -0.0196,-0.0422 -0.0486,-0.0786 -0.0646,-0.0793 -0.016,-7.8e-4 -0.0877,-0.005 -0.15898,-0.009 -0.11804,-0.008 -0.14514,-0.0255 -0.30142,-0.19542 -0.0944,-0.10247 -0.15757,-0.19147 -0.14076,-0.19706 0.0374,-0.0124 0.0742,-0.19221 0.0513,-0.25175 -0.014,-0.0363 -0.0335,-0.0331 -0.12254,0.0216 -0.16872,0.10341 -0.29696,0.23292 -0.31633,0.31963 -0.0176,0.0784 -0.0152,0.0806 0.12091,0.0828 0.0764,0.001 0.17342,0.005 0.2153,0.009 0.0994,0.008 0.27555,0.12918 0.31631,0.2186 l 0.0332,0.0713 -0.22192,-0.0182 c -0.18008,-0.0155 -0.23545,-0.0331 -0.29977,-0.0927 -0.0434,-0.0402 -0.0862,-0.0728 -0.0961,-0.0728 -0.0171,0 -0.23019,-0.30676 -0.23019,-0.33123 0,-0.006 -0.0215,-0.0598 -0.0464,-0.11924 -0.0389,-0.0928 -0.0504,-0.10201 -0.0894,-0.0696 -0.0344,0.0286 -0.0416,0.068 -0.0282,0.16561 0.01,0.0711 0.0321,0.14781 0.0497,0.16893 0.0176,0.0211 0.0264,0.0536 0.0199,0.0728 -0.0137,0.041 -0.43016,-0.50234 -0.54321,-0.70883 -0.0746,-0.13617 -0.16715,-0.19769 -0.23516,-0.15565 -0.0654,0.0404 -0.0312,0.21686 0.0779,0.39579 0.24335,0.39983 0.30285,0.52334 0.25172,0.52334 -0.0861,0 -0.60015,-0.18199 -0.67856,-0.23531 -0.0784,-0.0532 -0.16123,-0.10247 -0.24228,-0.15716 -0.12856,-0.1225 -0.2374,-0.23998 -0.3114,-0.3577 -0.0284,-0.0623 -0.0416,-0.0686 -0.0629,-0.0348 -0.0422,0.0668 -0.0334,0.11769 0.0514,0.28485 0.13989,0.27672 0.45821,0.49285 0.8827,0.60118 0.17628,0.0452 0.2619,0.0868 0.23186,0.11257 -0.007,0.006 -0.0557,0.0199 -0.14679,0.0109 -0.0911,-0.009 -0.1652,0.005 -0.2507,0.005 -0.19755,-0.001 -0.2561,0.0191 -0.29644,0.1076 -0.0433,0.095 -0.0433,0.33862 0,0.43392 0.0621,0.13679 0.10683,0.0764 0.13741,-0.18716 0.0155,-0.12778 0.0334,-0.16499 0.0877,-0.19211 0.0893,-0.0444 0.19276,-0.0216 0.14735,0.0332 -0.0491,0.059 0.0544,0.2127 0.1623,0.24179 0.18754,0.0506 0.30893,-0.0565 0.30142,-0.26664 -0.003,-0.0765 0.01,-0.15169 0.0264,-0.16893 0.0501,-0.0502 0.13701,-0.0166 0.1474,0.0564 0.0106,0.0752 -0.0485,0.15918 -0.36601,0.52335 -0.36952,0.4238 -0.55109,0.90639 -0.44549,1.18413 0.0753,0.19817 0.22295,-0.0124 0.3395,-0.4869 0.0402,-0.16362 0.11873,-0.38962 0.1739,-0.5018 0.11999,-0.24403 0.357,-0.55719 0.39415,-0.52002 0.0412,0.0412 0.17224,0.50647 0.17224,0.6111 0,0.0523 0.0235,0.1177 0.0514,0.1458 0.0486,0.0486 0.052,0.0464 0.0696,-0.0348 0.0498,-0.23091 0.0275,-0.40348 -0.0761,-0.5962 -0.061,-0.11334 -0.0955,-0.21162 -0.11423,-0.2858 -0.0187,-0.0741 -0.005,-0.0919 0.0412,-0.0919 0.14192,0 0.2453,0.13197 0.31797,0.40742 0.0591,0.22405 0.17556,0.35019 0.17556,0.19043 0,-0.039 0.0154,-0.0801 0.0332,-0.0911 0.0197,-0.0109 0.0258,-0.0663 0.0165,-0.13896 l -0.0149,-0.1208 0.26664,0.28487 c 0.29552,0.31455 0.36959,0.34807 0.42397,0.19208 0.0464,-0.13307 0.0403,-0.3312 -0.0117,-0.37427 -0.0588,-0.0488 -0.0537,-0.0877 0.01,-0.0877 0.0286,0 0.0739,-0.0369 0.10103,-0.0828 0.0205,-0.0348 0.0311,-0.0596 0.0332,-0.0829 z m -0.22192,0.23023 c -3.2e-4,0.006 -0.002,0.0124 -0.005,0.0182 -0.01,0.0158 -0.059,0.006 -0.11594,-0.0231 -0.0544,-0.0276 -0.13662,-0.0778 -0.18217,-0.11086 l -0.0829,-0.0598 0.0795,0.0155 c 0.044,0.009 0.0873,0.0272 0.0961,0.0413 0.009,0.014 0.0457,0.0247 0.0828,0.0247 0.0555,0 0.11125,0.0385 0.1242,0.0761 0.002,0.006 0.004,0.0124 0.004,0.0182 z m -1.10132,-0.47368 -0.0944,-0.0124 c -0.0521,-0.006 -0.10403,-0.0109 -0.11594,-0.0124 -0.0119,-0.001 -0.0996,-0.1578 -0.19375,-0.34612 -0.0942,-0.18831 -0.18095,-0.37562 -0.19211,-0.41568 l -0.0199,-0.0728 0.0613,0.0728 c 0.0336,0.0401 0.0874,0.1222 0.11924,0.18216 0.0319,0.0599 0.14291,0.21997 0.24676,0.35607 z m -0.52996,0.28982 c 0.002,0.008 0.002,0.0155 0,0.0248 -0.006,0.0321 -0.0374,0.0497 -0.0828,0.0497 -0.0454,0 -0.075,-0.0175 -0.0811,-0.0497 -0.008,-0.0399 0.01,-0.0514 0.0811,-0.0514 0.0537,0 0.0777,0.008 0.0828,0.0264 z m -1.75051,0.20703 c -3.9e-4,-0.0158 -0.003,-0.0328 -0.008,-0.0546 -0.0109,-0.0582 -0.037,-0.12422 -0.0579,-0.1458 -0.0317,-0.0325 -0.0357,-0.0234 -0.0266,0.0547 l 0.0109,0.0944 -0.15403,-0.0155 c -0.24203,-0.025 -0.29698,-0.0644 -0.41734,-0.29479 -0.0596,-0.11397 -0.16145,-0.28328 -0.22523,-0.37429 -0.0638,-0.091 -0.12422,-0.21529 -0.13431,-0.27656 l -0.0182,-0.11086 -0.0794,0.14238 c -0.0436,0.0782 -0.0795,0.17148 -0.0795,0.207 0,0.0356 0.0675,0.1589 0.14905,0.27492 0.0815,0.11598 0.14285,0.21521 0.13741,0.22028 -0.0223,0.0211 -0.31483,-0.10823 -0.33217,-0.12096 -0.0174,-0.0124 -0.0728,-0.0234 -0.11816,-0.0463 -0.0455,-0.023 -0.14688,-0.0514 -0.22359,-0.0613 -0.16151,-0.0211 -0.19896,0.02 -0.12421,0.13431 0.0453,0.0693 0.045,0.0707 -0.0413,0.0579 -0.048,-0.008 -0.0877,-0.0262 -0.10853,-0.0297 -0.0207,-0.003 -0.2706,-0.35193 -0.36848,-0.54499 -0.0393,-0.0778 -0.0644,-0.15924 -0.0564,-0.18053 0.0185,-0.0481 -0.0261,-0.0505 -0.0728,-0.005 -0.0674,0.0672 -0.0351,0.19216 0.1076,0.41072 0.0784,0.12048 0.15794,0.2276 0.17555,0.23847 0.0576,0.0357 0.0334,0.0745 -0.0464,0.0745 -0.0599,0 -0.13772,-0.062 -0.33453,-0.26332 -0.14099,-0.14424 -0.27015,-0.26169 -0.29324,-0.28459 -0.0231,-0.0228 -0.0368,-0.0351 -0.0528,-0.0351 -0.0686,0 -0.0175,0.10558 0.14579,0.30305 0.0963,0.1163 0.17555,0.2196 0.17555,0.23022 0,0.0109 -0.0199,0.02 -0.0447,0.02 -0.0497,0 -0.46832,-0.38087 -0.48682,-0.40055 -0.21749,-0.19751 -0.37771,-0.38486 -0.65596,-0.46732 -0.0199,0.0161 -0.0365,0.0456 -0.0365,0.0646 0,0.0739 0.15465,0.23813 0.29974,0.31797 0.0838,0.0461 0.17324,0.10434 0.19875,0.13089 0.0256,0.0264 0.11598,0.10667 0.20203,0.17887 0.3104,0.26046 0.41539,0.37506 0.41705,0.42461 0.001,0.0495 0.021,0.0786 0.0318,0.12188 0.014,0.0578 0.006,0.0883 -0.0315,0.11583 -0.0618,0.0452 -0.0815,0.0464 -0.2186,0.009 -0.15948,-0.0443 -0.17333,-0.0756 -0.12422,-0.28814 0.0236,-0.10186 0.0385,-0.18845 0.0332,-0.19379 -0.005,-0.005 -0.0399,0.0668 -0.0779,0.1623 -0.038,0.0953 -0.0787,0.1739 -0.0911,0.1739 -0.0399,0 -0.17648,-0.18209 -0.24843,-0.33122 -0.0781,-0.16183 -0.0916,-0.23781 -0.0837,-0.25807 0.008,-0.0202 0.008,-0.0303 0.0441,-0.0533 0.0322,-0.0205 0.0264,-0.0262 -0.0247,-0.0264 -0.0902,-7.6e-4 -0.12686,0.11024 -0.11257,0.33288 0.0124,0.20206 0.0444,0.27095 0.20702,0.4455 l 0.11427,0.12251 -0.0497,0.0961 c -0.0278,0.0523 -0.0852,0.15371 -0.12748,0.22523 l -0.0779,0.12918 -0.0382,-0.0944 c -0.0213,-0.0523 -0.0325,-0.10744 -0.0396,-0.12903 -0.008,-0.0217 -0.0474,-0.11055 -0.0817,-0.21874 -0.0669,-0.21015 -0.13539,-0.34284 -0.1076,-0.21034 0.009,0.0402 0.0304,0.13167 0.0497,0.20371 0.0388,0.14564 0.0483,0.48587 0.0164,0.63761 -0.0205,0.0978 -0.0202,0.0978 0.0711,0.0795 0.14144,-0.0284 0.14207,-0.029 0.41071,-0.5134 0.0312,-0.056 0.0668,-0.11241 0.0795,-0.12592 0.0255,-0.0269 0.34355,0.0349 0.36599,0.0713 0.0155,0.0242 0.18836,-0.0582 0.22359,-0.10604 0.0306,-0.0416 0.0267,-0.20211 -0.008,-0.28982 -0.0155,-0.041 -0.0213,-0.0745 -0.0124,-0.0745 0.0194,0 0.16997,0.0947 0.18881,0.11924 0.009,0.0109 0.0439,0.008 0.0811,-0.008 0.0508,-0.0189 0.0637,-0.039 0.0497,-0.0829 -0.0109,-0.0321 -0.008,-0.0579 0.009,-0.0579 0.0312,0 0.23818,0.22137 0.23847,0.25506 3.9e-4,0.0428 0.19719,0.15294 0.2418,0.13586 0.0848,-0.0325 0.0868,-0.15418 0.008,-0.29149 l -0.0745,-0.12747 0.0961,0.0182 c 0.11956,0.0227 0.18862,0.0565 0.29976,0.14905 l 0.0862,0.0728 0.0332,-0.11427 c 0.0306,-0.10605 0.0284,-0.11739 -0.0432,-0.17889 l -0.0761,-0.0663 0.0862,0.0348 c 0.0481,0.0196 0.12049,0.0576 0.16066,0.0845 0.0401,0.0267 0.12343,0.0672 0.18548,0.0894 0.12359,0.0441 0.21399,0.1399 0.2418,0.25671 0.0311,0.12996 0.0644,0.15262 0.14238,0.0961 0.038,-0.0275 0.0708,-0.0745 0.0713,-0.10434 7.8e-4,-0.0427 0.0155,-0.0502 0.0663,-0.0348 0.18275,0.0543 0.26938,0.0497 0.33787,-0.0155 0.0282,-0.0267 0.0441,-0.0464 0.0512,-0.0713 0.005,-0.0109 0.005,-0.027 0.005,-0.043 z m -0.16727,-0.30803 c -10e-4,-0.0168 -0.0247,-0.0509 -0.0696,-0.10108 -0.12561,-0.13912 -0.13695,-0.23998 -0.0332,-0.30804 0.1017,-0.0666 0.0907,-0.0994 -0.0332,-0.0994 -0.0837,0 -0.12623,0.0222 -0.20371,0.10434 -0.054,0.0573 -0.0977,0.1208 -0.0977,0.14238 0,0.077 0.0365,0.13244 0.0877,0.13244 0.0287,0 0.109,0.0314 0.17887,0.0713 0.0925,0.0528 0.14844,0.0753 0.16561,0.0678 0.005,-0.001 0.005,-0.005 0.005,-0.0109 z m -1.64122,0.25668 c 10e-4,0.006 -1.8e-4,0.0109 -0.005,0.0155 -0.008,0.008 -0.0564,-0.0281 -0.10931,-0.0779 -0.0702,-0.0658 -0.0837,-0.091 -0.048,-0.0911 0.0426,-10e-5 0.15123,0.10978 0.16064,0.15403 z m -2.53058,-1.00029 c 0.005,-0.005 -0.005,-0.014 -0.0216,-0.0363 -0.0221,-0.0269 -0.0579,-0.0497 -0.0793,-0.0497 -0.0216,0 -0.0348,-0.0165 -0.0298,-0.0363 0.005,-0.02 0.005,-0.0269 -0.005,-0.0155 -0.008,0.0109 -0.03,0.0231 -0.053,0.0231 -0.0228,0 -0.0647,0.0109 -0.0927,0.0265 -0.0278,0.0155 -0.0731,0.0343 -0.10108,0.043 -0.0391,0.0109 -0.0456,0.0295 -0.0266,0.0811 0.0124,0.0366 0.0186,0.0843 0.0124,0.10434 -0.0155,0.0435 0.0383,0.0491 0.0646,0.008 0.0109,-0.0163 0.0304,-0.0236 0.0447,-0.0155 0.014,0.009 0.0554,-0.023 0.0911,-0.0713 0.0526,-0.0711 0.0781,-0.0848 0.13927,-0.0696 0.0337,0.009 0.0514,0.0124 0.0564,0.009 z m -0.0862,1.66771 c -0.001,-0.0363 -0.0241,-0.0745 -0.0663,-0.13089 -0.11723,-0.15637 -0.19199,-0.32751 -0.17721,-0.40907 0.0157,-0.0862 -0.005,-0.0952 -0.0862,-0.0332 -0.109,0.0826 -0.94227,0.0109 -1.04104,-0.0396 -0.0988,-0.0505 -0.46543,-0.20133 -0.48255,-0.26679 -0.0183,-0.0699 -0.0464,-0.0731 -0.0961,-0.0124 -0.0298,0.0362 -0.029,0.0529 0.0109,0.0961 0.0536,0.0966 0.15716,0.118 0.25494,0.1638 0.22881,0.12096 0.48941,0.18986 0.71544,0.19045 0.24638,7.8e-4 0.27896,0.0345 0.1309,0.13245 -0.16546,0.10946 -0.157,0.15545 0.0266,0.15402 0.17573,-0.001 0.23977,-0.0515 0.22689,-0.18051 -0.008,-0.0752 3.7e-4,-0.0919 0.0514,-0.0944 0.034,-0.001 0.0969,-0.0124 0.13912,-0.0231 0.0638,-0.016 0.0761,-0.009 0.0761,0.0397 0,0.0317 0.0222,0.10465 0.0497,0.16228 0.0686,0.14378 0.038,0.15894 -0.35442,0.16064 -0.26654,7.8e-4 -0.52759,0.0253 -0.99203,0.0927 -0.0512,0.008 -0.0568,-0.008 -0.0547,-0.12251 0.001,-0.072 0.0109,-0.17741 0.0216,-0.2335 0.0163,-0.082 0.0155,-0.0898 -0.009,-0.0363 -0.0161,0.0363 -0.0502,0.0751 -0.0838,0.11956 -0.0337,0.0444 -0.25734,0.26634 -0.28717,0.26634 -0.008,0 -0.0442,0.0233 -0.0828,0.0514 -0.0969,0.0706 -0.0986,0.16509 0.0183,0.17874 0.11691,0.0124 0.19456,0.009 0.53284,-0.0463 0.44164,-0.0717 1.00528,-0.0894 1.14437,-0.0363 0.096,0.0366 0.33982,0.0848 0.31797,0.0629 -0.009,-0.009 0.0109,-0.0478 0.0413,-0.0877 0.0371,-0.0474 0.0565,-0.0812 0.0546,-0.1177 z m -0.25835,-1.07482 c 0,-0.0325 -0.0214,-0.0377 -0.0877,-0.0231 -0.0781,0.0172 -0.1076,0.001 -0.26995,-0.15231 -0.19703,-0.18671 -0.37778,-0.31701 -0.56143,-0.40409 l -0.11583,-0.0548 0.19542,-0.0155 c 0.16779,-0.0124 0.20747,-0.0275 0.27657,-0.0994 l 0.081,-0.0829 -0.0728,0.0216 c -0.0402,0.0109 -0.2887,0.0314 -0.55313,0.043 -0.26446,0.0124 -0.52215,0.0343 -0.57303,0.0514 -0.0508,0.0171 -0.1,0.0242 -0.14223,0.0452 -0.0421,0.0211 -0.10775,0.0533 -0.16749,0.0939 -0.0598,0.0407 -0.1076,0.0941 -0.1076,0.11769 0,0.0523 -0.006,0.0517 0.14906,-0.005 0.22074,-0.0787 0.66285,-0.10822 0.9291,-0.0613 0.0722,0.0124 0.17575,0.054 0.23183,0.0911 0.16584,0.10947 0.37926,0.30979 0.37926,0.35608 0,0.0236 -0.0109,0.0346 -0.0281,0.0247 -0.016,-0.0109 -0.18004,-0.0236 -0.36434,-0.0298 -0.28154,-0.0109 -0.3362,-0.005 -0.38641,0.0547 -0.0503,0.0585 -0.0497,0.12328 0.009,0.14579 0.0253,0.0109 0.14021,0.0193 0.25503,0.0199 0.1149,3.9e-4 0.28538,0.0194 0.37761,0.0413 0.18912,0.0452 0.19835,0.0227 0.0231,-0.0564 -0.16931,-0.0764 -0.14906,-0.11273 0.0497,-0.0894 0.12282,0.014 0.18069,0.0362 0.21694,0.0829 0.10248,0.13228 0.1416,0.16691 0.17058,0.14905 0.0166,-0.0109 0.022,-0.0553 0.0124,-0.10263 -0.0124,-0.0624 -0.006,-0.0897 0.0281,-0.10263 0.0253,-0.0109 0.0464,-0.0362 0.0464,-0.0596 z"
       sodipodi:nodetypes="cccccccccccccccssccccccccsccccccccccccccccccccccssccccscsccccccscccccccccscccccsccccccscccsscccccccccccscccccccssccccscssscscccccccccccssscsccccccccccscccccccccscccsscccccccccccccccccccscccsssccsscccsccscsccccccccccccccsccscccccccscccccccsscscccccccccccscsscsscsccccscccccccccssccccccsc" /></g></svg>
