<?xml version="1.0" encoding="UTF-8" standalone="no"?>
<!-- Created with Inkscape (http://www.inkscape.org/) -->

<svg
   viewBox="0 0 38.549999 41.919998"
   version="1.1"
   id="svg1"
   inkscape:version="1.3.2 (091e20e, 2023-11-25, custom)"
   sodipodi:docname="Ou.svg"
   xml:space="preserve"
   xmlns:inkscape="http://www.inkscape.org/namespaces/inkscape"
   xmlns:sodipodi="http://sodipodi.sourceforge.net/DTD/sodipodi-0.dtd"
   xmlns="http://www.w3.org/2000/svg"
   xmlns:svg="http://www.w3.org/2000/svg"><sodipodi:namedview
     id="namedview1"
     pagecolor="#ffffff"
     bordercolor="#111111"
     borderopacity="1"
     inkscape:showpageshadow="false"
     inkscape:pageopacity="0"
     inkscape:pagecheckerboard="1"
     inkscape:deskcolor="#d1d1d1"
     inkscape:document-units="mm"
     showguides="true"
     inkscape:zoom="11.569391"
     inkscape:cx="19.275"
     inkscape:cy="20.960482"
     inkscape:window-width="1292"
     inkscape:window-height="745"
     inkscape:window-x="-8"
     inkscape:window-y="-8"
     inkscape:window-maximized="1"
     inkscape:current-layer="layer1"
     labelstyle="default"><inkscape:page
       x="0"
       y="0"
       width="38.549999"
       height="41.919998"
       id="page42"
       margin="0"
       bleed="0" /></sodipodi:namedview><defs
     id="defs1"><inkscape:path-effect
       effect="powerstroke"
       id="path-effect12"
       is_visible="true"
       lpeversion="1.3"
       scale_width="1"
       interpolator_type="CubicBezierJohan"
       interpolator_beta="0.2"
       start_linecap_type="zerowidth"
       end_linecap_type="zerowidth"
       offset_points="7,4.9921382"
       linejoin_type="extrp_arc"
       miter_limit="4"
       not_jump="false"
       sort_points="true"
       message="&lt;b&gt;Ctrl + click&lt;/b&gt; on existing node and move it" /><inkscape:path-effect
       effect="powerstroke"
       id="path-effect13"
       is_visible="true"
       lpeversion="1.3"
       scale_width="1"
       interpolator_type="CubicBezierJohan"
       interpolator_beta="0.2"
       start_linecap_type="zerowidth"
       end_linecap_type="zerowidth"
       offset_points="5,4.9921382"
       linejoin_type="extrp_arc"
       miter_limit="4"
       not_jump="false"
       sort_points="true"
       message="&lt;b&gt;Ctrl + click&lt;/b&gt; on existing node and move it" /></defs><g
     inkscape:label="Layer 1"
     inkscape:groupmode="layer"
     id="layer1"
     transform="rotate(180,62.137499,101.68)"><path
       style="fill:#938e5e;fill-opacity:1;fill-rule:evenodd;stroke:none;stroke-width:1;stroke-linecap:round;stroke-linejoin:round;stroke-dasharray:none;stroke-opacity:1;paint-order:stroke fill markers"
       d="m 119.35,200 v -6.4 L 114.78527,167.97943 105,164.8 95.21473,167.97943 90.649996,193.6 l 2e-6,6.4 z"
       id="path12"
       sodipodi:nodetypes="cccccccc" /><path
       style="display:inline;fill:#fff29e;fill-opacity:1;fill-rule:evenodd;stroke:none;stroke-width:0.385762;stroke-linecap:round;stroke-linejoin:round;paint-order:stroke fill markers"
       d="m 105,168 9.78527,3.17942 L 119.35,200 h -28.7 l 4.56473,-28.82058 z"
       id="path13" /><path
       id="path5-2"
       style="fill:#000000;stroke-width:0.465346"
       inkscape:label="path1"
       d="m 107.50024,171.19744 c -0.59282,-0.001 -1.2186,0.0446 -1.58087,0.13797 -1.33125,0.34398 -2.90468,0.70377 -4.34634,0.99339 -0.82468,0.16556 -1.41901,0.21735 -1.877603,0.16367 -0.36893,-0.0435 -0.67096,-0.0302 -0.67096,0.0302 0,0.1788 1.776723,1.06336 2.135903,1.06336 0.1822,0 0.57842,-0.0695 0.88112,-0.15422 0.52153,-0.14591 0.56311,-0.13873 0.79524,0.13834 0.35041,0.41841 0.76197,1.5633 0.71854,1.99785 -0.034,0.34361 -0.0896,0.38216 -0.77554,0.54107 -0.40632,0.0941 -1.11341,0.15158 -1.57124,0.12815 -0.97585,-0.0507 -1.00076,0.0438 -0.16179,0.61149 0.65981,0.44661 1.16969,0.50214 1.97453,0.21546 0.26838,-0.0956 0.51371,-0.1478 0.54542,-0.11605 0.0302,0.0302 0.0817,0.51405 0.11075,1.07183 l 0.0529,1.01406 -0.35343,0.0227 c -0.32319,0.0227 -1.01315,0.21395 -3.05931,0.85368 -0.884603,0.27632 -2.534693,0.2714 -2.962893,-0.008 -0.14931,-0.0979 -0.30353,-0.14629 -0.34209,-0.10773 -0.10962,0.10962 0.34285,0.9083 0.84143,1.48664 0.24835,0.28766 0.50195,0.52327 0.5639,0.52327 0.1066,0 1.667143,-0.58972 3.007873,-1.13673 1.26181,-0.5148 2.12943,-0.74077 3.44745,-0.89768 1.65459,-0.19694 4.01097,-0.14969 5.17117,0.10358 0.47401,0.10357 1.03372,0.21697 1.24396,0.2525 0.76375,0.12852 1.20507,-0.61266 0.67836,-1.13933 -0.31638,-0.31677 -1.52262,-0.75298 -2.08104,-0.75294 -0.25138,0 -1.12176,0.10584 -1.93439,0.23549 -2.21902,0.35419 -2.73881,0.40938 -2.79335,0.29711 -0.0265,-0.0559 -0.0189,-0.57014 0.0189,-1.14224 l 0.0673,-1.04004 1.12588,-0.268 c 1.28664,-0.30656 1.39811,-0.35797 1.39811,-0.64566 0,-0.46604 -1.21769,-0.72853 -1.83841,-0.3963 -0.35003,0.18711 -0.5377,0.0454 -0.46123,-0.34852 0.12436,-0.64128 -0.0382,-0.98873 -0.57857,-1.23485 -1.11692,-0.50872 -1.10414,-0.5723 0.1614,-0.80488 0.62862,-0.11529 1.31692,-0.20979 1.5297,-0.20941 0.77263,0.001 2.23894,-0.26838 2.44922,-0.45066 0.34058,-0.29521 0.27216,-0.71068 -0.14591,-0.88372 -0.22944,-0.0953 -0.78938,-0.14364 -1.38223,-0.14516 z m -0.2113,9.87026 c -0.41142,-0.0265 -0.75388,0.008 -0.75388,0.12133 0,0.0677 0.0556,0.12323 0.12322,0.12323 0.0677,0 0.12285,0.0968 0.12285,0.21546 -0.001,0.42344 -0.46879,0.95793 -1.123,1.2832 -1.20707,0.60012 -1.75294,0.84068 -1.90819,0.84068 -0.0843,0 -0.30164,0.0563 -0.48286,0.12512 -0.25704,0.0975 -0.299,0.16178 -0.19202,0.29068 0.11378,0.13721 0.30089,0.13873 1.0908,0.0113 2.3774,-0.38673 4.89644,-1.31998 5.03312,-1.86464 0.0915,-0.36402 -0.085,-0.57645 -0.74281,-0.89481 -0.27556,-0.13343 -0.75559,-0.22302 -1.16704,-0.25061 z m -5.54029,0.78662 c -0.20223,-0.008 -0.45337,0.0151 -0.83708,0.0688 -0.50996,0.0711 -0.973543,0.15763 -1.030213,0.19278 -0.0567,0.034 0.125503,0.2767 0.404473,0.53699 l 0.50742,0.47349 -0.0302,1.27715 c -0.0189,0.70244 -0.0438,1.28989 -0.0593,1.30527 -0.0151,0.0151 -0.19165,-0.0151 -0.39127,-0.0703 -0.348523,-0.0941 -0.838033,-0.0302 -1.337033,0.17426 -0.21281,0.0873 -0.22642,0.0567 -0.14629,-0.32433 0.0488,-0.23134 0.12021,-0.70577 0.15839,-1.05402 0.0631,-0.57282 0.042,-0.64986 -0.22302,-0.80941 -0.2956,-0.17804 -1.53737,-0.21697 -1.79732,-0.0563 -0.0832,0.0514 0.0189,0.23625 0.27254,0.4889 0.34927,0.34928 0.41867,0.52202 0.49438,1.22907 0.0484,0.45247 0.0582,0.90018 0.0227,0.99505 -0.0919,0.23928 -1.22506,0.4902 -1.88074,0.4163 -0.40068,-0.045 -0.54345,-0.0189 -0.54345,0.10243 0,0.16028 0.86622,0.81955 1.23122,0.93711 0.27897,0.09 1.40662,-0.34134 2.6623,-1.01815 1.267363,-0.68305 1.593433,-0.7554 1.476973,-0.3281 -0.0416,0.15233 -0.11114,0.56825 -0.15461,0.92413 -0.073,0.598 -0.10319,0.64635 -0.40041,0.63943 -0.776493,-0.0189 -1.257693,0.13003 -3.190823,0.98065 -0.87859,0.38669 -1.34898,0.5176 -2.01785,0.56175 -0.93389,0.0616 -1.13555,0.13192 -0.76349,0.26573 0.12814,0.0461 0.48256,0.26007 0.7873,0.47541 0.60462,0.4273 0.67394,0.42533 1.63883,-0.0499 0.45118,-0.22227 0.6265,-0.25742 0.73585,-0.14818 0.29484,0.29484 0.14213,1.0443 -0.45473,2.22991 -0.48392,0.9614 -0.57759,1.25273 -0.52663,1.63617 0.10206,0.76806 0.49472,1.03172 0.99338,0.6671 0.24986,-0.18257 1.16134,-2.8242 1.26634,-3.66941 0.0654,-0.52504 0.0435,-0.58496 -0.3024,-0.83107 -0.20487,-0.14591 -0.43296,-0.26536 -0.50712,-0.26536 -0.0741,0 -0.13495,-0.0556 -0.13495,-0.12323 0,-0.0677 0.0866,-0.12323 0.1924,-0.12323 0.10584,0 0.48366,-0.13305 0.83928,-0.29559 0.58896,-0.26952 1.477953,-0.5636 1.707813,-0.56534 0.12965,-9.8e-4 0.11416,1.28705 -0.034,2.95423 -0.16708,1.85549 -0.14175,1.80322 -0.702893,1.46763 -0.25402,-0.15196 -0.58617,-0.38749 -0.73828,-0.52353 -0.15196,-0.13609 -0.30731,-0.21698 -0.34474,-0.17956 -0.0688,0.0684 1.05705,2.10717 1.634523,2.95979 0.17199,0.25402 0.33831,0.46169 0.36931,0.46169 0.19996,0 0.77407,-0.55664 0.94409,-0.91499 0.1788,-0.37649 0.18976,-0.69737 0.0937,-2.70584 -0.11492,-2.39982 -0.0227,-4.15586 0.29711,-5.73651 0.10319,-0.50788 0.21659,-1.12686 0.25288,-1.37551 0.0378,-0.24873 0.1478,-0.80269 0.24872,-1.23123 0.10093,-0.42854 0.2132,-0.98741 0.24948,-1.24181 0.0628,-0.43916 0.0435,-0.47208 -0.38643,-0.65171 -0.18749,-0.0782 -0.34058,-0.1202 -0.54277,-0.1289 z m 9.48889,0.87 c -0.16405,-0.0151 -0.33793,-0.008 -0.52111,0.0151 -0.57139,0.076 -0.83092,0.32471 -0.46555,0.44657 0.0798,0.0265 0.11076,0.13835 0.0688,0.2476 -0.0964,0.25061 -1.82257,1.68993 -2.03009,1.69246 -0.18787,0.002 -0.19468,-0.27745 -0.0227,-0.90229 0.16783,-0.60458 0.085,-0.67931 -0.31223,-0.28199 l -0.31752,0.31752 -0.45931,-0.23776 c -0.63497,-0.32886 -0.9633,-0.26044 -0.91257,0.19013 0.0688,0.61048 0.36968,1.16107 0.75509,1.38031 0.20563,0.1168 0.37384,0.24306 0.3746,0.27972 5.3e-4,0.0378 -0.27065,0.23096 -0.60265,0.43092 -1.12878,0.68026 -1.85886,1.22144 -1.85886,1.37771 0,0.21848 0.16406,0.19391 0.50668,-0.0745 0.1614,-0.12663 0.76458,-0.47163 1.34016,-0.76666 0.57562,-0.29484 1.06487,-0.5791 1.08744,-0.63145 0.0782,-0.18182 0.22793,-0.0934 0.37006,0.21848 0.20639,0.4533 0.17615,0.67141 -0.0934,0.67141 -0.79777,0 -2.37607,0.59289 -4.0657,1.5275 -1.14633,0.63406 -1.31144,0.67122 -1.42314,0.31941 -0.12814,-0.40359 -0.27481,-0.28161 -0.36212,0.30127 -0.0873,0.58223 0.10508,1.54576 0.30882,1.54576 0.11492,0 0.92932,-0.58413 1.79396,-1.28676 0.21244,-0.17274 0.41255,-0.31374 0.4446,-0.31374 0.0302,0 0.25667,0.43357 0.49878,0.96357 0.52402,1.14636 0.65356,1.27681 1.14009,1.1478 0.49283,-0.13079 0.66845,-0.7712 0.37875,-1.38179 -0.1803,-0.38 -0.41493,-0.54579 -1.09393,-0.7729 -0.32508,-0.10886 -0.26045,-0.25061 0.18484,-0.40347 0.22,-0.0756 0.67719,-0.251 1.01576,-0.38961 1.05769,-0.43304 1.65452,-0.57468 1.80163,-0.42756 0.13495,0.13495 0.22,3.73431 0.13193,5.60402 -0.042,0.89609 -0.062,0.95423 -0.32357,0.95423 -0.39278,0 -1.61713,-0.43705 -2.01494,-0.71926 -0.37422,-0.26536 -1.23376,-0.75824 -1.32262,-0.75824 -0.0302,0 -0.0578,0.0575 -0.0578,0.12815 0,0.21773 0.87953,1.04638 1.84684,1.74028 0.50788,0.36439 1.08963,0.82015 1.29276,1.01289 0.20299,0.19278 0.5633,0.47885 0.80031,0.6358 0.59418,0.3935 0.93245,0.37233 1.34931,-0.0839 0.4575,-0.50089 0.5038,-0.89964 0.2767,-2.38647 -0.17804,-1.16576 -0.30845,-5.74294 -0.17804,-6.24201 0.0518,-0.19807 0.2147,-0.22189 1.51208,-0.22189 0.79981,0 1.88778,0.0631 2.41751,0.14024 1.48535,0.21659 1.64661,0.18031 1.41856,-0.32017 -0.30883,-0.67779 -2.08804,-1.19924 -3.22575,-0.94553 -0.30467,0.068 -0.95381,0.16179 -1.44234,0.20904 -0.87401,0.0839 -0.89053,0.0801 -1.035,-0.23701 -0.0839,-0.18447 -0.32395,-0.38628 -0.56031,-0.47182 -0.22756,-0.082 -0.39551,-0.20374 -0.37347,-0.2699 0.0227,-0.0661 0.66664,-0.35721 1.43225,-0.64713 2.08316,-0.78832 2.27904,-0.98307 1.71196,-1.70399 -0.29181,-0.37082 -0.69461,-0.5805 -1.18673,-0.62117 z m -6.03759,1.93344 c -0.0574,8e-5 -0.18597,0.12626 -0.39678,0.3785 l -0.33378,0.39992 -0.49227,-0.2767 c -0.56447,-0.31714 -1.13574,-0.36704 -1.13574,-0.099 0,0.0975 0.0544,0.2113 0.12134,0.2525 0.0669,0.0412 0.20903,0.37574 0.31563,0.7433 0.11945,0.41082 0.31638,0.76417 0.51079,0.91719 0.35305,0.27745 0.89496,0.32621 1.12036,0.10092 0.0824,-0.0824 0.1478,-0.47753 0.1478,-0.89337 0,-0.41013 0.0514,-0.92549 0.11453,-1.14511 0.0722,-0.25213 0.0854,-0.37812 0.0265,-0.37804 z" /></g></svg>
