<?xml version="1.0" encoding="UTF-8" standalone="no"?>
<!-- Created with Inkscape (http://www.inkscape.org/) -->

<svg
   viewBox="0 0 38.549999 41.919998"
   version="1.1"
   id="svg1"
   inkscape:version="1.3.2 (091e20e, 2023-11-25, custom)"
   sodipodi:docname="Ou.svg"
   xml:space="preserve"
   xmlns:inkscape="http://www.inkscape.org/namespaces/inkscape"
   xmlns:sodipodi="http://sodipodi.sourceforge.net/DTD/sodipodi-0.dtd"
   xmlns="http://www.w3.org/2000/svg"
   xmlns:svg="http://www.w3.org/2000/svg"><sodipodi:namedview
     id="namedview1"
     pagecolor="#ffffff"
     bordercolor="#111111"
     borderopacity="1"
     inkscape:showpageshadow="false"
     inkscape:pageopacity="0"
     inkscape:pagecheckerboard="1"
     inkscape:deskcolor="#d1d1d1"
     inkscape:document-units="mm"
     showguides="true"
     inkscape:zoom="3.4650824"
     inkscape:cx="72.86984"
     inkscape:cy="78.930302"
     inkscape:window-width="1292"
     inkscape:window-height="745"
     inkscape:window-x="-8"
     inkscape:window-y="-8"
     inkscape:window-maximized="1"
     inkscape:current-layer="layer1"
     labelstyle="default"><inkscape:page
       x="0"
       y="0"
       width="38.549999"
       height="41.919998"
       id="page42"
       margin="0"
       bleed="0" /></sodipodi:namedview><defs
     id="defs1"><inkscape:path-effect
       effect="powerstroke"
       id="path-effect12"
       is_visible="true"
       lpeversion="1.3"
       scale_width="1"
       interpolator_type="CubicBezierJohan"
       interpolator_beta="0.2"
       start_linecap_type="zerowidth"
       end_linecap_type="zerowidth"
       offset_points="7,4.9921382"
       linejoin_type="extrp_arc"
       miter_limit="4"
       not_jump="false"
       sort_points="true"
       message="&lt;b&gt;Ctrl + click&lt;/b&gt; on existing node and move it" /><inkscape:path-effect
       effect="powerstroke"
       id="path-effect13"
       is_visible="true"
       lpeversion="1.3"
       scale_width="1"
       interpolator_type="CubicBezierJohan"
       interpolator_beta="0.2"
       start_linecap_type="zerowidth"
       end_linecap_type="zerowidth"
       offset_points="5,4.9921382"
       linejoin_type="extrp_arc"
       miter_limit="4"
       not_jump="false"
       sort_points="true"
       message="&lt;b&gt;Ctrl + click&lt;/b&gt; on existing node and move it" /><inkscape:path-effect
       effect="powerstroke"
       id="path-effect13-1"
       is_visible="true"
       lpeversion="1.3"
       scale_width="1"
       interpolator_type="CubicBezierJohan"
       interpolator_beta="0.2"
       start_linecap_type="zerowidth"
       end_linecap_type="zerowidth"
       offset_points="5,4.9921382"
       linejoin_type="extrp_arc"
       miter_limit="4"
       not_jump="false"
       sort_points="true"
       message="&lt;b&gt;Ctrl + click&lt;/b&gt; on existing node and move it" /><inkscape:path-effect
       effect="powerstroke"
       id="path-effect13-2"
       is_visible="true"
       lpeversion="1.3"
       scale_width="1"
       interpolator_type="CubicBezierJohan"
       interpolator_beta="0.2"
       start_linecap_type="zerowidth"
       end_linecap_type="zerowidth"
       offset_points="5,4.9921382"
       linejoin_type="extrp_arc"
       miter_limit="4"
       not_jump="false"
       sort_points="true"
       message="&lt;b&gt;Ctrl + click&lt;/b&gt; on existing node and move it" /></defs><g
     inkscape:label="Layer 1"
     inkscape:groupmode="layer"
     id="layer1"
     transform="rotate(180,62.137499,101.68)"><path
       style="fill:#938e5e;fill-opacity:1;fill-rule:evenodd;stroke:none;stroke-width:1;stroke-linecap:round;stroke-linejoin:round;stroke-dasharray:none;stroke-opacity:1;paint-order:stroke fill markers"
       d="m 119.35,200 v -6.4 L 114.78527,167.97943 105,164.8 95.21473,167.97943 90.649996,193.6 l 2e-6,6.4 z"
       id="path12"
       sodipodi:nodetypes="cccccccc" /><path
       style="display:inline;fill:#fff29e;fill-opacity:1;fill-rule:evenodd;stroke:none;stroke-width:0.385762;stroke-linecap:round;stroke-linejoin:round;paint-order:stroke fill markers"
       d="m 105,168 9.78527,3.17942 L 119.35,200 h -28.7 l 4.56473,-28.82058 z"
       id="path13" /><path
       id="path3"
       style="display:inline;fill:#000000;stroke-width:0.490558"
       inkscape:label="path1"
       d="m 108.64872,171.61522 c -0.16805,-0.001 -0.36517,0.002 -0.59624,0.013 -0.92427,0.0411 -2.38994,0.179 -4.69411,0.42664 -1.93526,0.20801 -3.520522,0.31473 -4.054026,0.27303 -0.927881,-0.0725 -1.068683,0.0228 -0.596999,0.40434 0.153552,0.12422 0.452383,0.37463 0.663923,0.55644 0.37556,0.32277 0.40473,0.32677 1.245722,0.17491 1.78292,-0.32195 2.48379,-0.39334 2.48153,-0.25274 -9.8e-4,0.0751 -0.10952,0.6623 -0.24082,1.30478 l -0.2388,1.16814 -0.70018,0.1047 c -0.38504,0.0576 -0.97735,0.0767 -1.31644,0.0423 -0.57274,-0.0581 -0.616522,-0.0416 -0.616522,0.23196 0,0.162 0.116272,0.40002 0.258572,0.52881 0.22246,0.20131 0.41181,0.22335 1.34966,0.15717 l 1.09082,-0.0771 0.15869,0.84239 c 0.0874,0.46323 0.13055,0.87054 0.0958,0.90526 -0.0739,0.0739 -0.26087,0.11545 -1.94057,0.4307 -1.237192,0.23221 -1.512451,0.22746 -3.187038,-0.0563 -0.665704,-0.1128 -0.540175,0.3041 0.305979,1.01553 0.400372,0.33663 0.844415,0.61196 0.986633,0.61196 0.142219,0 0.851254,-0.17085 1.575776,-0.37975 1.22067,-0.35198 2.29839,-0.58876 4.11866,-0.90476 1.00878,-0.17512 3.31621,-0.0731 4.59703,0.20306 0.14277,0.0308 0.45785,0.0837 0.70017,0.11788 0.24233,0.0341 0.68038,0.11613 0.97346,0.18201 0.83524,0.18778 1.43846,-0.3168 1.14608,-0.95849 -0.27048,-0.59365 -0.95667,-0.77141 -3.0144,-0.78155 -1.03511,-0.005 -2.19423,0.0371 -2.57585,0.094 l -0.69409,0.10343 0.0994,-0.55771 c 0.0546,-0.30675 0.104,-0.70372 0.10977,-0.88219 0.0102,-0.31367 0.0431,-0.32537 0.9841,-0.35313 1.34957,-0.0398 1.55752,-0.10515 1.55752,-0.4885 0,-0.45795 -0.41559,-0.62214 -1.61228,-0.63756 l -1.0386,-0.0134 -0.13994,-1.01249 c -0.16576,-1.19921 -0.11762,-1.27345 0.79068,-1.21606 2.17643,0.13753 3.5471,-0.42427 2.81692,-1.15445 -0.10424,-0.10424 -0.34584,-0.16152 -0.84999,-0.16629 z m 2.32944,10.30996 c -0.47367,-0.014 -1.08999,0.0571 -1.84195,0.2132 -0.57109,0.11859 -1.35959,0.25527 -1.75221,0.3037 -0.39263,0.0484 -0.83069,0.10243 -0.97346,0.12016 -0.14277,0.0178 -0.71224,0.0398 -1.26549,0.0489 -0.55324,0.009 -1.0059,0.0685 -1.0059,0.13207 0,0.158 1.01469,0.62274 1.5991,0.73237 0.29568,0.0555 0.4776,0.16297 0.4776,0.2824 0,0.14709 -1.33197,1.68637 -1.82877,2.11346 -0.0421,0.0362 -0.26114,0.32295 -0.48672,0.63705 -0.46415,0.64626 -0.56684,1.53845 -0.21092,1.83384 0.2649,0.21985 0.68353,-0.18079 1.55296,-1.48705 0.35693,-0.53626 0.68641,-0.97691 0.73237,-0.97902 0.046,-0.002 0.22769,0.27133 0.40383,0.60764 0.17614,0.33632 0.40153,0.662 0.50067,0.72375 0.12427,0.0774 0.50827,-0.10773 1.23658,-0.59624 0.581,-0.38969 1.35755,-0.80853 1.72586,-0.93086 1.06741,-0.35454 1.66913,-0.0471 1.03352,0.52804 -0.1499,0.13567 -1.50331,0.86038 -3.0078,1.61026 -1.50451,0.74988 -2.75942,1.43635 -2.78854,1.52558 -0.10815,0.33141 0.71908,0.14699 2.69449,-0.60055 2.9138,-1.10264 4.71218,-1.98648 4.90553,-2.41081 0.27195,-0.59686 0.19037,-0.982 -0.30724,-1.45131 -0.3652,-0.34442 -0.57857,-0.43986 -1.00591,-0.45022 -1.1528,-0.028 -1.4878,0.0568 -2.66583,0.67432 -1.1707,0.61361 -1.5797,0.72659 -2.01915,0.55796 -0.27287,-0.10471 -0.25914,-0.25998 0.0639,-0.71361 0.18571,-0.26081 0.25654,-0.52912 0.22764,-0.86369 l -0.0421,-0.48545 1.68706,-0.16782 c 2.18448,-0.21725 2.97377,-0.37713 3.33787,-0.67635 l 0.29609,-0.24336 -0.28747,-0.29153 c -0.18105,-0.18377 -0.51195,-0.28283 -0.98562,-0.29685 z m -10.64434,0.42386 c -0.421832,0.0188 -0.457552,0.20745 -0.12143,0.57723 0.36141,0.39759 0.41263,0.84666 0.23703,2.07695 l -0.15185,1.06395 -0.577732,0.0877 c -0.317751,0.0482 -0.746399,0.0921 -0.952413,0.0973 -0.373146,0.01 -0.374292,0.007 -0.289754,-0.60689 0.27567,-2.00273 0.280641,-1.93626 -0.155651,-2.16187 -0.226857,-0.11732 -0.583708,-0.18208 -0.827687,-0.15033 -0.23589,0.0307 -0.501936,0.0596 -0.591169,0.0644 -0.255398,0.0138 -0.191575,0.22747 0.178973,0.59801 0.328163,0.32817 0.337977,0.37963 0.251982,1.32861 -0.0492,0.54298 -0.11869,1.0346 -0.154383,1.09235 -0.08789,0.14221 -0.769985,0.12708 -1.461952,-0.0324 -0.312812,-0.0721 -0.596147,-0.10378 -0.629702,-0.0702 -0.202619,0.20262 1.139102,1.37616 1.492373,1.30529 0.328491,-0.0659 2.371198,-0.43418 2.789799,-0.50295 0.196925,-0.0323 0.474364,-0.0956 0.616524,-0.1407 0.231692,-0.0735 0.258572,-0.0222 0.258572,0.49611 0,0.31803 -0.14514,1.35882 -0.322462,2.31271 -0.17732,0.95388 -0.390254,2.11386 -0.473034,2.57787 -0.08278,0.46401 -0.176085,0.91336 -0.207619,0.99855 -0.07949,0.21474 -0.835639,0.10017 -1.467781,-0.22232 -0.463063,-0.23624 -0.514358,-0.24053 -0.514358,-0.0449 0,0.11952 0.223073,0.40812 0.495852,0.64162 0.27278,0.23348 0.636411,0.68949 0.808167,1.01324 0.187406,0.35327 0.417386,0.60464 0.574945,0.62869 0.511888,0.0781 0.846848,-0.0646 1.09513,-0.46644 0.2573,-0.41647 0.57603,-2.03117 0.72072,-3.65171 0.0446,-0.49971 0.13322,-1.20059 0.19671,-1.55753 0.0635,-0.35693 0.18419,-1.20383 0.26846,-1.882 0.15095,-1.2147 0.45949,-2.56779 0.84316,-3.69785 0.36519,-1.07565 -0.0101,-1.54783 -1.37856,-1.73497 -0.22693,-0.031 -0.41025,-0.0438 -0.55086,-0.0375 z m 10.96679,5.48454 c -0.0475,3e-4 -0.0902,0.004 -0.127,0.0109 -0.0983,0.0188 -0.1554,0.0619 -0.1554,0.13233 0,0.10541 0.11681,0.29744 0.25959,0.42665 0.36715,0.33227 0.32345,0.45454 -0.16224,0.45351 -0.23201,-4.9e-4 -0.9475,0.1127 -1.58997,0.25173 -1.22994,0.26616 -3.28982,0.66501 -4.78335,0.92604 -0.49537,0.0866 -1.40006,0.12632 -2.04146,0.0898 l -1.15192,-0.0657 0.25477,0.35769 c 0.35264,0.49523 1.13766,1.16688 1.36385,1.16688 0.10315,0 0.40771,-0.0828 0.67685,-0.18405 0.76238,-0.28681 2.12599,-0.68577 2.67268,-0.78205 0.27277,-0.048 0.58061,-0.1198 0.90466,-0.1949 0.32406,-0.0751 0.65228,-0.13722 1.26026,-0.2031 0.16121,-0.0175 0.35315,-0.0449 0.5392,-0.0728 l 0.69384,-0.12092 c 0.28554,-0.064 0.8235,-0.13978 1.19552,-0.16833 l 0.67634,-0.052 0.10039,0.597 c 0.16137,0.95897 0.11014,3.28173 -0.0801,3.63219 -0.16357,0.30133 -0.19854,0.30732 -1.31441,0.22309 -0.63059,-0.0476 -1.32969,-0.1504 -1.55347,-0.22841 -0.27022,-0.0942 -0.45027,-0.0983 -0.53616,-0.0124 -0.13298,0.13299 1.01282,0.73587 2.03994,1.07333 0.28064,0.0922 0.83154,0.34289 1.22417,0.5572 0.39262,0.21431 0.85988,0.46781 1.03834,0.56329 0.17847,0.0955 0.36028,0.17397 0.40408,0.1744 0.22746,0.002 0.7887,-0.76304 1.03253,-1.40795 0.29925,-0.79152 0.29728,-0.90467 -0.0616,-3.65323 -0.10733,-0.82201 -0.13111,-1.41296 -0.0598,-1.48908 0.065,-0.0694 0.55237,-0.10958 1.08296,-0.0895 1.04776,0.0397 1.49567,-0.10871 1.49567,-0.49534 0,-0.48612 -0.48268,-0.65176 -1.89899,-0.65176 -1.16757,0 -1.39739,-0.039 -1.96719,-0.33462 -0.52529,-0.27253 -1.09968,-0.43205 -1.43254,-0.42994 z m -12.397815,0.54909 c -0.343518,0.009 -0.80097,0.0575 -1.403392,0.14297 -0.855699,0.12136 -1.858378,0.20442 -2.228038,0.18481 -0.509696,-0.027 -0.672036,0.009 -0.672036,0.14804 0,0.28552 0.833582,0.778 1.316948,0.778 0.556169,0 0.551613,0.15355 -0.03093,1.0381 -0.909447,1.38092 -1.004043,1.73498 -0.605365,2.26353 0.380854,0.50491 0.79918,0.21466 1.598843,-1.10883 0.546932,-0.9052 0.590169,-1.1775 0.319414,-2.01231 -0.07503,-0.23134 -0.02427,-0.28662 0.327272,-0.35693 0.228777,-0.0458 0.749924,-0.0831 1.158255,-0.0831 0.793987,0 1.282162,-0.30504 1.128592,-0.70524 -0.0648,-0.16878 -0.241578,-0.2621 -0.602827,-0.28494 -0.09031,-0.006 -0.192233,-0.007 -0.306738,-0.004 z m 7.564785,3.6763 c -0.86603,1.25595 -0.8395,1.63373 0.11534,1.63864 1.0969,0.006 2.48839,-0.99041 2.48839,-1.78111 0,-0.24362 -0.91324,-1.10651 -1.26549,-1.19578 -0.16062,-0.0407 -0.29203,-0.12216 -0.38176,-0.0836 -0.0897,0.0386 -0.39449,0.6068 -0.95648,1.4218 z m -0.57013,-1.29769 -0.0172,0.003 -9.8e-4,0.002 c 0.006,-0.001 0.0124,-0.003 0.018,-0.005 z"
       transform="matrix(0.99303126,0,0,1,0.7317184,5.4224145e-7)" /></g></svg>
