<?xml version="1.0" encoding="UTF-8" standalone="no"?>
<!-- Created with Inkscape (http://www.inkscape.org/) -->

<svg
   viewBox="0 0 38.549999 41.919998"
   version="1.1"
   id="svg1"
   inkscape:version="1.3.2 (091e20e, 2023-11-25, custom)"
   sodipodi:docname="Ou.svg"
   xml:space="preserve"
   xmlns:inkscape="http://www.inkscape.org/namespaces/inkscape"
   xmlns:sodipodi="http://sodipodi.sourceforge.net/DTD/sodipodi-0.dtd"
   xmlns="http://www.w3.org/2000/svg"
   xmlns:svg="http://www.w3.org/2000/svg"><sodipodi:namedview
     id="namedview1"
     pagecolor="#ffffff"
     bordercolor="#111111"
     borderopacity="1"
     inkscape:showpageshadow="0"
     inkscape:pageopacity="0"
     inkscape:pagecheckerboard="1"
     inkscape:deskcolor="#d1d1d1"
     inkscape:document-units="mm"
     showguides="true"
     inkscape:zoom="13.096375"
     inkscape:cx="19.280145"
     inkscape:cy="20.959999"
     inkscape:window-width="1292"
     inkscape:window-height="745"
     inkscape:window-x="-8"
     inkscape:window-y="-8"
     inkscape:window-maximized="1"
     inkscape:current-layer="layer1"><inkscape:page
       x="0"
       y="0"
       width="38.549999"
       height="41.919998"
       id="page42"
       margin="0"
       bleed="0" /></sodipodi:namedview><defs
     id="defs1"><inkscape:path-effect
       effect="powerstroke"
       id="path-effect13"
       is_visible="true"
       lpeversion="1.3"
       scale_width="1"
       interpolator_type="CubicBezierJohan"
       interpolator_beta="0.2"
       start_linecap_type="zerowidth"
       end_linecap_type="zerowidth"
       offset_points="5,4.9921382"
       linejoin_type="extrp_arc"
       miter_limit="4"
       not_jump="false"
       sort_points="true"
       message="&lt;b&gt;Ctrl + click&lt;/b&gt; on existing node and move it" /></defs><g
     inkscape:label="Layer 1"
     inkscape:groupmode="layer"
     id="layer1"
     transform="translate(-85.724998,-164.64)"><path
       style="fill:#fff29e;fill-opacity:1;fill-rule:evenodd;stroke:none;stroke-width:0.385762;stroke-linecap:round;stroke-linejoin:round;paint-order:stroke fill markers"
       d="m 105,168 9.78527,3.17942 L 119.35,200 H 90.649997 l 4.56473,-28.82058 z"
       id="path13" /><path
       style="display:inline;fill:#938e5e;fill-opacity:1;fill-rule:evenodd;stroke:none;stroke-width:0.386001;stroke-linecap:round;stroke-linejoin:round;stroke-dasharray:none;stroke-opacity:1;paint-order:stroke fill markers"
       d="m 90.649998,200 -3e-6,3.2 H 119.35 V 200 Z"
       id="path45" /><path
       d="m 110.40712,202.34242 q -0.0259,-0.0518 -0.0551,-0.15874 -0.0292,-0.0713 -0.11339,-0.20411 -0.0356,-0.0356 -0.0939,-0.11339 -0.013,-0.0194 -0.0389,-0.13931 -0.007,-0.0227 -0.0486,-0.11662 0.0907,0.081 0.26242,0.22679 0.14903,0.11662 0.21058,0.10691 l 0.10368,0.11015 -0.10692,0.32397 z m -0.94924,-0.57667 q 0.10691,0.26242 0.28185,0.55724 l -0.0292,0.10043 0.0227,0.0583 q 0.0324,0.003 0.13607,0.0324 0.0842,0.0259 0.13932,0.0227 0.0356,-0.081 0.0356,-0.21058 0,-0.12959 -0.0551,-0.31102 -0.0551,-0.17818 -0.12959,-0.29481 -0.32397,0.0486 -0.34017,0.0486 -0.0259,0 -0.0615,-0.003 z m -0.49568,1.17927 -0.0162,0.006 q -0.0194,0.003 -0.0259,0.003 -0.01,0 -0.0907,-0.013 l -0.0324,0.01 q -0.0259,0.006 -0.0356,0.006 -0.0324,0 -0.10367,-0.006 -0.068,-0.006 -0.10367,-0.006 -0.0583,0 -0.16199,-0.068 -0.0842,-0.0583 -0.13283,-0.11015 -0.1555,-0.16847 -0.1555,-0.31425 0,-0.0745 0.0972,-0.22355 -0.43737,-0.006 -0.59287,-0.14254 0.30453,-0.081 0.90064,-0.10044 l 0.29158,-0.23326 -0.12959,0.22678 q 0.094,0.006 0.28186,0.0356 l 0.0745,-0.01 q -0.11339,-0.20734 -0.18466,-0.27214 -0.10691,-0.10043 -0.30778,-0.12311 -0.14255,-0.0129 -0.24946,-0.0875 l 0.19763,-0.0842 q 0.10691,0.0194 0.28833,0.0778 0.21706,0.068 0.2689,0.11339 l -0.0227,0.0324 q -0.0421,-0.0292 -0.10043,-0.0292 -0.013,0 -0.0259,0.003 0.16199,0.15875 0.18143,0.17819 0.10043,0.11015 0.14579,0.2041 0.0453,0.006 0.0551,0.006 0.0551,0 0.0713,-0.0259 l -0.0194,-0.094 q 0.0453,-0.01 0.0518,-0.0486 0.01,-0.0356 0.013,-0.0745 0.006,-0.0259 0.0324,-0.0486 l -0.0583,-0.0518 q 0.0648,-0.0842 0.13607,-0.10691 0.0389,-0.01 0.16847,-0.01 0.01,0 0.0356,-0.003 0.0259,-0.003 0.0389,-0.003 0.0907,0 0.21707,0.0518 l -0.0356,0.0713 q 0.0356,0.0778 0.13283,0.21706 0.0972,0.14255 0.12959,0.2203 0.0389,0.094 0.0648,0.25595 0.0324,0.19439 0.0518,0.25917 l -0.11339,0.18468 -0.003,0.0745 q -0.11987,0.0518 -0.13931,0.0518 -0.0551,0 -0.13283,-0.0778 -0.0454,-0.0486 -0.12959,-0.0778 -0.11987,-0.0389 -0.14255,-0.0518 -0.0486,-0.0324 -0.16522,-0.0713 -0.003,-0.0486 -0.003,-0.0778 0,-0.0648 0.013,-0.0907 -0.0162,-0.19114 -0.081,-0.30777 l -0.0324,0.0648 -0.0324,-0.006 q 0.0615,0.24946 0.0615,0.40173 0,0.0454 -0.0486,0.12635 -0.0454,0.081 -0.094,0.094 -0.013,0.0292 -0.0227,0.0583 -0.01,0.0194 -0.0551,0.0421 l -0.0486,-0.013 -0.0583,0.0324 z m 0.21382,-0.51836 q 0,-0.0389 -0.0551,-0.16847 -0.22354,-0.0324 -0.38552,-0.0324 -0.0162,0 -0.21059,0.0162 -0.0389,0.0616 -0.10691,0.19763 0.0389,0.14902 0.23002,0.20086 0.10367,0.0259 0.32722,0.0259 0.0875,0 0.14254,-0.0713 0.0583,-0.0713 0.0583,-0.16846 z m 0.64147,-0.0356 -0.11987,-0.46328 0.0745,-0.13607 q 0.0518,0.0518 0.11339,0.17819 0.0616,0.12959 0.11339,0.18467 0,0.0194 0,0.0486 0,0.0292 0,0.0421 0,0.10042 -0.0551,0.1717 z m 0.26566,-1.31533 q 0,0.0162 0.0194,0.0551 0.0194,0.0389 0.0194,0.0518 0,0.21382 -0.12312,0.33369 l -0.0648,0.01 q -0.11987,-0.0259 -0.11987,-0.11015 0,-0.0259 0.0194,-0.068 0.0194,-0.0389 0.0194,-0.0583 0,-0.01 -0.01,-0.0259 0.0291,-0.0875 0.16523,-0.2203 -0.13608,-0.12311 -0.3823,-0.21058 0.0518,0.12635 0.15227,0.19762 0,0.0227 0.003,0.0551 0.003,0.0324 0.003,0.0453 0,0.0842 -0.0551,0.14903 -0.0291,0.006 -0.0486,0.006 -0.0583,0 -0.0907,-0.0648 -0.0292,-0.0616 -0.0518,-0.11987 l -0.0648,0.094 -0.068,-0.0259 q -0.003,-0.01 -0.006,-0.01 -0.0194,0 -0.0194,0.0227 0,0.003 0.013,0.0907 l -0.0292,0.10691 -0.0777,0.013 q -0.0615,-0.0389 -0.0939,-0.18466 -0.0259,-0.11339 -0.16199,-0.11339 -0.0324,0 -0.0648,0.006 l -0.0292,0.0907 0.0875,0.0939 q -0.19438,-0.0324 -0.36285,-0.11987 -0.0875,-0.0518 -0.27862,-0.14903 -0.10367,-0.0454 -0.21382,-0.0972 -0.11015,-0.0486 -0.19438,-0.12635 0.10367,-0.10367 0.20086,-0.11339 l 0.11339,0.0324 q 0.0454,-0.0616 0.0907,-0.12311 0.0486,-0.0745 0.0421,-0.14903 0.14255,-0.006 0.12311,-0.006 0.10043,0 0.23326,0.24622 0.13607,0.24946 0.20411,0.24946 0.0162,0 0.0551,-0.006 -0.013,-0.0842 -0.15227,-0.33693 -0.0356,-0.068 -0.0648,-0.14579 0.0356,0 0.0583,-0.006 0.0259,-0.003 0.0421,-0.003 0.0713,0 0.15551,0.0713 l 0.0324,0.0745 q -0.01,0.0162 -0.01,0.0227 0,0.0551 0.14902,0.31101 0.0292,0.0518 0.0972,0.0518 0.10367,0 0.13606,-0.0616 0.0292,-0.0713 0.0616,-0.14255 -0.0292,-0.0421 -0.33045,-0.24946 -0.32398,-0.22678 -0.34342,-0.31749 l 0.17495,-0.0421 q 0.12959,0.013 0.24946,0.13283 -0.0713,0 -0.0842,0.0194 0.21706,0.19439 0.53455,0.37257 0.18467,0.10043 0.5864,0.28834 l 0.0648,-0.0745 0.10044,0.16523 q -0.0356,0.081 -0.0194,0.13283 l -0.0551,0.11339 -0.10692,-0.0648 q -0.0259,-0.0551 -0.0972,-0.0907 -0.068,-0.0356 -0.13282,-0.068 z m -1.38985,-0.19114 q -0.0162,-0.0713 -0.0292,-0.10043 -0.0259,-0.0616 -0.068,-0.0745 l -0.0356,0.0615 q 0.01,0.0421 0.0486,0.0778 0.0421,0.0356 0.0842,0.0356 z m -7.76889,1.4676 q 0.0227,0 0.13283,-0.0259 l 0.0162,-0.003 q -0.0292,-0.11987 -0.0616,-0.2365 -0.0583,-0.13931 -0.1717,-0.13931 h -0.006 l 0.14579,0.2527 z m -0.25594,-0.0259 q 0.10691,0.01 0.24298,0.0259 l -0.0583,-0.0583 q -0.003,-0.0713 -0.081,-0.18468 -0.0745,-0.11015 -0.0777,-0.16846 -0.0421,-0.0324 -0.0842,-0.0324 -0.013,0 -0.0227,0.003 l 0.13283,0.3013 q -0.006,0.0324 -0.013,0.0615 -0.006,0.0292 -0.0389,0.0518 z m 0.64147,0.27213 q 0,0.013 0.0292,0.0778 0,0.26241 -0.14903,0.35636 -0.006,-0.0583 -0.0356,-0.11986 -0.0292,-0.0583 -0.0292,-0.0875 0,-0.013 0.013,-0.11341 l -0.0356,-0.12634 q -0.17495,-0.0194 -0.37257,-0.0194 -0.0162,0 -0.0486,0.003 -0.0292,0.006 -0.0454,0.006 -0.01,0 -0.12959,-0.01 l -0.0324,0.013 -0.01,0.0518 0.0453,0.12959 -0.16846,0.34017 -0.0292,-0.013 q -0.0194,0 -0.0454,-0.006 l -0.0324,-0.0259 q 0.003,-0.0551 -0.0162,-0.10367 -0.0356,-0.0713 -0.0939,-0.19763 -0.0194,-0.068 -0.0389,-0.13607 -0.0259,-0.081 -0.0713,-0.11986 -0.0162,0.0227 -0.0842,0.16523 -0.0583,0.12311 -0.23002,0.17494 -0.0421,0.013 -0.0972,0.01 l -0.12635,-0.12311 v -0.10691 q 0.16199,-0.16846 0.1717,-0.39525 l 0.12635,0.21383 0.0551,0.0162 q 0.0842,-0.0259 0.16199,-0.15226 l -0.0778,-0.17495 q 0.0745,0.0421 0.10367,0.0778 0.013,0.013 0.0713,0.11015 0.0615,0.0972 0.11987,0.13607 -0.003,-0.12311 -0.0356,-0.23003 -0.0486,-0.14903 -0.14255,-0.3661 -0.11015,-0.25269 -0.18466,-0.34989 0.0162,-0.0518 0.0486,-0.081 0.0356,-0.0292 0.068,-0.0583 0.0777,0.006 0.10043,0.0648 0.013,0.0324 0.013,0.12311 l 0.31749,0.75811 q 0.14579,0.006 0.25594,0.013 -0.0583,-0.0713 -0.17818,-0.25594 -0.10367,-0.16199 -0.20735,-0.26566 l 0.17495,-0.0518 0.0745,0.0194 0.0194,-0.003 q 0.0162,-0.003 0.0259,-0.003 0.0486,0 0.14255,0.013 0.094,0.0162 0.14255,0.0162 0.01,0 0.0194,0 -0.0486,-0.13283 -0.16199,-0.27538 0.0907,-0.0616 0.12635,-0.0616 0.0227,0 0.0486,0.013 0.0292,0.0907 0.17171,0.22678 0.11015,0.10367 0.2203,0.20734 l 0.29482,0.31102 -0.17495,-0.40173 0.15875,-0.10043 0.0907,0.013 q 0.23326,0.2041 0.48272,0.26889 l 0.12959,-0.14255 0.0907,0.19115 -0.0972,0.21382 -0.0648,0.0356 q -0.15551,-0.0454 -0.38229,-0.16523 0.0454,0.12311 0.14255,0.38553 l -0.11339,0.26242 -0.27862,-0.3013 -0.0583,0.10368 z m 0.11339,-0.29482 q -0.0972,-0.20087 -0.23974,-0.33045 l -0.0486,0.003 q 0.0292,0.0616 0.068,0.19115 0.0389,0.13283 0.0713,0.19438 0.13931,0.006 0.14903,-0.0583 z m -0.40173,-0.52484 q 0.0227,0.0389 0.0583,0.0648 v -0.003 z m -0.46328,0.29158 q 0,-0.0194 -0.0259,-0.0713 -0.0259,-0.0518 -0.0292,-0.081 l -0.0875,-0.01 q 0.0162,0.0356 0.068,0.0907 0.0518,0.0583 0.0713,0.081 0.003,-0.003 0.003,-0.01 z m 1.06587,-0.87473 q -0.0162,-0.0421 -0.0551,-0.11987 -0.0875,-0.16523 -0.11663,-0.32722 l 0.2527,0.18143 q 0.0292,-0.006 0.0939,-0.0648 0.0551,-0.0486 0.10043,-0.0486 0.0194,0 0.0454,0.01 0.013,0.0227 0.013,0.0389 0,0.0194 -0.0292,0.0486 l 0.0292,0.10042 q -0.0292,0.0356 -0.0972,0.19115 -0.013,0.0324 -0.0842,0.12311 l -0.11015,0.0194 q -0.013,-0.0842 -0.0421,-0.15227 z m -0.39524,0.0875 q -0.0194,-0.013 -0.11987,-0.12635 -0.0778,-0.0875 -0.12959,-0.0875 -0.013,0 -0.0292,0.013 l 0.013,0.0551 q -0.006,0.013 -0.068,0.12959 -0.0356,0.0778 -0.0875,0.11987 -0.19762,0.0324 -0.2689,0.0324 -0.0227,0 -0.0972,-0.0227 -0.0713,-0.0194 -0.11663,-0.0194 -0.0616,0 -0.25918,-0.0939 -0.511878,-0.24298 -0.511878,-0.55399 0,-0.0227 0.006,-0.0616 l 0.21706,-0.0875 0.10368,0.0194 q 0.0389,0 0.10367,-0.013 -0.0551,-0.068 -0.16523,-0.20087 -0.0324,-0.0421 -0.0648,-0.10367 l 0.14902,-0.0356 q 0.123108,0.0486 0.281858,0.1555 0.12959,0.0875 0.26242,0.17819 0.22678,0.13931 0.51188,0.22354 l -0.0907,0.15227 q -0.14255,0 -0.26566,-0.0518 -0.11663,-0.0616 -0.23326,-0.12311 -0.0778,-0.0389 -0.14255,-0.0551 -0.081,0.0194 -0.16523,0.0421 -0.094,0.0292 -0.149028,0.0713 0.204108,0.27213 0.738658,0.33693 0.0454,-0.006 0.0875,-0.0162 0.0421,-0.006 0.0745,-0.0616 0.0356,-0.0648 0.0551,-0.0842 0.0292,-0.0324 0.094,-0.0324 0.003,0 0.0259,0.003 l 0.26241,0.1555 q 0,-0.006 0,-0.013 0,-0.0583 -0.0356,-0.13283 -0.068,-0.18142 -0.2203,-0.53455 -0.0259,-0.0713 -0.0875,-0.20087 -0.0324,-0.0616 -0.10367,-0.0972 0.0356,-0.0615 0.0875,-0.0615 0.006,0 0.0162,0.003 l 0.006,0.003 q 0.11015,-0.0162 0.15227,0.13607 l -0.0421,0.0291 q 0.12959,0.27214 0.26242,0.54104 0.15551,0.32397 0.23326,0.55399 l -0.0648,0.2527 h -0.0778 z m -1.480558,0.56372 q -0.0259,-0.013 -0.0389,-0.013 -0.01,0 -0.0421,0.0194 -0.0194,-0.0518 -0.0486,-0.0518 -0.0227,0 -0.0583,0.0227 -0.0194,-0.0194 -0.13931,-0.0907 -0.0259,-0.0162 -0.0551,-0.0421 0.0615,-0.16199 0.25918,-0.18467 l 0.0842,0.0389 h 0.0972 l -0.094,0.15227 0.0162,0.0518 0.18466,0.20735 z"
       id="text1"
       style="font-size:3.31749px;line-height:0;font-family:HakusyuGyosyoBold;-inkscape-font-specification:HakusyuGyosyoBold;text-align:center;writing-mode:vertical-lr;text-anchor:middle;stroke-width:0.235098;stroke-linecap:round;stroke-linejoin:round"
       aria-label="錦   旗"
       inkscape:label="path2" /><path
       id="path3"
       style="display:inline;fill:#000000;stroke-width:0.724133"
       inkscape:label="path1"
       d="m 110.62556,177.50012 c -0.24807,-0.001 -0.53826,0.004 -0.87935,0.0202 -1.36435,0.0607 -3.52966,0.26296 -6.93094,0.62851 -2.856734,0.30705 -5.194894,0.4652 -5.982424,0.40364 -1.36968,-0.10702 -1.578495,0.0336 -0.882223,0.59681 0.226665,0.18337 0.667983,0.5533 0.980253,0.82168 0.55438,0.47645 0.59799,0.48364 1.83941,0.25947 2.631844,-0.47524 3.664854,-0.58235 3.661514,-0.37481 -10e-4,0.11086 -0.16079,0.97752 -0.35461,1.92591 l -0.35173,1.7241 -1.03503,0.15568 c -0.56837,0.085 -1.442664,0.11421 -1.943214,0.0634 -0.84544,-0.0858 -0.90817,-0.0636 -0.90817,0.34021 0,0.23913 0.17051,0.59119 0.38057,0.7813 0.32838,0.29717 0.60781,0.33124 1.992214,0.23354 l 1.60876,-0.11533 0.23642,1.24262 c 0.12901,0.68379 0.19257,1.2865 0.14127,1.33775 -0.10909,0.10909 -0.38632,0.16894 -2.865784,0.63428 -1.82627,0.34278 -2.23329,0.33815 -4.705211,-0.0807 -0.982673,-0.1665 -0.796397,0.44904 0.452645,1.49921 0.591006,0.49691 1.246026,0.90241 1.45596,0.90241 0.209936,0 1.257166,-0.25096 2.326656,-0.55933 1.801874,-0.51957 3.393464,-0.87129 6.080434,-1.33775 1.48911,-0.25851 4.89324,-0.1078 6.78392,0.29985 0.21075,0.0455 0.67732,0.1254 1.03503,0.17587 0.35771,0.0503 1.00315,0.17087 1.43578,0.26812 1.23293,0.27719 2.12395,-0.46836 1.69236,-1.41559 -0.39927,-0.87632 -1.4111,-1.13827 -4.4486,-1.15324 -1.52797,-0.007 -3.23947,0.0544 -3.8028,0.13839 l -1.0235,0.15279 0.14417,-0.82456 c 0.0806,-0.4528 0.1558,-1.03682 0.16433,-1.30026 0.0151,-0.46303 0.0611,-0.48087 1.4502,-0.52185 1.99214,-0.0588 2.3007,-0.1549 2.3007,-0.72078 0,-0.67599 -0.61495,-0.92 -2.38144,-0.94276 l -1.53091,-0.0173 -0.2076,-1.49633 c -0.24468,-1.7702 -0.17311,-1.87798 1.16766,-1.79327 3.21272,0.20302 5.23526,-0.62893 4.15742,-1.70678 -0.15387,-0.15388 -0.50994,-0.23803 -1.25414,-0.24508 z" /></g></svg>
