<?xml version="1.0" encoding="UTF-8" standalone="no"?>
<!-- Created with Inkscape (http://www.inkscape.org/) -->

<svg
   viewBox="0 0 38.549999 41.919998"
   version="1.1"
   id="svg1"
   inkscape:version="1.3.2 (091e20e, 2023-11-25, custom)"
   sodipodi:docname="ou.svg"
   xml:space="preserve"
   xmlns:inkscape="http://www.inkscape.org/namespaces/inkscape"
   xmlns:sodipodi="http://sodipodi.sourceforge.net/DTD/sodipodi-0.dtd"
   xmlns="http://www.w3.org/2000/svg"
   xmlns:svg="http://www.w3.org/2000/svg"><sodipodi:namedview
     id="namedview1"
     pagecolor="#ffffff"
     bordercolor="#111111"
     borderopacity="1"
     inkscape:showpageshadow="false"
     inkscape:pageopacity="0"
     inkscape:pagecheckerboard="1"
     inkscape:deskcolor="#d1d1d1"
     inkscape:document-units="mm"
     showguides="true"
     inkscape:zoom="13.096375"
     inkscape:cx="19.280145"
     inkscape:cy="20.959999"
     inkscape:window-width="1292"
     inkscape:window-height="745"
     inkscape:window-x="-8"
     inkscape:window-y="-8"
     inkscape:window-maximized="1"
     inkscape:current-layer="layer1"
     labelstyle="default"><inkscape:page
       x="0"
       y="0"
       width="38.549999"
       height="41.919998"
       id="page42"
       margin="0"
       bleed="0" /></sodipodi:namedview><defs
     id="defs1"><inkscape:path-effect
       effect="powerstroke"
       id="path-effect12"
       is_visible="true"
       lpeversion="1.3"
       scale_width="1"
       interpolator_type="CubicBezierJohan"
       interpolator_beta="0.2"
       start_linecap_type="zerowidth"
       end_linecap_type="zerowidth"
       offset_points="7,4.9921382"
       linejoin_type="extrp_arc"
       miter_limit="4"
       not_jump="false"
       sort_points="true"
       message="&lt;b&gt;Ctrl + click&lt;/b&gt; on existing node and move it" /><inkscape:path-effect
       effect="powerstroke"
       id="path-effect13"
       is_visible="true"
       lpeversion="1.3"
       scale_width="1"
       interpolator_type="CubicBezierJohan"
       interpolator_beta="0.2"
       start_linecap_type="zerowidth"
       end_linecap_type="zerowidth"
       offset_points="5,4.9921382"
       linejoin_type="extrp_arc"
       miter_limit="4"
       not_jump="false"
       sort_points="true"
       message="&lt;b&gt;Ctrl + click&lt;/b&gt; on existing node and move it" /><inkscape:path-effect
       effect="powerstroke"
       id="path-effect13-1"
       is_visible="true"
       lpeversion="1.3"
       scale_width="1"
       interpolator_type="CubicBezierJohan"
       interpolator_beta="0.2"
       start_linecap_type="zerowidth"
       end_linecap_type="zerowidth"
       offset_points="5,4.9921382"
       linejoin_type="extrp_arc"
       miter_limit="4"
       not_jump="false"
       sort_points="true"
       message="&lt;b&gt;Ctrl + click&lt;/b&gt; on existing node and move it" /><inkscape:path-effect
       effect="powerstroke"
       id="path-effect13-0"
       is_visible="true"
       lpeversion="1.3"
       scale_width="1"
       interpolator_type="CubicBezierJohan"
       interpolator_beta="0.2"
       start_linecap_type="zerowidth"
       end_linecap_type="zerowidth"
       offset_points="5,4.9921382"
       linejoin_type="extrp_arc"
       miter_limit="4"
       not_jump="false"
       sort_points="true"
       message="&lt;b&gt;Ctrl + click&lt;/b&gt; on existing node and move it" /><inkscape:path-effect
       effect="powerstroke"
       id="path-effect13-08"
       is_visible="true"
       lpeversion="1.3"
       scale_width="1"
       interpolator_type="CubicBezierJohan"
       interpolator_beta="0.2"
       start_linecap_type="zerowidth"
       end_linecap_type="zerowidth"
       offset_points="5,4.9921382"
       linejoin_type="extrp_arc"
       miter_limit="4"
       not_jump="false"
       sort_points="true"
       message="&lt;b&gt;Ctrl + click&lt;/b&gt; on existing node and move it" /></defs><g
     inkscape:label="Layer 1"
     inkscape:groupmode="layer"
     id="layer1"
     transform="rotate(180,62.137499,101.68)"><path
       style="fill:#938e5e;fill-opacity:1;fill-rule:evenodd;stroke:none;stroke-width:1;stroke-linecap:round;stroke-linejoin:round;stroke-dasharray:none;stroke-opacity:1;paint-order:stroke fill markers"
       d="m 119.35,200 v -6.4 L 114.78527,167.97943 105,164.8 95.21473,167.97943 90.649996,193.6 l 2e-6,6.4 z"
       id="path12"
       sodipodi:nodetypes="cccccccc" /><path
       style="display:inline;fill:#fff29e;fill-opacity:1;fill-rule:evenodd;stroke:none;stroke-width:0.385762;stroke-linecap:round;stroke-linejoin:round;paint-order:stroke fill markers"
       d="m 105,168 9.78527,3.17942 L 119.35,200 h -28.7 l 4.56473,-28.82058 z"
       id="path13" /><path
       id="path3"
       style="display:inline;fill:#000000;stroke-width:0.724133"
       inkscape:label="path1"
       d="m 110.62556,177.50012 c -0.24807,-0.001 -0.53826,0.004 -0.87935,0.0202 -1.36435,0.0607 -3.52966,0.26296 -6.93094,0.62851 -2.856734,0.30705 -5.194894,0.4652 -5.982424,0.40364 -1.36968,-0.10702 -1.578495,0.0336 -0.882223,0.59681 0.226665,0.18337 0.667983,0.5533 0.980253,0.82168 0.55438,0.47645 0.59799,0.48364 1.83941,0.25947 2.631844,-0.47524 3.664854,-0.58235 3.661514,-0.37481 -10e-4,0.11086 -0.16079,0.97752 -0.35461,1.92591 l -0.35173,1.7241 -1.03503,0.15568 c -0.56837,0.085 -1.442664,0.11421 -1.943214,0.0634 -0.84544,-0.0858 -0.90817,-0.0636 -0.90817,0.34021 0,0.23913 0.17051,0.59119 0.38057,0.7813 0.32838,0.29717 0.60781,0.33124 1.992214,0.23354 l 1.60876,-0.11533 0.23642,1.24262 c 0.12901,0.68379 0.19257,1.2865 0.14127,1.33775 -0.10909,0.10909 -0.38632,0.16894 -2.865784,0.63428 -1.82627,0.34278 -2.23329,0.33815 -4.705211,-0.0807 -0.982673,-0.1665 -0.796397,0.44904 0.452645,1.49921 0.591006,0.49691 1.246026,0.90241 1.45596,0.90241 0.209936,0 1.257166,-0.25096 2.326656,-0.55933 1.801874,-0.51957 3.393464,-0.87129 6.080434,-1.33775 1.48911,-0.25851 4.89324,-0.1078 6.78392,0.29985 0.21075,0.0455 0.67732,0.1254 1.03503,0.17587 0.35771,0.0503 1.00315,0.17087 1.43578,0.26812 1.23293,0.27719 2.12395,-0.46836 1.69236,-1.41559 -0.39927,-0.87632 -1.4111,-1.13827 -4.4486,-1.15324 -1.52797,-0.007 -3.23947,0.0544 -3.8028,0.13839 l -1.0235,0.15279 0.14417,-0.82456 c 0.0806,-0.4528 0.1558,-1.03682 0.16433,-1.30026 0.0151,-0.46303 0.0611,-0.48087 1.4502,-0.52185 1.99214,-0.0588 2.3007,-0.1549 2.3007,-0.72078 0,-0.67599 -0.61495,-0.92 -2.38144,-0.94276 l -1.53091,-0.0173 -0.2076,-1.49633 c -0.24468,-1.7702 -0.17311,-1.87798 1.16766,-1.79327 3.21272,0.20302 5.23526,-0.62893 4.15742,-1.70678 -0.15387,-0.15388 -0.50994,-0.23803 -1.25414,-0.24508 z"
       transform="translate(6.3253582e-7)" /></g></svg>
