<?xml version="1.0" encoding="UTF-8" standalone="no"?>
<!-- Created with Inkscape (http://www.inkscape.org/) -->

<svg
   viewBox="0 0 35.349998 38.720001"
   id="svg2"
   version="1.1"
   inkscape:version="1.3.2 (091e20e, 2023-11-25, custom)"
   sodipodi:docname="Ou.svg"
   xmlns:inkscape="http://www.inkscape.org/namespaces/inkscape"
   xmlns:sodipodi="http://sodipodi.sourceforge.net/DTD/sodipodi-0.dtd"
   xmlns="http://www.w3.org/2000/svg"
   xmlns:svg="http://www.w3.org/2000/svg"
   xmlns:rdf="http://www.w3.org/1999/02/22-rdf-syntax-ns#"
   xmlns:cc="http://creativecommons.org/ns#"
   xmlns:dc="http://purl.org/dc/elements/1.1/">
  <defs
     id="defs4" />
  <sodipodi:namedview
     id="base"
     pagecolor="#ffffff"
     bordercolor="#666666"
     borderopacity="1.0"
     inkscape:pageopacity="0.0"
     inkscape:pageshadow="2"
     inkscape:zoom="14.178719"
     inkscape:cx="17.702587"
     inkscape:cy="19.360001"
     inkscape:document-units="px"
     inkscape:current-layer="layer1"
     showgrid="false"
     fit-margin-top="0"
     fit-margin-left="0"
     fit-margin-right="0"
     fit-margin-bottom="0"
     inkscape:window-width="1292"
     inkscape:window-height="745"
     inkscape:window-x="-8"
     inkscape:window-y="-8"
     inkscape:window-maximized="1"
     inkscape:showpageshadow="0"
     inkscape:pagecheckerboard="1"
     inkscape:deskcolor="#d1d1d1" />
  <metadata
     id="metadata7">
    <rdf:RDF>
      <cc:Work
         rdf:about="">
        <dc:format>image/svg+xml</dc:format>
        <dc:type
           rdf:resource="http://purl.org/dc/dcmitype/StillImage" />
      </cc:Work>
    </rdf:RDF>
  </metadata>
  <g
     inkscape:label="Layer 1"
     inkscape:groupmode="layer"
     id="layer1"
     transform="matrix(0.66418335,0,0,0.66418335,-414.28053,-493.91476)"
     style="display:inline">
    <path
       sodipodi:nodetypes="cccccccccc"
       inkscape:connector-curvature="0"
       id="path3022"
       d="m 679.6057,679.99766 c -10.39196,2.40995 -20.90855,5.02646 -30.89286,8.68304 -3.58886,15.23626 -5.05989,30.99595 -7.67838,46.45458 -3.0916,20.04977 -5.86811,40.15996 -9.28591,60.15256 11.66136,0.83366 24.05976,0.11881 36.00447,0.35714 20.02976,0 40.05952,0 60.08928,0 -1.40818,-13.61368 -4.1343,-27.72903 -6.02163,-41.53472 -3.51635,-21.55897 -5.98246,-43.34298 -10.31765,-64.7376 -2.12982,-2.62994 -6.73433,-2.30255 -9.71526,-3.76323 -7.34688,-1.94978 -14.67481,-4.51323 -22.18206,-5.61177 z"
       style="display:inline;fill:#ffffff;fill-opacity:1;stroke:none"
       transform="matrix(0.41556411,0,0,0.41556411,367.77226,466.25756)" />
    <path
       id="path3010"
       style="fill:#d0d0d0"
       d="M 680.00283 677.79242 C 678.09964 677.79242 647.12396 685.57967 646.22782 686.28393 C 646.07854 686.40124 642.37186 710.52686 637.99105 739.89371 C 633.61024 769.26056 629.86136 794.30395 629.65521 795.54145 L 629.28017 797.7917 L 680.00283 797.7917 L 730.72549 797.7917 L 730.35045 795.54145 C 730.14431 794.30395 726.38834 769.26056 722.00753 739.89371 C 717.6269 710.52686 713.92004 686.40124 713.77076 686.28393 C 712.87462 685.57967 681.90602 677.79242 680.00283 677.79242 z M 680.00283 680.48847 L 695.16726 684.60686 C 703.51015 686.87325 710.64622 689.08128 711.01809 689.51071 C 711.38997 689.94014 714.96152 712.5631 718.95766 739.78756 C 722.95397 767.0122 726.452 790.5262 726.73448 792.0387 L 727.25104 794.79136 L 680.00283 794.79136 L 632.74754 794.79136 L 633.26411 792.0387 C 633.54659 790.5262 637.0446 767.0122 641.04092 739.78756 C 645.03723 712.5631 648.61568 689.94014 648.98756 689.51071 C 649.35943 689.08128 656.48843 686.87325 664.83132 684.60686 L 680.00283 680.48847 z M 697.42459 711.82217 C 695.27913 711.85883 692.75228 712.27559 689.96621 713.10297 C 681.25671 715.68945 660.60836 716.21714 656.38934 713.9592 C 652.06382 711.64422 651.68252 714.6798 655.78078 718.77814 C 659.45997 722.45733 669.48832 725.30097 672.41707 723.49093 C 673.35383 722.91199 673.92432 724.52796 673.92432 727.74376 L 673.92432 732.94482 L 664.42797 732.94482 C 653.79285 732.94482 652.59014 734.44668 659.68688 738.8535 C 663.03791 740.93444 665.83218 741.55837 669.18322 740.96222 L 673.92432 740.12015 L 673.92432 746.75061 L 673.92432 753.38814 L 665.52479 753.38814 C 660.90621 753.38376 654.58661 752.66617 651.47841 751.80306 C 648.08879 750.86189 645.29722 750.77354 644.50121 751.56954 C 642.83606 753.2347 648.34586 760.47222 652.58231 762.18394 C 657.15737 764.03253 659.73953 763.85694 666.8056 761.24987 C 671.71401 759.43888 678.18997 758.93924 694.73561 759.07038 C 715.28566 759.23326 716.27576 759.11083 716.27576 756.3531 C 716.27576 750.70922 710.44466 748.7338 696.95756 749.82878 L 684.69439 750.82654 L 685.3171 745.51934 C 685.79251 741.4471 686.72024 740.01961 689.33642 739.36299 C 691.21016 738.8927 693.42922 738.93397 694.2615 739.4479 C 696.05176 740.55435 701.67035 737.82031 701.67035 735.84609 C 701.67035 733.27113 693.7368 730.1762 691.02765 731.69232 C 687.62639 733.59576 686.06506 732.36313 685.30295 727.17059 C 684.68833 722.98309 684.91684 722.78502 691.34608 721.9483 C 700.23902 720.79099 704.59992 718.89135 704.59992 716.15284 C 704.59992 713.47158 702.19567 711.96543 698.32328 711.82925 C 698.03284 711.81902 697.73109 711.81779 697.42459 711.82217 z M 642.50571 758.8864 C 642.23349 758.9338 642.14351 759.13329 642.17312 759.50204 C 642.3012 759.31615 642.42976 759.12834 642.56939 758.95009 C 642.58329 758.93109 642.59785 758.91238 642.61185 758.89348 C 642.58295 758.89548 642.53145 758.8817 642.50571 758.8864 z M 718.27126 760.83945 C 718.27124 760.84845 718.27127 760.85835 718.27126 760.86775 C 718.28026 760.88215 718.29047 760.89581 718.29957 760.91021 C 718.29057 760.88661 718.28106 760.86305 718.27126 760.83945 z "
       transform="matrix(0.41556411,0,0,0.41556411,367.77226,466.25756)" />
    <path
       id="path3008"
       style="fill:#b0b0b0"
       d="M 680.00283 677.79242 C 677.52107 677.79242 647.71905 685.77398 646.73731 686.70143 C 645.9991 687.39882 630.00195 791.65391 630.00195 795.76789 C 630.00195 797.77216 630.47706 797.7917 680.00283 797.7917 C 729.5286 797.7917 729.99663 797.7722 729.99663 795.76789 C 729.99663 791.65391 714.00656 687.39882 713.26835 686.70143 C 712.28661 685.77398 682.48459 677.79242 680.00283 677.79242 z M 680.11605 680.84229 C 681.77976 680.77079 682.81433 681.11668 684.751 681.62775 C 687.3635 682.31717 694.46178 684.24316 700.52399 685.90181 L 711.54174 688.9163 L 718.89398 738.60583 C 722.93665 765.93362 726.47666 789.75586 726.7557 791.54336 L 727.2652 794.79136 L 680.00283 794.79136 L 632.74046 794.79136 L 633.24288 791.54336 C 633.5221 789.75586 637.06176 765.93362 641.10461 738.60583 L 648.45684 688.9163 L 659.47459 685.90181 C 672.81989 682.25028 677.34321 680.96146 680.11605 680.84229 z M 697.93408 712.15475 C 695.64201 712.13212 693 712.48047 690.41201 713.26573 C 682.21713 715.75231 660.42873 716.11815 656.16997 713.8389 C 653.69712 712.51512 653.29975 712.66917 653.71451 714.78005 C 654.55352 719.05054 661.51469 723.11589 667.97318 723.11589 C 673.76141 723.11589 673.92432 723.26062 673.92432 728.03389 L 673.92432 732.94482 L 664.06708 732.98727 L 654.20985 733.03681 L 658.307 736.6457 C 662.38096 740.2299 664.35864 740.81302 670.64093 740.30413 C 673.60821 740.06378 673.92432 740.67923 673.92432 746.70815 L 673.92432 753.38814 L 667.71136 753.62166 C 660.99897 753.87047 660.6131 753.84534 650.0207 752.43285 C 643.03488 751.50126 642.94055 751.54415 644.63566 754.71141 C 645.58425 756.48389 648.45227 759.2012 651.01138 760.76161 C 656.70928 764.23588 658.8568 764.2934 666.08382 761.15788 C 670.65512 759.1745 676.00278 758.75261 694.00676 758.93593 C 715.18992 759.15162 716.27576 759.01873 716.27576 756.31064 C 716.27576 751.1641 709.22014 748.97658 695.96688 749.99861 L 684.13537 750.90438 L 685.09774 745.94391 C 686.27401 739.90486 687.69529 738.83273 694.64362 738.80396 C 701.18905 738.7768 702.54585 737.11362 698.77616 733.70198 C 696.68843 731.81266 694.63821 731.38115 690.94273 732.07444 C 686.09114 732.98461 685.92303 732.86115 685.34541 727.91359 C 684.67499 722.17103 685.85546 721.25483 694.01383 721.25483 C 698.93621 721.25483 704.59992 718.00114 704.59992 715.16217 C 704.59992 713.2792 701.75416 712.19258 697.93408 712.15475 z M 649.94286 740.79239 L 649.96409 740.8207 C 649.96348 740.8117 649.96468 740.80179 649.96409 740.79239 L 649.94286 740.79239 z M 718.27126 760.83945 C 718.27124 760.84845 718.27127 760.85835 718.27126 760.86775 C 718.28026 760.88215 718.29047 760.89581 718.29957 760.91021 C 718.29057 760.88661 718.28106 760.86305 718.27126 760.83945 z "
       transform="matrix(0.41556411,0,0,0.41556411,367.77226,466.25756)" />
    <path
       id="path3006"
       style="fill:#909090"
       d="M 680.00283 677.47398 L 663.74865 681.75512 C 654.81133 684.11099 647.17933 686.32854 646.78685 686.6802 C 646.15179 687.24921 630.00195 792.76845 630.00195 796.34814 C 630.00195 797.58914 637.06842 797.7917 680.00283 797.7917 C 722.93724 797.7917 729.99663 797.58914 729.99663 796.34814 C 729.99663 792.76845 713.8468 687.24921 713.21174 686.6802 C 712.81926 686.32854 705.18725 684.11099 696.24993 681.75512 L 680.00283 677.47398 z M 680.00283 680.82106 C 682.19901 680.82106 710.913 688.28338 711.50636 689.00829 C 711.86697 689.44897 727.01037 792.08807 727.00337 794.04128 C 726.99737 795.68303 724.09487 795.78912 680.00283 795.78912 C 635.91079 795.78912 633.00121 795.68303 632.99521 794.04128 C 632.98821 792.08807 648.13869 689.44897 648.4993 689.00829 C 649.09266 688.28338 677.80665 680.82106 680.00283 680.82106 z M 699.64654 712.69255 C 698.67826 712.71621 697.47684 712.8288 695.98103 713.01806 C 672.35809 716.00469 665.87648 716.40472 660.47234 715.19047 C 652.87421 713.4834 651.7004 714.76299 656.84222 719.18856 C 659.8455 721.77365 662.67806 722.72669 667.43538 722.72669 C 673.83356 722.72669 673.92432 722.79287 673.92432 727.65177 C 673.92432 731.92046 673.36192 732.6865 669.69979 733.41893 C 667.37407 733.88406 662.93859 733.91546 659.84255 733.48969 L 654.20985 732.72545 L 658.307 736.49003 C 661.26272 739.20349 664.01611 740.2546 668.17132 740.2546 L 673.92432 740.2546 L 673.92432 746.61616 L 673.92432 752.9848 L 666.55793 753.8481 C 662.50587 754.32801 657.53623 754.10118 655.51188 753.33153 C 653.48753 752.56201 649.87299 751.93043 647.4874 751.93043 C 643.56469 751.93043 643.31154 752.21155 644.76304 754.92369 C 645.64579 756.57308 648.45227 759.2012 651.01138 760.76161 C 656.67952 764.21773 657.32323 764.23722 665.34789 761.16496 C 670.36835 759.24291 676.34846 758.75964 693.2496 758.8864 C 705.08192 758.97519 715.09911 758.48955 715.5186 757.81081 C 716.8353 755.68033 714.79422 752.38485 711.11009 750.70624 C 708.87109 749.68609 703.22058 749.43104 695.76875 750.00569 L 683.97969 750.91853 L 684.92083 746.67985 C 686.6295 738.94064 686.79226 738.78274 693.51142 738.78274 C 701.14121 738.78274 702.71589 737.26751 698.77616 733.70198 C 696.68843 731.81266 694.63821 731.38115 690.94273 732.07444 C 686.0785 732.987 685.92019 732.86623 685.33126 727.8216 C 684.99787 724.96632 685.03242 722.32537 685.40909 721.9483 C 685.78616 721.57124 688.80136 721.25483 692.10324 721.25483 C 699.15414 721.25483 704.88978 717.88239 703.58802 714.48992 C 703.14836 713.34421 702.36252 712.78605 700.53815 712.69963 C 700.26449 712.68648 699.96929 712.6851 699.64654 712.69255 z M 649.65273 740.79239 L 649.99239 741.16744 C 649.98239 741.04245 649.97199 740.91752 649.96409 740.79239 L 649.65273 740.79239 z M 718.27126 760.83945 C 718.27124 760.84845 718.27127 760.85835 718.27126 760.86775 C 718.28026 760.88215 718.29047 760.89581 718.29957 760.91021 C 718.29057 760.88661 718.28106 760.86305 718.27126 760.83945 z "
       transform="matrix(0.41556411,0,0,0.41556411,367.77226,466.25756)" />
    <path
       id="path3004"
       style="fill:#6f6f6f"
       d="M 680.00283 677.59428 L 663.74865 681.86127 C 654.81133 684.2053 647.20141 686.38645 646.83638 686.70851 C 646.27614 687.20282 630.00195 793.5429 630.00195 796.70903 C 630.00195 797.47091 644.8039 797.7917 680.00283 797.7917 C 715.20158 797.7917 729.99663 797.47091 729.99663 796.70903 C 729.99663 793.5429 713.72244 687.20282 713.1622 686.70851 C 712.79717 686.38645 705.18725 684.2053 696.24993 681.86127 L 680.00283 677.59428 z M 680.00283 679.9436 L 695.59891 684.30258 C 704.1798 686.699 711.34104 688.79964 711.50636 688.97291 C 711.96505 689.45371 727.00937 790.96779 727.00337 793.53887 L 726.9963 795.78912 L 680.00283 795.78912 L 633.00228 795.78912 L 632.99521 793.53887 C 632.98921 790.96779 648.04061 689.45371 648.4993 688.97291 C 648.66462 688.79964 655.81896 686.699 664.39967 684.30258 L 680.00283 679.9436 z M 698.33743 712.78454 C 697.61096 712.78892 696.80565 712.84967 695.91735 712.9756 C 672.02256 716.36281 666.14559 716.78681 660.45819 715.5089 C 652.64124 713.7526 651.66916 714.73609 656.84222 719.18856 C 659.8455 721.77365 662.67806 722.72669 667.43538 722.72669 C 673.85503 722.72669 673.92432 722.77825 673.92432 727.73669 C 673.92432 733.78119 671.04174 735.12912 661.01014 733.77274 L 654.20985 732.85283 L 658.307 736.55371 C 661.19009 739.15371 664.07052 740.2546 668.01564 740.2546 C 673.53639 740.2546 673.625 740.34179 674.26398 746.45341 C 674.62086 749.86714 674.81532 752.81718 674.68856 753.00603 C 674.06668 753.93287 656.3663 753.70105 650.91938 752.69467 C 642.14896 751.07426 643.3026 756.51465 652.75214 761.35602 C 658.20968 764.15209 658.24572 764.14885 664.8384 761.12958 C 669.18266 759.14003 674.79853 758.6304 692.90993 758.57505 C 711.24429 758.51911 715.55398 758.11299 715.55398 756.46632 C 715.55398 755.34816 713.8482 753.165 711.76818 751.612 C 708.30812 749.02869 707.01082 748.92833 696.56836 750.38073 C 690.29089 751.25387 684.85632 751.66778 684.48918 751.30065 C 684.12206 750.93353 684.40711 748.13641 685.12604 745.08061 C 686.38938 739.70987 686.66099 739.50313 693.32036 739.07286 C 697.83579 738.7811 700.21264 737.96144 700.21264 736.69524 C 700.21264 733.11779 696.27402 731.27238 690.82951 732.2938 C 686.36349 733.13163 685.61016 732.87059 685.59308 730.54596 C 685.58139 729.05092 685.16457 726.35256 684.68024 724.54529 C 683.8549 721.46548 684.25751 721.25483 690.95689 721.25483 C 699.66924 721.25483 705.72354 717.80793 702.92285 714.43331 C 701.99206 713.31185 700.51671 712.77086 698.33743 712.78454 z M 649.65273 740.79239 L 649.99239 741.16744 C 649.98239 741.04245 649.97199 740.91752 649.96409 740.79239 L 649.65273 740.79239 z M 718.27126 760.83945 C 718.27124 760.84845 718.27127 760.85835 718.27126 760.86775 C 718.28026 760.88215 718.29047 760.89581 718.29957 760.91021 C 718.29057 760.88661 718.28106 760.86305 718.27126 760.83945 z "
       transform="matrix(0.41556411,0,0,0.41556411,367.77226,466.25756)" />
    <path
       id="path3002"
       style="fill:#4f4f4f"
       d="M 680.00283 677.69335 L 663.43022 682.1514 C 654.31536 684.60147 646.72696 686.75998 646.56748 686.9491 C 646.408 687.13822 642.79726 710.64104 638.55008 739.17901 C 634.30273 767.71679 630.58508 792.58147 630.285 794.43047 L 629.74013 797.7917 L 680.00283 797.7917 L 730.25846 797.7917 L 729.71358 794.43047 C 729.4135 792.58147 725.69568 767.71679 721.44851 739.17901 C 717.20115 710.64104 713.59766 687.13822 713.43818 686.9491 C 713.2787 686.75998 705.6903 684.60147 696.57544 682.1514 L 680.00283 677.69335 z M 680.00283 679.95068 L 695.42908 684.13275 C 703.91443 686.4326 711.09895 688.55843 711.40021 688.85969 C 711.70147 689.16096 715.34357 712.32958 719.48838 740.34659 C 723.63338 768.3636 727.25522 792.30137 727.53409 793.53887 L 728.03651 795.78912 L 680.00283 795.78912 L 631.96207 795.78912 L 632.47156 793.53887 C 632.75043 792.30137 636.3652 768.3636 640.5102 740.34659 C 644.65519 712.32958 648.29711 689.16096 648.59837 688.85969 C 648.89963 688.55843 656.08432 686.4326 664.5695 684.13275 L 680.00283 679.95068 z M 697.43874 713.44263 C 693.77502 713.39167 687.88922 714.07186 678.7008 715.45229 C 669.85583 716.78114 665.04824 716.83488 660.49357 715.67873 C 657.08952 714.81469 654.10285 714.31387 653.85603 714.56068 C 653.60922 714.80749 654.60827 716.50148 656.08506 718.32526 C 658.05081 720.75281 660.80757 721.83298 666.35272 722.3658 L 673.92432 723.09466 L 673.92432 728.94673 L 673.92432 734.80587 L 664.08831 734.02041 L 654.23815 733.22079 L 658.32116 736.73769 C 661.13949 739.16198 664.19388 740.2546 668.17132 740.2546 C 673.56211 740.2546 673.92432 740.51897 673.92432 744.50743 C 673.92432 746.85131 674.28782 749.72101 674.73101 750.87607 C 675.89858 753.91868 661.39777 755.39286 652.84413 753.10509 C 649.22918 752.13818 645.87592 751.74456 645.39282 752.22764 C 643.86005 753.76036 648.16042 759.12103 652.73091 761.37725 C 658.15295 764.05374 656.36114 764.15686 667.03204 760.52809 C 675.19541 757.75219 678.06117 757.53963 695.33709 758.41229 C 716.05069 759.45859 719.15368 758.53759 713.65046 753.03433 C 710.33062 749.7146 706.7016 749.38354 693.07269 751.14497 L 683.74617 752.35501 L 684.80761 746.67985 C 686.2671 738.90024 686.38943 738.78274 693.72371 738.78274 C 698.44592 738.78274 700.21264 738.20329 700.21264 736.6457 C 700.21264 733.52294 695.24917 731.37729 690.31295 732.36456 C 686.39912 733.1472 685.94191 732.81358 685.08359 728.52215 C 683.65506 721.37964 683.73891 721.25483 689.89545 721.25483 C 697.95167 721.25483 703.4588 718.9252 702.83793 715.7778 C 702.5396 714.2654 701.10247 713.49359 697.43874 713.44263 z M 718.27126 760.83945 C 718.27124 760.84845 718.27127 760.85835 718.27126 760.86775 C 718.28026 760.88215 718.29047 760.89581 718.29957 760.91021 C 718.29057 760.88661 718.28106 760.86305 718.27126 760.83945 z "
       transform="matrix(0.41556411,0,0,0.41556411,367.77226,466.25756)" />
    <path
       id="path3000"
       style="fill:#2f2f2f"
       d="M 680.00283 677.84195 L 663.36653 682.27877 C 654.21956 684.7198 646.65189 686.8487 646.54625 687.00571 C 646.44061 687.16272 642.85407 710.9131 638.57838 739.78756 C 634.30269 768.6622 630.56819 793.52653 630.27792 795.03903 L 629.7472 797.7917 L 680.00283 797.7917 L 730.25138 797.7917 L 729.72066 795.03903 C 729.43039 793.52653 725.69589 768.6622 721.4202 739.78756 C 717.14469 710.9131 713.55797 687.16272 713.45233 687.00571 C 713.34669 686.8487 705.77902 684.7198 696.63205 682.27877 L 680.00283 677.84195 z M 680.00283 679.80208 L 695.25218 683.94169 C 703.6395 686.21737 710.85943 688.3984 711.30114 688.78893 C 711.74303 689.17945 715.45892 712.17614 719.55914 739.89371 C 723.65954 767.61128 727.27679 791.53103 727.5907 793.04353 L 728.15681 795.78912 L 680.00283 795.78912 L 631.84178 795.78912 L 632.41495 793.04353 C 632.72886 791.53103 636.33904 767.61128 640.43944 739.89371 C 644.53966 712.17614 648.25555 689.17945 648.69744 688.78893 C 649.13933 688.3984 656.36616 686.21737 664.75348 683.94169 L 680.00283 679.80208 z M 699.29272 712.76331 C 696.73572 712.86277 691.85432 713.72046 682.04079 715.43106 C 672.13676 717.15738 661.17593 716.84865 656.01429 714.70221 C 654.02162 713.8736 653.65701 714.17483 654.3726 716.03962 C 655.67451 719.43228 662.65669 722.72669 668.56051 722.72669 C 673.01471 722.72669 673.66127 723.23006 674.49042 727.3758 C 675.00234 729.93605 674.80518 732.64421 674.05169 733.3977 C 673.29819 734.15111 668.68425 734.48657 663.80526 734.13363 C 658.92608 733.7807 654.9387 733.70701 654.9387 733.97088 C 654.9387 735.76338 665.35463 740.23168 669.54411 740.24045 C 674.60423 740.25067 674.65453 740.3215 674.68856 746.67985 L 674.72394 753.09802 L 667.54153 754.06039 C 663.31227 754.62144 657.44235 754.26132 653.28993 753.19708 C 649.4078 752.20213 645.78201 751.83843 645.23714 752.38331 C 643.78125 753.83921 649.16976 759.35225 654.1037 761.45508 C 657.73755 763.00386 659.60175 762.85036 666.51547 760.41487 C 673.43913 757.97564 677.70567 757.61542 695.10358 758.0231 C 712.51671 758.43112 715.55398 758.17633 715.55398 756.31064 C 715.55398 752.40559 706.86834 749.2387 699.8659 750.59302 C 696.44301 751.25512 691.26058 751.8317 688.3599 751.86675 L 683.09516 751.93043 L 684.6024 745.35658 C 686.09635 738.82782 686.14527 738.78274 692.34383 738.78274 C 695.77565 738.78274 699.04649 738.02366 699.61823 737.09858 C 701.32795 734.33237 695.74795 731.36356 690.63845 732.32211 C 686.26118 733.1433 685.95364 732.89461 684.55994 727.4041 L 683.09516 721.62987 L 691.82727 720.84441 C 701.32505 719.98317 704.03438 718.41304 702.58319 714.63145 C 702.08085 713.32235 701.84976 712.6638 699.29272 712.76331 z M 718.27126 760.83945 C 718.27124 760.84845 718.27127 760.85835 718.27126 760.86775 C 718.28026 760.88215 718.29047 760.89581 718.29957 760.91021 C 718.29057 760.88661 718.28106 760.86305 718.27126 760.83945 z "
       transform="matrix(0.41556411,0,0,0.41556411,367.77226,466.25756)" />
    <path
       id="path2998"
       style="fill:#020202"
       d="M 680.00283 677.95517 L 663.87602 682.29292 C 655.0093 684.68031 647.43369 687.01006 647.04159 687.46567 C 646.64948 687.92128 642.85257 711.91793 638.59961 740.79239 C 634.34648 769.66703 630.63777 794.07653 630.36284 795.03903 C 629.89152 796.68903 632.73256 796.79395 680.00283 796.79395 C 727.2731 796.79395 730.10706 796.68907 729.63574 795.03903 C 729.36081 794.07653 725.6521 769.66703 721.39897 740.79239 C 717.14601 711.91793 713.3491 687.92128 712.95699 687.46567 C 712.56489 687.01006 704.98927 684.68031 696.12256 682.29292 L 680.00283 677.95517 z M 680.00283 679.68178 L 695.74752 683.90631 C 704.40984 686.22911 711.63553 688.22981 711.80356 688.3502 C 712.02901 688.51173 727.97425 794.07947 727.99405 795.54145 C 727.99605 795.67895 706.40229 795.78912 680.00283 795.78912 C 653.60337 795.78912 632.00253 795.67895 632.00453 795.54145 C 632.02433 794.07947 647.96957 688.51173 648.19502 688.3502 C 648.36305 688.22981 655.58857 686.22911 664.25107 683.90631 L 680.00283 679.68178 z M 699.05921 712.90484 C 698.65474 712.88834 698.2134 712.89854 697.74302 712.91899 C 695.48518 713.01815 692.45708 713.53298 688.55096 714.47577 C 677.22554 717.20934 662.91112 717.6083 656.86345 715.34615 L 652.75214 713.80352 L 656.79268 717.88653 C 660.08869 721.21868 662.10585 721.96785 667.79627 721.97661 L 674.77347 721.99076 L 675.04237 728.12588 L 675.31834 734.27516 L 665.48941 734.69973 L 655.67463 735.13846 L 660.52187 737.77791 C 663.18914 739.23359 666.80303 740.31565 668.55343 740.17676 C 674.92088 739.67132 675.38203 740.11118 675.38203 746.70815 L 675.38203 753.17586 L 667.30094 754.19484 C 662.191 754.83329 656.8064 754.52779 652.66015 753.36692 C 649.0518 752.35668 645.70647 751.92115 645.23007 752.39747 C 644.75365 752.87387 646.36492 755.25903 648.81066 757.70466 C 653.93269 762.82674 657.69142 763.22383 668.31284 759.74971 C 674.23647 757.81228 679.28202 757.5058 694.25442 758.1717 C 715.19925 759.10321 718.30086 758.33564 713.40279 753.43768 C 710.36679 750.40162 709.38821 750.27528 696.27824 751.25819 C 683.11054 752.24532 682.41943 752.15581 683.19422 749.55989 C 683.64419 748.05223 684.44353 745.01094 684.97037 742.80205 C 685.83279 739.18617 686.548 738.78274 692.24477 738.78274 C 695.72473 738.78274 699.01802 738.08961 699.54747 737.23303 C 701.1664 734.61355 695.55173 731.71546 690.46155 732.54147 C 686.21191 733.23111 685.6633 732.89424 684.82884 729.10948 C 684.32009 726.802 683.65214 724.09162 683.34283 723.08758 C 682.97382 721.88982 684.39834 721.26067 687.48244 721.25483 C 694.80826 721.24169 703.12806 718.46883 703.12806 716.03962 C 703.12806 714.05795 701.89045 713.02055 699.05921 712.90484 z M 718.27126 760.83945 C 718.27124 760.84845 718.27127 760.85835 718.27126 760.86775 C 718.28026 760.88215 718.29047 760.89581 718.29957 760.91021 C 718.29057 760.88661 718.28106 760.86305 718.27126 760.83945 z "
       transform="matrix(0.41556411,0,0,0.41556411,367.77226,466.25756)" />
  </g>
</svg>
