<?xml version="1.0" encoding="UTF-8" standalone="no"?>
<!-- Created with Inkscape (http://www.inkscape.org/) -->

<svg
   viewBox="0 0 35.349998 38.720001"
   id="svg2"
   version="1.1"
   inkscape:version="1.3.2 (091e20e, 2023-11-25, custom)"
   sodipodi:docname="Ou.svg"
   xmlns:inkscape="http://www.inkscape.org/namespaces/inkscape"
   xmlns:sodipodi="http://sodipodi.sourceforge.net/DTD/sodipodi-0.dtd"
   xmlns="http://www.w3.org/2000/svg"
   xmlns:svg="http://www.w3.org/2000/svg"
   xmlns:rdf="http://www.w3.org/1999/02/22-rdf-syntax-ns#"
   xmlns:cc="http://creativecommons.org/ns#"
   xmlns:dc="http://purl.org/dc/elements/1.1/">
  <defs
     id="defs4" />
  <sodipodi:namedview
     id="base"
     pagecolor="#ffffff"
     bordercolor="#666666"
     borderopacity="1.0"
     inkscape:pageopacity="0.0"
     inkscape:pageshadow="2"
     inkscape:zoom="14.178719"
     inkscape:cx="17.702587"
     inkscape:cy="19.360001"
     inkscape:document-units="px"
     inkscape:current-layer="layer1"
     showgrid="false"
     fit-margin-top="0"
     fit-margin-left="0"
     fit-margin-right="0"
     fit-margin-bottom="0"
     inkscape:window-width="1292"
     inkscape:window-height="745"
     inkscape:window-x="-8"
     inkscape:window-y="-8"
     inkscape:window-maximized="1"
     inkscape:showpageshadow="0"
     inkscape:pagecheckerboard="1"
     inkscape:deskcolor="#d1d1d1" />
  <metadata
     id="metadata7">
    <rdf:RDF>
      <cc:Work
         rdf:about="">
        <dc:format>image/svg+xml</dc:format>
        <dc:type
           rdf:resource="http://purl.org/dc/dcmitype/StillImage" />
      </cc:Work>
    </rdf:RDF>
  </metadata>
  <g
     inkscape:label="Layer 1"
     inkscape:groupmode="layer"
     id="layer1"
     transform="matrix(-0.66418335,0,0,-0.66418335,449.63209,532.63546)"
     style="display:inline">
    <path
       sodipodi:nodetypes="cccccccccc"
       inkscape:connector-curvature="0"
       id="path3022"
       d="m 679.6057,679.99766 c -10.39196,2.40995 -20.90855,5.02646 -30.89286,8.68304 -3.58886,15.23626 -5.05989,30.99595 -7.67838,46.45458 -3.0916,20.04977 -5.86811,40.15996 -9.28591,60.15256 11.66136,0.83366 24.05976,0.11881 36.00447,0.35714 20.02976,0 40.05952,0 60.08928,0 -1.40818,-13.61368 -4.1343,-27.72903 -6.02163,-41.53472 -3.51635,-21.55897 -5.98246,-43.34298 -10.31765,-64.7376 -2.12982,-2.62994 -6.73433,-2.30255 -9.71526,-3.76323 -7.34688,-1.94978 -14.67481,-4.51323 -22.18206,-5.61177 z"
       style="display:inline;fill:#ffffff;fill-opacity:1;stroke:none"
       transform="matrix(0.41556411,0,0,0.41556411,367.77226,466.25756)" />
    <path
       id="path3010"
       style="fill:#d0d0d0"
       d="m 680.00283,677.79242 c -1.90319,0 -32.87887,7.78725 -33.77501,8.49151 -0.14928,0.11731 -3.85596,24.24293 -8.23677,53.60978 -4.38081,29.36685 -8.12969,54.41024 -8.33584,55.64774 l -0.37504,2.25025 h 50.72266 50.72266 l -0.37504,-2.25025 c -0.20614,-1.2375 -3.96211,-26.28089 -8.34292,-55.64774 -4.38063,-29.36685 -8.08749,-53.49247 -8.23677,-53.60978 -0.89614,-0.70426 -31.86474,-8.49151 -33.76793,-8.49151 z m 0,2.69605 15.16443,4.11839 c 8.34289,2.26639 15.47896,4.47442 15.85083,4.90385 0.37188,0.42943 3.94343,23.05239 7.93957,50.27685 3.99631,27.22464 7.49434,50.73864 7.77682,52.25114 l 0.51656,2.75266 h -47.24821 -47.25529 l 0.51657,-2.75266 c 0.28248,-1.5125 3.78049,-25.0265 7.77681,-52.25114 3.99631,-27.22446 7.57476,-49.84742 7.94664,-50.27685 0.37187,-0.42943 7.50087,-2.63746 15.84376,-4.90385 z m 17.42176,31.3337 c -2.14546,0.0367 -4.67231,0.45342 -7.45838,1.2808 -8.7095,2.58648 -29.35785,3.11417 -33.57687,0.85623 -4.32552,-2.31498 -4.70682,0.7206 -0.60856,4.81894 3.67919,3.67919 13.70754,6.52283 16.63629,4.71279 0.93676,-0.57894 1.50725,1.03703 1.50725,4.25283 v 5.20106 h -9.49635 c -10.63512,0 -11.83783,1.50186 -4.74109,5.90868 3.35103,2.08094 6.1453,2.70487 9.49634,2.10872 l 4.7411,-0.84207 v 6.63046 6.63753 h -8.39953 c -4.61858,-0.004 -10.93818,-0.72197 -14.04638,-1.58508 -3.38962,-0.94117 -6.18119,-1.02952 -6.9772,-0.23352 -1.66515,1.66516 3.84465,8.90268 8.0811,10.6144 4.57506,1.84859 7.15722,1.673 14.22329,-0.93407 4.90841,-1.81099 11.38437,-2.31063 27.93001,-2.17949 20.55005,0.16288 21.54015,0.0404 21.54015,-2.71728 0,-5.64388 -5.8311,-7.6193 -19.3182,-6.52432 l -12.26317,0.99776 0.62271,-5.3072 c 0.47541,-4.07224 1.40314,-5.49973 4.01932,-6.15635 1.87374,-0.47029 4.0928,-0.42902 4.92508,0.0849 1.79026,1.10645 7.40885,-1.62759 7.40885,-3.60181 0,-2.57496 -7.93355,-5.66989 -10.6427,-4.15377 -3.40126,1.90344 -4.96259,0.67081 -5.7247,-4.52173 -0.61462,-4.1875 -0.38611,-4.38557 6.04313,-5.22229 8.89294,-1.15731 13.25384,-3.05695 13.25384,-5.79546 0,-2.68126 -2.40425,-4.18741 -6.27664,-4.32359 -0.29044,-0.0102 -0.59219,-0.0115 -0.89869,-0.007 z m -54.91888,47.06423 c -0.27222,0.0474 -0.3622,0.24689 -0.33259,0.61564 0.12808,-0.18589 0.25664,-0.3737 0.39627,-0.55195 0.0139,-0.019 0.0285,-0.0377 0.0425,-0.0566 -0.0289,0.002 -0.0804,-0.0118 -0.10614,-0.007 z m 75.76555,1.95305 c -2e-5,0.009 10e-6,0.0189 0,0.0283 0.009,0.0144 0.0192,0.0281 0.0283,0.0425 -0.009,-0.0236 -0.0185,-0.0472 -0.0283,-0.0708 z"
       transform="matrix(0.41556411,0,0,0.41556411,367.77226,466.25756)" />
    <path
       id="path3008"
       style="fill:#b0b0b0"
       d="m 680.00283,677.79242 c -2.48176,0 -32.28378,7.98156 -33.26552,8.90901 -0.73821,0.69739 -16.73536,104.95248 -16.73536,109.06646 0,2.00427 0.47511,2.02381 50.00088,2.02381 49.52577,0 49.9938,-0.0195 49.9938,-2.02381 0,-4.11398 -15.99007,-108.36907 -16.72828,-109.06646 -0.98174,-0.92745 -30.78376,-8.90901 -33.26552,-8.90901 z m 0.11322,3.04987 c 1.66371,-0.0715 2.69828,0.27439 4.63495,0.78546 2.6125,0.68942 9.71078,2.61541 15.77299,4.27406 l 11.01775,3.01449 7.35224,49.68953 c 4.04267,27.32779 7.58268,51.15003 7.86172,52.93753 l 0.5095,3.248 h -47.26237 -47.26237 l 0.50242,-3.248 c 0.27922,-1.7875 3.81888,-25.60974 7.86173,-52.93753 l 7.35223,-49.68953 11.01775,-3.01449 c 13.3453,-3.65153 17.86862,-4.94035 20.64146,-5.05952 z m 17.81803,31.31246 c -2.29207,-0.0226 -4.93408,0.32572 -7.52207,1.11098 -8.19488,2.48658 -29.98328,2.85242 -34.24204,0.57317 -2.47285,-1.32378 -2.87022,-1.16973 -2.45546,0.94115 0.83901,4.27049 7.80018,8.33584 14.25867,8.33584 5.78823,0 5.95114,0.14473 5.95114,4.918 v 4.91093 l -9.85724,0.0424 -9.85723,0.0495 4.09715,3.60889 c 4.07396,3.5842 6.05164,4.16732 12.33393,3.65843 2.96728,-0.24035 3.28339,0.3751 3.28339,6.40402 v 6.67999 l -6.21296,0.23352 c -6.71239,0.24881 -7.09826,0.22368 -17.69066,-1.18881 -6.98582,-0.93159 -7.08015,-0.8887 -5.38504,2.27856 0.94859,1.77248 3.81661,4.48979 6.37572,6.0502 5.6979,3.47427 7.84542,3.53179 15.07244,0.39627 4.5713,-1.98338 9.91896,-2.40527 27.92294,-2.22195 21.18316,0.21569 22.269,0.0828 22.269,-2.62529 0,-5.14654 -7.05562,-7.33406 -20.30888,-6.31203 l -11.83151,0.90577 0.96237,-4.96047 c 1.17627,-6.03905 2.59755,-7.11118 9.54588,-7.13995 6.54543,-0.0272 7.90223,-1.69034 4.13254,-5.10198 -2.08773,-1.88932 -4.13795,-2.32083 -7.83343,-1.62754 -4.85159,0.91017 -5.0197,0.78671 -5.59732,-4.16085 -0.67042,-5.74256 0.51005,-6.65876 8.66842,-6.65876 4.92238,0 10.58609,-3.25369 10.58609,-6.09266 0,-1.88297 -2.84576,-2.96959 -6.66584,-3.00742 z m -47.99122,28.63764 0.0212,0.0283 c -6.1e-4,-0.009 5.9e-4,-0.0189 0,-0.0283 z m 68.3284,20.04706 c -2e-5,0.009 10e-6,0.0189 0,0.0283 0.009,0.0144 0.0192,0.0281 0.0283,0.0425 -0.009,-0.0236 -0.0185,-0.0472 -0.0283,-0.0708 z"
       transform="matrix(0.41556411,0,0,0.41556411,367.77226,466.25756)" />
    <path
       id="path3006"
       style="fill:#909090"
       d="m 680.00283,677.47398 -16.25418,4.28114 c -8.93732,2.35587 -16.56932,4.57342 -16.9618,4.92508 -0.63506,0.56901 -16.7849,106.08825 -16.7849,109.66794 0,1.241 7.06647,1.44356 50.00088,1.44356 42.93441,0 49.9938,-0.20256 49.9938,-1.44356 0,-3.57969 -16.14983,-109.09893 -16.78489,-109.66794 -0.39248,-0.35166 -8.02449,-2.56921 -16.96181,-4.92508 z m 0,3.34708 c 2.19618,0 30.91017,7.46232 31.50353,8.18723 0.36061,0.44068 15.50401,103.07978 15.49701,105.03299 -0.006,1.64175 -2.9085,1.74784 -47.00054,1.74784 -44.09204,0 -47.00162,-0.10609 -47.00762,-1.74784 -0.007,-1.95321 15.14348,-104.59231 15.50409,-105.03299 0.59336,-0.72491 29.30735,-8.18723 31.50353,-8.18723 z m 19.64371,31.87149 c -0.96828,0.0237 -2.1697,0.13625 -3.66551,0.32551 -23.62294,2.98663 -30.10455,3.38666 -35.50869,2.17241 -7.59813,-1.70707 -8.77194,-0.42748 -3.63012,3.99809 3.00328,2.58509 5.83584,3.53813 10.59316,3.53813 6.39818,0 6.48894,0.0662 6.48894,4.92508 0,4.26869 -0.5624,5.03473 -4.22453,5.76716 -2.32572,0.46513 -6.7612,0.49653 -9.85724,0.0708 l -5.6327,-0.76424 4.09715,3.76458 c 2.95572,2.71346 5.70911,3.76457 9.86432,3.76457 h 5.753 v 6.36156 6.36864 l -7.36639,0.8633 c -4.05206,0.47991 -9.0217,0.25308 -11.04605,-0.51657 -2.02435,-0.76952 -5.63889,-1.4011 -8.02448,-1.4011 -3.92271,0 -4.17586,0.28112 -2.72436,2.99326 0.88275,1.64939 3.68923,4.27751 6.24834,5.83792 5.66814,3.45612 6.31185,3.47561 14.33651,0.40335 5.02046,-1.92205 11.00057,-2.40532 27.90171,-2.27856 11.83232,0.0888 21.84951,-0.39685 22.269,-1.07559 1.3167,-2.13048 -0.72438,-5.42596 -4.40851,-7.10457 -2.239,-1.02015 -7.88951,-1.2752 -15.34134,-0.70055 l -11.78906,0.91284 0.94114,-4.23868 c 1.70867,-7.73921 1.87143,-7.89711 8.59059,-7.89711 7.62979,0 9.20447,-1.51523 5.26474,-5.08076 -2.08773,-1.88932 -4.13795,-2.32083 -7.83343,-1.62754 -4.86423,0.91256 -5.02254,0.79179 -5.61147,-4.25284 -0.33339,-2.85528 -0.29884,-5.49623 0.0778,-5.8733 0.37707,-0.37706 3.39227,-0.69347 6.69415,-0.69347 7.0509,0 12.78654,-3.37244 11.48478,-6.76491 -0.43966,-1.14571 -1.2255,-1.70387 -3.04987,-1.79029 -0.27366,-0.0131 -0.56886,-0.0145 -0.89161,-0.007 z m -49.99381,28.09984 0.33966,0.37505 c -0.01,-0.12499 -0.0204,-0.24992 -0.0283,-0.37505 z m 68.61853,20.04706 c -2e-5,0.009 10e-6,0.0189 0,0.0283 0.009,0.0144 0.0192,0.0281 0.0283,0.0425 -0.009,-0.0236 -0.0185,-0.0472 -0.0283,-0.0708 z"
       transform="matrix(0.41556411,0,0,0.41556411,367.77226,466.25756)" />
    <path
       id="path3004"
       style="fill:#6f6f6f"
       d="m 680.00283,677.59428 -16.25418,4.26699 c -8.93732,2.34403 -16.54724,4.52518 -16.91227,4.84724 -0.56024,0.49431 -16.83443,106.83439 -16.83443,110.00052 0,0.76188 14.80195,1.08267 50.00088,1.08267 35.19875,0 49.9938,-0.32079 49.9938,-1.08267 0,-3.16613 -16.27419,-109.50621 -16.83443,-110.00052 -0.36503,-0.32206 -7.97495,-2.50321 -16.91227,-4.84724 z m 0,2.34932 15.59608,4.35898 c 8.58089,2.39642 15.74213,4.49706 15.90745,4.67033 0.45869,0.4808 15.50301,101.99488 15.49701,104.56596 l -0.007,2.25025 H 680.0029 633.00235 l -0.007,-2.25025 c -0.006,-2.57108 15.0454,-104.08516 15.50409,-104.56596 0.16532,-0.17327 7.31966,-2.27391 15.90037,-4.67033 z m 18.3346,32.84094 c -0.72647,0.004 -1.53178,0.0651 -2.42008,0.19106 -23.89479,3.38721 -29.77176,3.81121 -35.45916,2.5333 -7.81695,-1.7563 -8.78903,-0.77281 -3.61597,3.67966 3.00328,2.58509 5.83584,3.53813 10.59316,3.53813 6.41965,0 6.48894,0.0516 6.48894,5.01 0,6.0445 -2.88258,7.39243 -12.91418,6.03605 l -6.80029,-0.91991 4.09715,3.70088 c 2.88309,2.6 5.76352,3.70089 9.70864,3.70089 5.52075,0 5.60936,0.0872 6.24834,6.19881 0.35688,3.41373 0.55134,6.36377 0.42458,6.55262 -0.62188,0.92684 -18.32226,0.69502 -23.76918,-0.31136 -8.77042,-1.62041 -7.61678,3.81998 1.83276,8.66135 5.45754,2.79607 5.49358,2.79283 12.08626,-0.22644 4.34426,-1.98955 9.96013,-2.49918 28.07153,-2.55453 18.33436,-0.0559 22.64405,-0.46206 22.64405,-2.10873 0,-1.11816 -1.70578,-3.30132 -3.7858,-4.85432 -3.46006,-2.58331 -4.75736,-2.68367 -15.19982,-1.23127 -6.27747,0.87314 -11.71204,1.28705 -12.07918,0.91992 -0.36712,-0.36712 -0.0821,-3.16424 0.63686,-6.22004 1.26334,-5.37074 1.53495,-5.57748 8.19432,-6.00775 4.51543,-0.29176 6.89228,-1.11142 6.89228,-2.37762 0,-3.57745 -3.93862,-5.42286 -9.38313,-4.40144 -4.46602,0.83783 -5.21935,0.57679 -5.23643,-1.74784 -0.0117,-1.49504 -0.42851,-4.1934 -0.91284,-6.00067 -0.82534,-3.07981 -0.42273,-3.29046 6.27665,-3.29046 8.71235,0 14.76665,-3.4469 11.96596,-6.82152 -0.93079,-1.12146 -2.40614,-1.66245 -4.58542,-1.64877 z m -48.6847,28.00785 0.33966,0.37505 c -0.01,-0.12499 -0.0204,-0.24992 -0.0283,-0.37505 z m 68.61853,20.04706 c -2e-5,0.009 10e-6,0.0189 0,0.0283 0.009,0.0144 0.0192,0.0281 0.0283,0.0425 -0.009,-0.0236 -0.0185,-0.0472 -0.0283,-0.0708 z"
       transform="matrix(0.41556411,0,0,0.41556411,367.77226,466.25756)" />
    <path
       id="path3002"
       style="fill:#4f4f4f"
       d="m 680.00283,677.69335 -16.57261,4.45805 c -9.11486,2.45007 -16.70326,4.60858 -16.86274,4.7977 -0.15948,0.18912 -3.77022,23.69194 -8.0174,52.22991 -4.24735,28.53778 -7.965,53.40246 -8.26508,55.25146 l -0.54487,3.36123 h 50.2627 50.25563 l -0.54488,-3.36123 c -0.30008,-1.849 -4.0179,-26.71368 -8.26507,-55.25146 -4.24736,-28.53797 -7.85085,-52.04079 -8.01033,-52.22991 -0.15948,-0.18912 -7.74788,-2.34763 -16.86274,-4.7977 z m 0,2.25733 15.42625,4.18207 c 8.48535,2.29985 15.66987,4.42568 15.97113,4.72694 0.30126,0.30127 3.94336,23.46989 8.08817,51.4869 4.145,28.01701 7.76684,51.95478 8.04571,53.19228 l 0.50242,2.25025 h -48.03368 -48.04076 l 0.50949,-2.25025 c 0.27887,-1.2375 3.89364,-25.17527 8.03864,-53.19228 4.14499,-28.01701 7.78691,-51.18563 8.08817,-51.4869 0.30126,-0.30126 7.48595,-2.42709 15.97113,-4.72694 z m 17.43591,33.49195 c -3.66372,-0.051 -9.54952,0.62923 -18.73794,2.00966 -8.84497,1.32885 -13.65256,1.38259 -18.20723,0.22644 -3.40405,-0.86404 -6.39072,-1.36486 -6.63754,-1.11805 -0.24681,0.24681 0.75224,1.9408 2.22903,3.76458 1.96575,2.42755 4.72251,3.50772 10.26766,4.04054 l 7.5716,0.72886 v 5.85207 5.85914 l -9.83601,-0.78546 -9.85016,-0.79962 4.08301,3.5169 c 2.81833,2.42429 5.87272,3.51691 9.85016,3.51691 5.39079,0 5.753,0.26437 5.753,4.25283 0,2.34388 0.3635,5.21358 0.80669,6.36864 1.16757,3.04261 -13.33324,4.51679 -21.88688,2.22902 -3.61495,-0.96691 -6.96821,-1.36053 -7.45131,-0.87745 -1.53277,1.53272 2.7676,6.89339 7.33809,9.14961 5.42204,2.67649 3.63023,2.77961 14.30113,-0.84916 8.16337,-2.7759 11.02913,-2.98846 28.30505,-2.1158 20.7136,1.0463 23.81659,0.1253 18.31337,-5.37796 -3.31984,-3.31973 -6.94886,-3.65079 -20.57777,-1.88936 l -9.32652,1.21004 1.06144,-5.67516 c 1.45949,-7.77961 1.58182,-7.89711 8.9161,-7.89711 4.72221,0 6.48893,-0.57945 6.48893,-2.13704 0,-3.12276 -4.96347,-5.26841 -9.89969,-4.28114 -3.91383,0.78264 -4.37104,0.44902 -5.22936,-3.84241 -1.42853,-7.14251 -1.34468,-7.26732 4.81186,-7.26732 8.05622,0 13.56335,-2.32963 12.94248,-5.47703 -0.29833,-1.5124 -1.73546,-2.28421 -5.39919,-2.33517 z m 20.83252,47.39682 c -2e-5,0.009 10e-6,0.0189 0,0.0283 0.009,0.0144 0.0192,0.0281 0.0283,0.0425 -0.009,-0.0236 -0.0185,-0.0472 -0.0283,-0.0708 z"
       transform="matrix(0.41556411,0,0,0.41556411,367.77226,466.25756)" />
    <path
       id="path3000"
       style="fill:#2f2f2f"
       d="m 680.00283,677.84195 -16.6363,4.43682 c -9.14697,2.44103 -16.71464,4.56993 -16.82028,4.72694 -0.10564,0.15701 -3.69218,23.90739 -7.96787,52.78185 -4.27569,28.87464 -8.01019,53.73897 -8.30046,55.25147 l -0.53072,2.75267 h 50.25563 50.24855 l -0.53072,-2.75267 c -0.29027,-1.5125 -4.02477,-26.37683 -8.30046,-55.25147 -4.27551,-28.87446 -7.86223,-52.62484 -7.96787,-52.78185 -0.10564,-0.15701 -7.67331,-2.28591 -16.82028,-4.72694 z m 0,1.96013 15.24935,4.13961 c 8.38732,2.27568 15.60725,4.45671 16.04896,4.84724 0.44189,0.39052 4.15778,23.38721 8.258,51.10478 4.1004,27.71757 7.71765,51.63732 8.03156,53.14982 l 0.56611,2.74559 h -48.15398 -48.16105 l 0.57317,-2.74559 c 0.31391,-1.5125 3.92409,-25.43225 8.02449,-53.14982 4.10022,-27.71757 7.81611,-50.71426 8.258,-51.10478 0.44189,-0.39053 7.66872,-2.57156 16.05604,-4.84724 z m 19.28989,32.96123 c -2.557,0.0995 -7.4384,0.95715 -17.25193,2.66775 -9.90403,1.72632 -20.86486,1.41759 -26.0265,-0.72885 -1.99267,-0.82861 -2.35728,-0.52738 -1.64169,1.33741 1.30191,3.39266 8.28409,6.68707 14.18791,6.68707 4.4542,0 5.10076,0.50337 5.92991,4.64911 0.51192,2.56025 0.31476,5.26841 -0.43873,6.0219 -0.7535,0.75341 -5.36744,1.08887 -10.24643,0.73593 -4.87918,-0.35293 -8.86656,-0.42662 -8.86656,-0.16275 0,1.7925 10.41593,6.2608 14.60541,6.26957 5.06012,0.0102 5.11042,0.0811 5.14445,6.4394 l 0.0354,6.41817 -7.18241,0.96237 c -4.22926,0.56105 -10.09918,0.20093 -14.2516,-0.86331 -3.88213,-0.99495 -7.50792,-1.35865 -8.05279,-0.81377 -1.45589,1.4559 3.93262,6.96894 8.86656,9.07177 3.63385,1.54878 5.49805,1.39528 12.41177,-1.04021 6.92366,-2.43923 11.1902,-2.79945 28.58811,-2.39177 17.41313,0.40802 20.4504,0.15323 20.4504,-1.71246 0,-3.90505 -8.68564,-7.07194 -15.68808,-5.71762 -3.42289,0.6621 -8.60532,1.23868 -11.506,1.27373 l -5.26474,0.0637 1.50724,-6.57385 c 1.49395,-6.52876 1.54287,-6.57384 7.74143,-6.57384 3.43182,0 6.70266,-0.75908 7.2744,-1.68416 1.70972,-2.76621 -3.87028,-5.73502 -8.97978,-4.77647 -4.37727,0.82119 -4.68481,0.5725 -6.07851,-4.91801 l -1.46478,-5.77423 8.73211,-0.78546 c 9.49778,-0.86124 12.20711,-2.43137 10.75592,-6.21296 -0.50234,-1.3091 -0.73343,-1.96765 -3.29047,-1.86814 z m 18.97854,48.07614 c -2e-5,0.009 10e-6,0.0189 0,0.0283 0.009,0.0144 0.0192,0.0281 0.0283,0.0425 -0.009,-0.0236 -0.0185,-0.0472 -0.0283,-0.0708 z"
       transform="matrix(0.41556411,0,0,0.41556411,367.77226,466.25756)" />
    <path
       id="path2998"
       style="fill:#020202"
       d="m 680.00283,677.95517 -16.12681,4.33775 c -8.86672,2.38739 -16.44233,4.71714 -16.83443,5.17275 -0.39211,0.45561 -4.18902,24.45226 -8.44198,53.32672 -4.25313,28.87464 -7.96184,53.28414 -8.23677,54.24664 -0.47132,1.65 2.36972,1.75492 49.63999,1.75492 47.27027,0 50.10423,-0.10488 49.63291,-1.75492 -0.27493,-0.9625 -3.98364,-25.372 -8.23677,-54.24664 -4.25296,-28.87446 -8.04987,-52.87111 -8.44198,-53.32672 -0.3921,-0.45561 -7.96772,-2.78536 -16.83443,-5.17275 z m 0,1.72661 15.74469,4.22453 c 8.66232,2.3228 15.88801,4.3235 16.05604,4.44389 0.22545,0.16153 16.17069,105.72927 16.19049,107.19125 0.002,0.1375 -21.59176,0.24767 -47.99122,0.24767 -26.39946,0 -48.0003,-0.11017 -47.9983,-0.24767 0.0198,-1.46198 15.96504,-107.02972 16.19049,-107.19125 0.16803,-0.12039 7.39355,-2.12109 16.05605,-4.44389 z m 19.05638,33.22306 c -0.40447,-0.0165 -0.84581,-0.006 -1.31619,0.0141 -2.25784,0.0992 -5.28594,0.61399 -9.19206,1.55678 -11.32542,2.73357 -25.63984,3.13253 -31.68751,0.87038 l -4.11131,-1.54263 4.04054,4.08301 c 3.29601,3.33215 5.31317,4.08132 11.00359,4.09008 l 6.9772,0.0141 0.2689,6.13512 0.27597,6.14928 -9.82893,0.42457 -9.81478,0.43873 4.84724,2.63945 c 2.66727,1.45568 6.28116,2.53774 8.03156,2.39885 6.36745,-0.50544 6.8286,-0.0656 6.8286,6.53139 v 6.46771 l -8.08109,1.01898 c -5.10994,0.63845 -10.49454,0.33295 -14.64079,-0.82792 -3.60835,-1.01024 -6.95368,-1.44577 -7.43008,-0.96945 -0.47642,0.4764 1.13485,2.86156 3.58059,5.30719 5.12203,5.12208 8.88076,5.51917 19.50218,2.04505 5.92363,-1.93743 10.96918,-2.24391 25.94158,-1.57801 20.94483,0.93151 24.04644,0.16394 19.14837,-4.73402 -3.036,-3.03606 -4.01458,-3.1624 -17.12455,-2.17949 -13.1677,0.98713 -13.85881,0.89762 -13.08402,-1.6983 0.44997,-1.50766 1.24931,-4.54895 1.77615,-6.75784 0.86242,-3.61588 1.57763,-4.01931 7.2744,-4.01931 3.47996,0 6.77325,-0.69313 7.3027,-1.54971 1.61893,-2.61948 -3.99574,-5.51757 -9.08592,-4.69156 -4.24964,0.68964 -4.79825,0.35277 -5.63271,-3.43199 -0.50875,-2.30748 -1.1767,-5.01786 -1.48601,-6.0219 -0.36901,-1.19776 1.05551,-1.82691 4.13961,-1.83275 7.32582,-0.0131 15.64562,-2.786 15.64562,-5.21521 0,-1.98167 -1.23761,-3.01907 -4.06885,-3.13478 z m 19.21205,47.93461 c -2e-5,0.009 10e-6,0.0189 0,0.0283 0.009,0.0144 0.0192,0.0281 0.0283,0.0425 -0.009,-0.0236 -0.0185,-0.0472 -0.0283,-0.0708 z"
       transform="matrix(0.41556411,0,0,0.41556411,367.77226,466.25756)" />
  </g>
</svg>
