<?xml version="1.0" encoding="UTF-8" standalone="no"?>
<!-- Created with Inkscape (http://www.inkscape.org/) -->

<svg
   viewBox="0 0 38.549999 41.919998"
   version="1.1"
   id="svg1"
   inkscape:version="1.3.2 (091e20e, 2023-11-25, custom)"
   sodipodi:docname="Ou.svg"
   xml:space="preserve"
   xmlns:inkscape="http://www.inkscape.org/namespaces/inkscape"
   xmlns:sodipodi="http://sodipodi.sourceforge.net/DTD/sodipodi-0.dtd"
   xmlns="http://www.w3.org/2000/svg"
   xmlns:svg="http://www.w3.org/2000/svg"><sodipodi:namedview
     id="namedview1"
     pagecolor="#ffffff"
     bordercolor="#111111"
     borderopacity="1"
     inkscape:showpageshadow="false"
     inkscape:pageopacity="0"
     inkscape:pagecheckerboard="1"
     inkscape:deskcolor="#d1d1d1"
     inkscape:document-units="mm"
     showguides="true"
     inkscape:zoom="11.569391"
     inkscape:cx="19.231782"
     inkscape:cy="20.960481"
     inkscape:window-width="1292"
     inkscape:window-height="745"
     inkscape:window-x="-8"
     inkscape:window-y="-8"
     inkscape:window-maximized="1"
     inkscape:current-layer="layer1"
     labelstyle="default"><inkscape:page
       x="0"
       y="0"
       width="38.549999"
       height="41.919998"
       id="page42"
       margin="0"
       bleed="0" /></sodipodi:namedview><defs
     id="defs1"><inkscape:path-effect
       effect="powerstroke"
       id="path-effect12"
       is_visible="true"
       lpeversion="1.3"
       scale_width="1"
       interpolator_type="CubicBezierJohan"
       interpolator_beta="0.2"
       start_linecap_type="zerowidth"
       end_linecap_type="zerowidth"
       offset_points="7,4.9921382"
       linejoin_type="extrp_arc"
       miter_limit="4"
       not_jump="false"
       sort_points="true"
       message="&lt;b&gt;Ctrl + click&lt;/b&gt; on existing node and move it" /><inkscape:path-effect
       effect="powerstroke"
       id="path-effect13"
       is_visible="true"
       lpeversion="1.3"
       scale_width="1"
       interpolator_type="CubicBezierJohan"
       interpolator_beta="0.2"
       start_linecap_type="zerowidth"
       end_linecap_type="zerowidth"
       offset_points="5,4.9921382"
       linejoin_type="extrp_arc"
       miter_limit="4"
       not_jump="false"
       sort_points="true"
       message="&lt;b&gt;Ctrl + click&lt;/b&gt; on existing node and move it" /><inkscape:path-effect
       effect="powerstroke"
       id="path-effect13-0"
       is_visible="true"
       lpeversion="1.3"
       scale_width="1"
       interpolator_type="CubicBezierJohan"
       interpolator_beta="0.2"
       start_linecap_type="zerowidth"
       end_linecap_type="zerowidth"
       offset_points="5,4.9921382"
       linejoin_type="extrp_arc"
       miter_limit="4"
       not_jump="false"
       sort_points="true"
       message="&lt;b&gt;Ctrl + click&lt;/b&gt; on existing node and move it" /><inkscape:path-effect
       effect="powerstroke"
       id="path-effect13-9"
       is_visible="true"
       lpeversion="1.3"
       scale_width="1"
       interpolator_type="CubicBezierJohan"
       interpolator_beta="0.2"
       start_linecap_type="zerowidth"
       end_linecap_type="zerowidth"
       offset_points="5,4.9921382"
       linejoin_type="extrp_arc"
       miter_limit="4"
       not_jump="false"
       sort_points="true"
       message="&lt;b&gt;Ctrl + click&lt;/b&gt; on existing node and move it" /></defs><g
     inkscape:label="Layer 1"
     inkscape:groupmode="layer"
     id="layer1"
     transform="rotate(180,62.137499,101.68)"><path
       style="fill:#938e5e;fill-opacity:1;fill-rule:evenodd;stroke:none;stroke-width:1;stroke-linecap:round;stroke-linejoin:round;stroke-dasharray:none;stroke-opacity:1;paint-order:stroke fill markers"
       d="m 119.35,200 v -6.4 L 114.78527,167.97943 105,164.8 95.21473,167.97943 90.649996,193.6 l 2e-6,6.4 z"
       id="path12"
       sodipodi:nodetypes="cccccccc" /><path
       style="display:inline;fill:#fff29e;fill-opacity:1;fill-rule:evenodd;stroke:none;stroke-width:0.385762;stroke-linecap:round;stroke-linejoin:round;paint-order:stroke fill markers"
       d="m 105,168 9.78527,3.17942 L 119.35,200 h -28.7 l 4.56473,-28.82058 z"
       id="path13" /><path
       id="path1-3"
       style="fill:#000000;stroke-width:0.291888"
       d="m 104.54004,172.98218 c -0.28275,-0.0182 -0.61024,0.005 -0.98874,0.0689 -1.82253,0.30834 -3.847571,0.47281 -5.085328,0.413 -0.439533,-0.0213 -0.818564,-0.007 -0.842125,0.0309 -0.117958,0.19167 1.324377,1.26429 1.884834,1.02105 0.244289,-0.10603 0.446899,-0.15579 0.630079,-0.20728 0.19618,-0.0551 0.36138,-0.0652 0.40213,-0.0244 0.0959,0.0959 -0.0449,1.03244 -0.17467,1.16221 -0.11348,0.11348 -0.772748,0.14082 -1.587714,0.0659 -0.564458,-0.0519 -0.666796,-0.0156 -0.553422,0.19624 0.206652,0.38613 1.40272,0.83096 1.563277,0.79748 0.160562,-0.0335 0.753139,-0.0894 0.786919,-0.0335 0.0139,0.0231 0.0377,0.24975 0.0526,0.5038 l 0.0273,0.46201 -0.30891,0.0563 c -0.16991,0.031 -0.673826,0.0766 -1.119819,0.10151 -0.845408,0.10396 -1.656783,0.0726 -2.479011,-0.15958 -0.03828,-0.0237 -0.06954,-0.001 -0.06954,0.0496 0,0.18016 0.748466,0.79172 1.417116,1.15782 0.492979,0.26992 0.707478,0.27616 1.311229,0.0378 1.988255,-0.78474 2.568045,-0.83833 5.033135,-0.46578 1.46838,0.22192 2.20102,0.048 2.20102,-0.52235 0,-0.25107 -0.37695,-0.65114 -0.68781,-0.73005 -0.23056,-0.0585 -2.08411,0.0334 -2.55579,0.12685 -0.49752,0.0985 -0.54525,0.006 -0.2694,-0.52114 l 0.23078,-0.44105 0.54061,-0.003 c 0.63904,-0.003 0.8634,-0.0681 0.92704,-0.26864 0.0829,-0.26115 -0.0941,-0.44481 -0.56006,-0.58148 -0.24437,-0.0717 -0.53743,-0.13562 -0.65131,-0.14194 -0.26931,-0.015 -0.30954,-0.0619 -0.42401,-0.49565 -0.12093,-0.45823 -0.12743,-0.65775 -0.0192,-0.59083 0.21131,0.1306 1.83203,0.008 2.16618,-0.16411 0.39326,-0.20232 0.36143,-0.4995 -0.0774,-0.72221 -0.19933,-0.10116 -0.43735,-0.16057 -0.7201,-0.17874 z m 1.25663,5.96516 c -0.0703,0 -0.59356,0.1402 -1.16296,0.31148 -0.95967,0.28868 -1.08629,0.30871 -1.73418,0.27559 -0.59604,-0.0305 -0.73458,-0.0137 -0.94047,0.11357 -0.15255,0.0943 -0.45594,0.16738 -0.82417,0.1985 -0.87308,0.0738 -0.92395,0.15357 -0.35885,0.56293 0.30577,0.22149 0.43543,0.23451 1.15346,0.11599 l 0.2703,-0.0445 -0.4596,0.46744 c -0.45053,0.45831 -0.46019,0.47719 -0.4869,0.95163 -0.0217,0.38582 0.005,0.53497 0.13017,0.73504 0.24255,0.3865 0.42108,0.33266 1.0441,-0.31495 0.67686,-0.70358 0.85172,-0.79894 1.16491,-0.63563 0.31631,0.16493 0.36818,0.15408 0.56941,-0.11811 0.097,-0.13124 0.38693,-0.33801 0.64498,-0.46005 0.69011,-0.32637 0.78224,-0.19426 0.30801,0.44135 -0.15941,0.21366 -0.486,0.60042 -0.72583,0.85947 -0.42015,0.45382 -0.45966,0.47656 -1.08105,0.62341 -1.20852,0.28561 -1.57135,0.34094 -2.28534,0.34919 -0.44653,0.005 -0.71398,0.0391 -0.71436,0.0904 -9.1e-4,0.13003 1.16997,0.96053 1.35422,0.96053 0.057,0 0.21852,-0.0669 0.35899,-0.14887 0.3204,-0.18687 2.33924,-0.77418 2.95852,-0.86068 0.25486,-0.0356 0.68191,-0.0955 0.94907,-0.13304 0.26717,-0.0376 0.49917,-0.0466 0.51556,-0.0201 0.0709,0.11476 0.19374,2.19045 0.14692,2.48323 l -0.0516,0.32249 -0.87652,-0.0523 c -0.8834,-0.0528 -1.07301,-3.8e-4 -0.70275,0.19428 0.0956,0.0502 0.45179,0.29163 0.7916,0.53653 0.3398,0.2449 0.78836,0.53533 0.99688,0.64543 l 0.37921,0.20031 0.23636,-0.18236 c 0.47697,-0.36783 0.55185,-0.54179 0.53034,-1.23234 -0.0107,-0.34561 -0.0756,-0.9073 -0.14405,-1.24833 -0.0685,-0.34103 -0.16976,-0.84512 -0.2252,-1.12012 -0.0554,-0.275 -0.0874,-0.52201 -0.0707,-0.5489 0.0166,-0.0269 0.33049,-0.0676 0.69747,-0.0905 0.74236,-0.0463 0.93361,-0.14994 0.85494,-0.46337 -0.069,-0.27476 -0.52783,-0.45194 -1.21318,-0.4685 -0.50567,-0.0122 -0.57631,-0.032 -0.60245,-0.16834 -0.0163,-0.0849 -0.0607,-0.23648 -0.0988,-0.33666 -0.0953,-0.25099 -0.25001,-0.11144 -0.37618,0.33923 -0.0694,0.24805 -0.1439,0.35704 -0.26065,0.38146 -0.33997,0.0712 -1.53395,0.20189 -1.56449,0.17136 -0.0514,-0.0514 1.13928,-0.84298 1.26251,-0.92479 0.79945,-0.53074 1.05035,-0.94734 0.75087,-1.24682 -0.11632,-0.11632 -0.19888,-0.13325 -0.80532,-0.16396 -0.86074,-0.0436 -2.36403,1.02143 -2.58716,0.66036 -0.0262,-0.0425 -0.11925,-0.0772 -0.20665,-0.0772 -0.12332,0 -0.14945,0.0362 -0.1166,0.16185 0.0862,0.32945 -0.15141,0.51602 -0.81588,0.64045 -0.27418,0.0513 -0.2896,0.0436 -0.2896,-0.14616 0,-0.2829 0.17773,-0.59277 0.50485,-0.87998 0.25605,-0.22482 0.31217,-0.24226 0.62808,-0.19489 0.19896,0.0298 0.41828,0.0174 1.21497,-0.20671 0.79669,-0.22408 0.97332,-0.25601 1.09646,-0.29497 0.12315,-0.039 0.31711,-0.091 0.43095,-0.11585 0.2804,-0.0611 0.44438,-0.24056 0.39444,-0.43154 -0.0495,-0.18922 -0.37882,-0.46292 -0.55704,-0.46292 z m -7.065979,0.85917 c -0.121397,0.002 -0.212526,0.0265 -0.24511,0.0792 -0.01871,0.0303 0.05433,0.18512 0.1623,0.34421 0.281708,0.41512 0.303242,0.58702 0.131078,1.04878 -0.134885,0.36176 -0.183685,0.4159 -0.412691,0.45779 -0.142822,0.0261 -0.319037,0.0726 -0.391574,0.10347 -0.120039,0.051 -0.128258,-0.002 -0.09156,-0.58796 0.0383,-0.6118 0.03124,-0.65055 -0.141938,-0.77108 -0.187573,-0.13056 -1.075682,-0.38755 -1.135352,-0.32853 -0.01838,0.0182 0.07719,0.23915 0.212379,0.49098 0.188717,0.35154 0.245563,0.55305 0.244658,0.86761 -6.34e-4,0.22535 -0.02672,0.44552 -0.05792,0.48932 -0.03121,0.0438 -0.334738,0.0785 -0.674544,0.0772 -0.718083,-0.003 -0.770988,0.01 -0.629595,0.15129 0.435091,0.43509 0.954872,0.51883 1.879735,0.30258 0.289346,-0.0676 0.578249,-0.13395 0.641963,-0.14722 0.06371,-0.0133 0.167972,-0.036 0.231686,-0.0507 0.06371,-0.0146 0.112246,0.0168 0.107999,0.0698 -0.0043,0.0531 -0.01293,0.1776 -0.01931,0.27664 -0.0093,0.14408 -0.07704,0.19651 -0.339685,0.2623 -0.180523,0.0452 -0.532919,0.13875 -0.782997,0.20786 -0.590163,0.16308 -1.429379,0.28098 -2.035549,0.28598 -0.265249,0.002 -0.500237,0.0329 -0.522199,0.0685 -0.109139,0.17659 0.979945,0.72137 1.410027,0.70532 0.392884,-0.0147 0.398472,0.0149 0.130172,0.68872 -0.359157,0.90193 -0.239355,1.64012 0.225804,1.39117 0.102751,-0.055 0.229943,-0.19164 0.282669,-0.30379 0.133203,-0.2833 0.307146,-1.21311 0.307256,-1.64246 5e-5,-0.19656 0.04359,-0.39039 0.09669,-0.43064 0.115192,-0.0873 0.898802,-0.40907 0.99628,-0.40907 0.06475,0 0.01927,1.5373 -0.05656,1.91141 -0.04371,0.21564 -0.181588,0.21889 -0.583439,0.0139 -0.172327,-0.0879 -0.333116,-0.1399 -0.357333,-0.11569 -0.02422,0.0242 0.05942,0.17424 0.185982,0.33351 0.126564,0.15926 0.364522,0.50896 0.528836,0.77711 0.268672,0.43846 0.318734,0.48281 0.49716,0.43954 0.109119,-0.0265 0.30276,-0.15095 0.430188,-0.27664 0.255143,-0.25165 0.261909,-0.32742 0.203781,-2.27221 -0.02542,-0.85025 0.07764,-1.35639 0.56941,-2.79743 0.299882,-0.87874 0.322152,-1.07 0.153401,-1.31093 -0.15074,-0.21521 -0.787904,-0.40657 -1.152094,-0.39986 z m 5.151999,4.31878 c -0.15674,-0.002 -0.31658,0.0127 -0.47619,0.0446 -0.29239,0.0585 -0.29853,0.11893 -0.0453,0.451 0.1829,0.23979 0.19026,0.28107 0.1074,0.61014 -0.0556,0.22084 -0.18653,0.44776 -0.34979,0.60636 -0.14352,0.13942 -0.26139,0.28449 -0.26186,0.32219 -0.002,0.14798 0.87456,-0.0412 1.37428,-0.2967 0.90895,-0.46463 1.25394,-0.97023 0.88391,-1.29554 -0.3204,-0.28167 -0.76228,-0.4363 -1.23249,-0.4421 z"
       sodipodi:nodetypes="sssccssssszccccssssssssssccsssssssssssssscccsssssssssscssssccccsscccssssssssssssssssssssssscssssssssssssssscsssscsssssssssssssssssssssssssssscssssss"
       transform="matrix(1.5526719,0,0,1.5526719,-53.278421,-95.926618)" /></g></svg>
