<?xml version="1.0" encoding="UTF-8" standalone="no"?>
<!-- Created with Inkscape (http://www.inkscape.org/) -->

<svg
   viewBox="0 0 38.549999 41.919998"
   version="1.1"
   id="svg1"
   inkscape:version="1.3.2 (091e20e, 2023-11-25, custom)"
   sodipodi:docname="Ou.svg"
   xml:space="preserve"
   xmlns:inkscape="http://www.inkscape.org/namespaces/inkscape"
   xmlns:sodipodi="http://sodipodi.sourceforge.net/DTD/sodipodi-0.dtd"
   xmlns="http://www.w3.org/2000/svg"
   xmlns:svg="http://www.w3.org/2000/svg"><sodipodi:namedview
     id="namedview1"
     pagecolor="#ffffff"
     bordercolor="#111111"
     borderopacity="1"
     inkscape:showpageshadow="0"
     inkscape:pageopacity="0"
     inkscape:pagecheckerboard="1"
     inkscape:deskcolor="#d1d1d1"
     inkscape:document-units="mm"
     showguides="true"
     inkscape:zoom="13.096375"
     inkscape:cx="19.280145"
     inkscape:cy="20.959999"
     inkscape:window-width="1292"
     inkscape:window-height="745"
     inkscape:window-x="-8"
     inkscape:window-y="-8"
     inkscape:window-maximized="1"
     inkscape:current-layer="layer1"><inkscape:page
       x="0"
       y="0"
       width="38.549999"
       height="41.919998"
       id="page42"
       margin="0"
       bleed="0" /></sodipodi:namedview><defs
     id="defs1"><inkscape:path-effect
       effect="powerstroke"
       id="path-effect13"
       is_visible="true"
       lpeversion="1.3"
       scale_width="1"
       interpolator_type="CubicBezierJohan"
       interpolator_beta="0.2"
       start_linecap_type="zerowidth"
       end_linecap_type="zerowidth"
       offset_points="5,4.9921382"
       linejoin_type="extrp_arc"
       miter_limit="4"
       not_jump="false"
       sort_points="true"
       message="&lt;b&gt;Ctrl + click&lt;/b&gt; on existing node and move it" /></defs><g
     inkscape:label="Layer 1"
     inkscape:groupmode="layer"
     id="layer1"
     transform="matrix(1.5526719,0,0,1.5526719,-139.00342,-260.56662)"><path
       style="display:inline;fill:#fff29e;fill-opacity:1;fill-rule:evenodd;stroke:none;stroke-width:0.24845;stroke-linecap:round;stroke-linejoin:round;paint-order:stroke fill markers"
       d="m 101.93939,168 6.30221,2.04771 2.93992,18.56192 H 92.697253 l 2.939919,-18.56192 z"
       id="path13"
       transform="translate(4.5566654e-7,1.9822226)" /><path
       style="display:inline;fill:#938e5e;fill-opacity:1;fill-rule:evenodd;stroke:none;stroke-width:0.248604;stroke-linecap:round;stroke-linejoin:round;stroke-dasharray:none;stroke-opacity:1;paint-order:stroke fill markers"
       d="m 92.697255,188.60963 -2e-6,2.06096 h 18.484267 v -2.06096 z"
       id="path45"
       transform="translate(4.5566654e-7,1.9822226)" /><path
       d="m 106.54195,192.48325 -0.0243,0.006 q -0.0101,-0.18835 -0.0101,-0.19038 0,-0.0871 0.0587,-0.17215 0.0446,-0.0668 0.23696,-0.21671 0.18633,-0.1438 0.30785,-0.21063 -0.10734,-0.0182 -0.13975,-0.0182 -0.0101,0 -0.0466,0.004 -0.0344,0.004 -0.0567,0.004 -0.0709,0 -0.17012,0.0182 -0.081,0.0182 -0.16608,0.0344 -0.0972,0.0182 -0.3281,-0.1438 l -0.0101,-0.0365 0.0243,-0.0608 q 0.0365,-0.0385 0.0749,-0.0425 0.0162,0 0.0405,-0.004 0.0527,-0.0263 0.10936,-0.0932 0.083,-0.10329 0.0891,-0.10937 0.0466,-0.0121 0.0871,-0.0527 0.0365,-0.0385 0.0729,-0.0749 -0.0203,-0.0445 -0.0709,-0.0851 -0.0587,-0.0466 -0.079,-0.077 -0.0425,-0.0587 -0.0608,-0.17418 l 0.0385,-0.0567 q 0.11747,0.1762 0.29368,0.26734 0.0284,-0.0101 0.0628,-0.0446 0.0506,-0.0527 0.0527,-0.0547 0.004,-0.002 0.0628,-0.0405 0.0365,-0.0223 0.0506,-0.0547 l 0.0405,-0.008 q 0.077,0.0304 0.13772,0.11747 0.004,0.008 0.0891,0.16203 0.0304,0.0587 0.0668,0.10126 -0.0182,0.0243 -0.0243,0.0567 -0.004,0.0344 -0.008,0.0648 -0.0162,0.0871 -0.0992,0.0992 -0.0425,-0.0506 -0.1114,-0.0749 -0.0628,-0.0203 -0.12759,-0.0405 -0.0385,-0.0142 -0.21671,-0.11342 -0.17013,0.17215 -0.22076,0.35241 0.0527,0.0263 0.16,0.0203 0.1519,-0.0101 0.56506,-0.0162 0.006,0 0.0446,0.004 l 0.0283,-0.0122 q 0.1195,0.008 0.35039,0.0405 l 0.11139,-0.0223 0.008,-0.0284 q -0.008,-0.083 -0.008,-0.0891 0,0 0.004,-0.0466 l 0.0608,-0.0344 q 0.004,0.002 0.0506,0.0425 0.0284,0.0263 0.0567,0.0263 l 0.0324,0.0365 -0.0101,0.0405 0.0101,0.0385 q -0.0162,0.0263 -0.0365,0.12759 -0.0182,0.079 -0.077,0.1195 -0.0446,0.0283 -0.10329,0.0324 -0.0142,-0.0851 -0.13165,-0.0992 -0.0202,-0.002 -0.0608,-0.006 -0.10126,-0.0142 -0.0932,-0.0142 -0.0729,0.004 -0.0911,0.008 -0.0547,0.006 -0.0911,0.0223 l -0.0648,0.0547 q 0.0891,0.14582 0.25924,0.26329 l 0.0385,-0.081 0.0891,0.12557 q -0.0142,0.0972 -0.0203,0.12152 -0.0203,0.0608 -0.0729,0.10127 l -0.0932,-0.0365 q -0.0324,-0.0749 -0.14785,-0.21063 -0.10531,-0.12962 -0.13974,-0.21671 -0.1195,0.0648 -0.22279,0.21063 -0.081,0.13165 -0.16405,0.26329 -0.10937,0.17013 -0.22076,0.18836 l -0.0283,0.0263 q -0.006,-0.0142 -0.0182,-0.0385 z m 0.62785,-1.33469 q -0.0223,-0.0405 -0.0486,-0.12355 -0.0263,-0.083 -0.0466,-0.11747 -0.0304,0.006 -0.0911,0.0486 -0.0587,0.0446 -0.0749,0.0709 -0.006,0.008 -0.0101,0.0223 0.14987,0.0648 0.26734,0.10126 z m -5.00457,0.27544 q 0.0162,0 0.0385,-0.0324 0.008,-0.0142 0.0263,-0.0344 0.0122,0.0284 0.0122,0.0425 0,0.0344 -0.0284,0.0972 0.0608,0.0668 0.18026,0.19848 -0.0365,-0.14379 -0.0608,-0.20658 -0.0446,-0.11747 -0.10329,-0.19038 0.0223,-0.0344 0.0608,-0.0506 0.0405,-0.0162 0.081,-0.0304 0.0729,0.0182 0.21063,0.079 0.13772,0.0628 0.21064,0.081 l 0.0587,-0.0203 v 0.0567 q -0.0101,0.0142 -0.0405,0.083 -0.0304,0.0689 -0.15392,0.0689 -0.0182,-0.0263 -0.0446,-0.0365 -0.0527,-0.0203 -0.0547,-0.0223 -0.002,-0.002 -0.0324,-0.0263 -0.0203,-0.0162 -0.0365,-0.0162 -0.004,0 -0.0101,0.004 0.0547,0.14785 0.16,0.45165 -0.008,0.0486 -0.0162,0.0972 -0.0182,0.0506 -0.077,0.0506 -0.0182,0 -0.0446,-0.006 -0.0162,-0.0466 -0.0547,-0.0952 -0.0365,-0.0466 -0.0729,-0.0911 -0.0365,-0.0628 -0.11139,-0.15798 -0.0101,0.0182 -0.0365,0.0304 -0.0324,0.0142 -0.0405,0.0203 0.0466,0.1843 0.0385,0.26936 0.0263,0.0122 0.0466,0.0122 0.006,0 0.008,0 l 0.0203,-0.0648 q 0.0425,0.0142 0.0587,0.0506 0.0243,0.0567 0.0324,0.0648 l 0.0182,0.0911 q 0.006,0.0284 -0.0284,0.0506 -0.0344,0.0223 -0.0689,0.0223 -0.006,-0.0223 -0.0263,-0.0425 -0.0203,-0.0182 -0.0385,-0.0182 -0.008,0 -0.0182,0.008 l 0.0101,0.11545 q 0.002,0.0304 -0.0223,0.10126 -0.0223,0.0709 -0.0425,0.10329 l -0.0891,0.0101 -0.0506,-0.0365 0.0547,-0.32 q 0.002,-0.006 0.002,-0.0121 0,-0.0425 -0.0668,-0.0952 -0.0506,-0.0385 -0.10126,-0.077 -0.0284,-0.0263 -0.0587,-0.0567 -0.0142,0.0182 -0.0324,0.0749 -0.0162,0.0567 -0.0385,0.0851 l -0.0689,0.0162 q 0,-0.0324 -0.004,-0.0344 -0.002,-0.002 -0.0365,-0.0162 -0.0203,-0.15393 -0.11747,-0.35241 -0.081,-0.1681 -0.16405,-0.3362 0.002,-0.0284 0.002,-0.0263 0,0 -0.0182,-0.15797 l 0.12557,0.21468 q -0.0324,-0.12354 -0.083,-0.21874 0.008,-0.0628 0.0567,-0.0628 0.008,0 0.0162,0.006 l 0.0527,-0.0122 0.0567,0.0142 0.0668,0.12152 0.10734,-0.0527 h 0.0284 q -0.004,-0.0608 -0.0466,-0.1843 -0.0425,-0.12152 -0.0425,-0.19038 0,-0.13772 0.083,-0.16405 0.0689,0.13772 0.11545,0.26531 0.0243,0.0871 0.077,0.2633 0.0344,-0.0122 0.077,-0.0405 0.0263,-0.0202 0.10127,-0.0689 l 0.002,0.0365 q 0.002,0.0486 -0.0486,0.0992 -0.0446,0.0405 -0.0891,0.079 0.0182,0.0446 0.0547,0.13772 l 0.0162,-0.006 -0.0182,-0.0972 z m -0.15393,0.39089 -0.0972,-0.004 q 0.0486,0.0729 0.13164,0.12759 -0.0121,-0.0729 -0.0344,-0.12354 z m 0.22076,-0.13975 q -0.0243,-0.0506 -0.0729,-0.11949 l -0.0324,0.0121 q 0.0142,0.0648 0.0425,0.13165 0.0466,-0.0101 0.0628,-0.0243 z m -0.3119,0.008 0.0405,0.0121 0.0122,-0.006 -0.0344,-0.10734 -0.14582,0.0101 q 0.0203,0.0344 0.0526,0.1114 0.004,0.002 0.008,0.002 0.0101,0 0.0324,-0.0101 0.0223,-0.0101 0.0344,-0.0121 z m -0.0648,-0.24304 0.0547,0.0101 q 0,-0.004 0,-0.008 0,-0.0101 -0.0243,-0.0567 -0.0223,-0.0385 -0.081,-0.0506 -0.0486,-0.004 -0.0972,-0.0101 0.004,0.083 0.0567,0.18025 0.002,-0.002 0.0527,-0.0223 0.0304,-0.0122 0.0385,-0.0425 z m -0.60152,1.08963 q -0.0871,-0.0121 -0.077,-0.0628 l -0.0142,-0.0365 q 0.0587,-0.16405 0.28557,-0.3119 l 0.0263,0.0608 q -0.083,0.22886 -0.23696,0.40911 z m -0.13165,-0.6157 q 0,-0.0911 0.0587,-0.11949 l 0.079,-0.0891 0.0162,0.002 q 0.0142,0 0.0385,-0.0304 l 0.0101,-0.0142 q 0.0223,-0.0263 0.0385,-0.0263 0.0122,0 0.0284,0.0162 0.004,0.0182 0.004,0.0365 0,0.0466 -0.0425,0.1762 l 0.081,0.0709 q -0.11746,0.0142 -0.11746,0.0142 -0.16203,0 -0.16812,0 z m 0.0365,-0.4557 q -0.0446,-0.0567 -0.12557,-0.0567 l -0.0182,-0.0567 q -0.0101,-0.0324 0.0648,-0.0992 0.0689,-0.0608 0.11545,-0.079 l 0.008,-0.0446 q -0.0344,-0.14177 -0.10127,-0.20051 -0.002,-0.0324 0.0101,-0.0466 0.002,-0.004 0.0365,-0.0284 0.008,-0.008 0.0122,-0.0182 l 0.0911,0.006 q 0.0405,0.0324 0.0911,0.13772 0.0122,0.0284 0.0304,0.0567 l -0.0608,0.0344 -0.008,0.0223 0.006,0.0263 q -0.008,0.0547 -0.0182,0.10937 -0.0101,0.0547 -0.0446,0.0972 0.0162,0.0506 0.0527,0.10532 0.0223,0.0344 0.10734,0.16204 -0.15392,-0.11343 -0.24911,-0.12761 z m -4.704821,0.44355 q 0,0.0567 0.0851,0.13164 l -0.0121,0.0628 q 0.0121,0.0263 0.0121,0.0527 0,0.0243 -0.0162,0.0506 h -0.083 q -0.0385,-0.0689 -0.13165,-0.11949 -0.083,-0.0425 -0.16405,-0.083 -0.10937,-0.0668 -0.24101,-0.17621 l -0.0223,-0.0668 0.077,-0.0223 q 0.11747,0.0668 0.36456,0.18836 l -0.0871,-0.17823 0.10329,-0.0284 0.0567,0.0304 v 0.0162 q -0.002,0.0445 0.0729,0.0891 0.0162,-0.0243 0.0506,-0.0304 0.0344,-0.004 0.0486,-0.0162 0.46988,0.0203 0.76963,0.21266 l -0.008,-0.0689 0.0668,-0.13569 q 0.0162,0.077 0.0405,0.13772 0.0344,0.079 0.0689,0.15595 0.0385,0.0952 0.0385,0.16405 0,0 -0.008,0.10532 -0.0243,0.0304 -0.0587,0.0304 -0.002,0 -0.0202,-0.002 -0.0608,-0.0749 -0.0628,-0.13974 -0.0101,-0.0162 -0.0324,-0.0648 -0.0182,-0.0405 -0.0466,-0.0607 -0.0405,-0.0304 -0.0729,-0.077 -0.0486,-0.0648 -0.10532,-0.0729 l -0.0101,0.004 q 0.1033,0.12152 0.1276,0.22481 l -0.008,0.0425 0.0122,0.0365 q -0.008,0.081 -0.0628,0.1357 -0.0324,0.0142 -0.17012,0.0142 -0.0203,0 -0.0628,-0.006 -0.0425,-0.004 -0.0628,-0.004 -0.0405,0 -0.12557,0.004 -0.0851,0.006 -0.1276,0.006 -0.19443,0 -0.30785,-0.081 l -0.0243,-0.0425 q 0.0182,-0.0567 0.0709,-0.0749 0.0466,-0.0162 0.0932,-0.0324 l 0.22076,0.006 q 0.006,-0.0142 0.006,-0.0263 0,-0.0223 -0.0223,-0.0486 -0.0203,-0.0243 -0.0385,-0.0466 -0.0749,-0.10735 -0.081,-0.11545 -0.0486,-0.0608 -0.10936,-0.081 z m 0.67645,0.29975 q 0.002,-0.0324 -0.0203,-0.0608 -0.0304,-0.0425 -0.0365,-0.0547 -0.004,-0.0486 -0.0344,-0.11747 l -0.0749,-0.0101 q 0.006,0.0385 0.0405,0.12152 0.0324,0.077 0.0344,0.12354 l 0.0486,0.008 q 0.0162,0 0.0425,-0.0101 z m -0.2086,0.006 -0.0425,-0.15797 0.008,-0.10937 -0.10735,-0.0324 -0.0405,0.0142 q 0.0243,0.11949 0.079,0.19646 l -0.008,0.0344 0.0182,0.0668 z m -0.24304,-0.2957 q -0.1195,-0.0243 -0.1357,-0.0243 -0.008,0 -0.0203,0.004 h -0.006 q 0.0608,0.0689 0.14582,0.1357 z m -0.80406,0.61773 -0.0284,-0.0486 v -0.0749 q 0,-0.0486 0.0567,-0.10531 l 0.0344,-0.11342 0.0486,0.0628 q 0.0405,-0.0162 0.11544,-0.0749 0.0547,-0.0587 0.0547,-0.0608 0.0344,-0.0284 0.079,-0.0284 -0.0223,0.0284 -0.0304,0.0668 -0.008,0.0405 -0.0142,0.079 l 0.0182,0.0445 q -0.0203,0.0405 -0.0547,0.1195 -0.0405,0.10126 -0.079,0.13164 -0.0446,0.0425 -0.14987,0.0425 z m 1.09773,-0.77165 q -0.0344,-0.0263 -0.0952,-0.081 -0.0304,-0.0304 -0.0324,-0.0304 h -0.002 q 0.0142,0.0648 0.0142,0.0689 0,0.0142 -0.0122,0.0344 l -0.0526,0.0223 -0.0405,-0.0121 q -0.006,-0.0162 -0.0284,-0.13975 -0.0122,-0.077 -0.0446,-0.10532 h -0.19241 q 0.0223,0.0142 0.0668,0.0466 0.0162,0.0142 0.0425,0.0527 -0.17215,-0.0405 -0.2795,-0.10937 -0.0911,-0.008 -0.0972,-0.008 -0.0425,0 -0.12557,0.008 -0.083,0.0101 -0.1276,0.0101 0,0 -0.0587,-0.0121 l -0.0365,-0.0405 q 0.0182,-0.0628 0.081,-0.083 0.10329,-0.0304 0.10936,-0.0324 l 0.0547,0.004 -0.14785,-0.20658 q 0.0425,-0.0851 0.11342,-0.0851 0.0121,0 0.0263,0.004 0.079,0.0486 0.25721,0.14583 0.16608,0.0891 0.25317,0.14582 v -0.0385 l 0.0587,-0.0263 0.0506,0.0162 q 0,0.0385 0.0466,0.0891 l 0.10734,0.0122 0.0385,-0.0101 q -0.0587,-0.14582 -0.16202,-0.20861 -0.077,0.0101 -0.0851,0.0101 -0.0263,0 -0.0628,-0.0304 0.0121,-0.0486 0.0628,-0.0567 l 0.0162,-0.002 q 0.0243,-0.004 0.0324,-0.0223 h 0.0628 q 0.0932,0 0.18633,0.0729 0.0142,0.0101 0.1519,0.13975 0.0243,0.0243 0.0385,0.0304 l -0.002,-0.0162 0.0365,-0.16 q 0.0385,0.10331 0.1114,0.2876 l 0.0851,0.0203 q 0.0142,-0.006 0.0608,-0.006 0.0162,0 0.0162,-0.004 v -0.0972 q 0.1114,0.0385 0.11545,0.15999 l -0.0304,0.0749 q -0.0466,0.0101 -0.0466,0.0101 -0.0162,0 -0.11746,-0.0121 l -0.0182,0.0506 0.0121,0.0304 -0.0223,0.0385 -0.0344,0.0142 -0.0486,-0.0142 q -0.008,-0.0425 -0.0182,-0.0851 -0.0122,-0.0547 -0.0365,-0.077 l -0.13975,-0.008 0.0344,0.13165 q -0.006,0.0445 -0.0162,0.0891 -0.0101,0.0466 -0.0506,0.0689 -0.0263,-0.0223 -0.079,-0.0689 z m -0.0101,-0.24101 q -0.0122,-0.008 -0.0344,-0.008 -0.008,0 -0.0466,0.004 0.0162,0.0202 0.10329,0.081 z m 0.17013,-0.0952 q -0.11544,-0.17418 -0.23494,-0.22887 l 0.1276,0.21469 q 0.083,0.0142 0.0911,0.0142 0.006,0 0.0162,0 z m 0.0587,-0.33013 q -0.0506,-0.0547 -0.10126,-0.10937 -0.0709,-0.0729 -0.11139,-0.0729 -0.0122,0 -0.0932,0.0223 -0.11747,-0.0121 -0.2957,-0.0466 -0.25924,-0.0486 -0.29164,-0.0547 0.0952,0.0608 0.21266,0.11342 0.0608,0.0263 0.13164,0.0709 -0.14582,-0.0101 -0.26126,-0.0486 -0.0628,-0.0203 -0.20456,-0.081 -0.0749,-0.0263 -0.1438,-0.0527 -0.0851,-0.0324 -0.12557,-0.0932 0.0142,-0.0324 0.0527,-0.0587 0.0385,-0.0243 0.0709,-0.0243 0.0324,0 0.16203,0.0203 0.0932,0.0142 0.23089,0.0547 0.18228,0.0547 0.22278,0.0648 0.077,0.0182 0.3038,0.0587 0.19038,0.0344 0.30177,0.0689 l 0.11545,-0.13165 0.0182,0.18025 -0.006,0.008 q -0.004,0.002 -0.004,0.006 0,0.006 0.002,0.0203 0.004,0.0142 0.004,0.0203 l -0.0466,0.083 q -0.0749,0.0203 -0.081,0.0203 -0.0243,0 -0.0628,-0.0385 z"
       id="text1"
       style="font-size:2.07393px;line-height:0;font-family:HakusyuGyosyoBold;-inkscape-font-specification:HakusyuGyosyoBold;text-align:center;writing-mode:vertical-lr;text-anchor:middle;stroke-width:0.220456;stroke-linecap:round;stroke-linejoin:round"
       aria-label="水   無   瀬"
       inkscape:label="path1" /><path
       id="path1"
       style="fill:#000000;stroke-width:0.415129"
       d="m 105.72319,176.10831 c -0.32589,0.003 -0.68936,0.0374 -1.0931,0.10555 -2.59205,0.43853 -5.470902,0.67186 -7.231261,0.5868 -0.625113,-0.0303 -1.16514,-0.009 -1.198649,0.0447 -0.167763,0.27259 1.882873,1.79862 2.679968,1.45268 0.34743,-0.15079 0.63578,-0.22195 0.89631,-0.29518 0.279012,-0.0784 0.514532,-0.0938 0.572482,-0.0358 0.13639,0.13639 -0.0641,1.4685 -0.24867,1.65306 -0.161402,0.16139 -1.098702,0.20137 -2.257762,0.0948 -0.802782,-0.0738 -0.948415,-0.0222 -0.787172,0.27908 0.293903,0.54916 1.995412,1.18187 2.223762,1.13425 0.22836,-0.0476 1.070102,-0.1278 1.118142,-0.0483 0.0198,0.0329 0.054,0.35609 0.0751,0.7174 l 0.0394,0.65657 -0.4401,0.0805 c -0.241652,0.0441 -0.957932,0.10769 -1.592232,0.14312 -1.202361,0.14785 -2.356794,0.10301 -3.526183,-0.2272 -0.05444,-0.0337 -0.0984,-4.1e-4 -0.0984,0.0716 0,0.25623 1.065268,1.12524 2.016237,1.64591 0.701124,0.38389 1.005502,0.39268 1.864176,0.0537 2.827742,-1.11608 3.652002,-1.1918 7.157912,-0.66195 2.08836,0.31562 3.1308,0.0687 3.1308,-0.74244 0,-0.35708 -0.53649,-0.9272 -0.9786,-1.03943 -0.32791,-0.0832 -2.96448,0.0478 -3.63531,0.18069 -0.70758,0.14009 -0.77517,0.009 -0.38285,-0.74065 l 0.32918,-0.62795 0.7675,-0.004 c 0.90885,-0.004 1.228,-0.0976 1.31851,-0.38284 0.1179,-0.37142 -0.13342,-0.63217 -0.79612,-0.82654 -0.34754,-0.10198 -0.76475,-0.19317 -0.92672,-0.20216 -0.38301,-0.0213 -0.4401,-0.088 -0.6029,-0.70488 -0.17199,-0.6517 -0.18077,-0.93423 -0.0268,-0.83905 0.30053,0.18574 2.60548,0.0104 3.08072,-0.23436 0.5593,-0.28774 0.51498,-0.71017 -0.10913,-1.02691 -0.28349,-0.14387 -0.62299,-0.2282 -1.02512,-0.25404 -0.10054,-0.006 -0.20445,-0.008 -0.31308,-0.007 z" /></g></svg>
