<?xml version="1.0" encoding="UTF-8" standalone="no"?>
<!-- Created with Inkscape (http://www.inkscape.org/) -->

<svg
   viewBox="0 0 38.549999 41.919998"
   version="1.1"
   id="svg1"
   inkscape:version="1.3.2 (091e20e, 2023-11-25, custom)"
   sodipodi:docname="Ou.svg"
   xml:space="preserve"
   xmlns:inkscape="http://www.inkscape.org/namespaces/inkscape"
   xmlns:sodipodi="http://sodipodi.sourceforge.net/DTD/sodipodi-0.dtd"
   xmlns="http://www.w3.org/2000/svg"
   xmlns:svg="http://www.w3.org/2000/svg"><sodipodi:namedview
     id="namedview1"
     pagecolor="#ffffff"
     bordercolor="#111111"
     borderopacity="1"
     inkscape:showpageshadow="false"
     inkscape:pageopacity="0"
     inkscape:pagecheckerboard="1"
     inkscape:deskcolor="#d1d1d1"
     inkscape:document-units="mm"
     showguides="true"
     inkscape:zoom="11.569391"
     inkscape:cx="19.231782"
     inkscape:cy="20.960481"
     inkscape:window-width="1292"
     inkscape:window-height="745"
     inkscape:window-x="-8"
     inkscape:window-y="-8"
     inkscape:window-maximized="1"
     inkscape:current-layer="layer1"
     labelstyle="default"
     showgrid="false"><inkscape:page
       x="0"
       y="0"
       width="38.549999"
       height="41.919998"
       id="page42"
       margin="0"
       bleed="0" /></sodipodi:namedview><defs
     id="defs1"><inkscape:path-effect
       effect="powerstroke"
       id="path-effect12"
       is_visible="true"
       lpeversion="1.3"
       scale_width="1"
       interpolator_type="CubicBezierJohan"
       interpolator_beta="0.2"
       start_linecap_type="zerowidth"
       end_linecap_type="zerowidth"
       offset_points="7,4.9921382"
       linejoin_type="extrp_arc"
       miter_limit="4"
       not_jump="false"
       sort_points="true"
       message="&lt;b&gt;Ctrl + click&lt;/b&gt; on existing node and move it" /><inkscape:path-effect
       effect="powerstroke"
       id="path-effect13"
       is_visible="true"
       lpeversion="1.3"
       scale_width="1"
       interpolator_type="CubicBezierJohan"
       interpolator_beta="0.2"
       start_linecap_type="zerowidth"
       end_linecap_type="zerowidth"
       offset_points="5,4.9921382"
       linejoin_type="extrp_arc"
       miter_limit="4"
       not_jump="false"
       sort_points="true"
       message="&lt;b&gt;Ctrl + click&lt;/b&gt; on existing node and move it" /><inkscape:path-effect
       effect="powerstroke"
       id="path-effect13-0"
       is_visible="true"
       lpeversion="1.3"
       scale_width="1"
       interpolator_type="CubicBezierJohan"
       interpolator_beta="0.2"
       start_linecap_type="zerowidth"
       end_linecap_type="zerowidth"
       offset_points="5,4.9921382"
       linejoin_type="extrp_arc"
       miter_limit="4"
       not_jump="false"
       sort_points="true"
       message="&lt;b&gt;Ctrl + click&lt;/b&gt; on existing node and move it" /><inkscape:path-effect
       effect="powerstroke"
       id="path-effect13-9"
       is_visible="true"
       lpeversion="1.3"
       scale_width="1"
       interpolator_type="CubicBezierJohan"
       interpolator_beta="0.2"
       start_linecap_type="zerowidth"
       end_linecap_type="zerowidth"
       offset_points="5,4.9921382"
       linejoin_type="extrp_arc"
       miter_limit="4"
       not_jump="false"
       sort_points="true"
       message="&lt;b&gt;Ctrl + click&lt;/b&gt; on existing node and move it" /></defs><g
     inkscape:label="Layer 1"
     inkscape:groupmode="layer"
     id="layer1"
     transform="rotate(180,62.137499,101.68)"><path
       style="fill:#938e5e;fill-opacity:1;fill-rule:evenodd;stroke:none;stroke-width:1;stroke-linecap:round;stroke-linejoin:round;stroke-dasharray:none;stroke-opacity:1;paint-order:stroke fill markers"
       d="m 119.35,200 v -6.4 L 114.78527,167.97943 105,164.8 95.21473,167.97943 90.649996,193.6 l 2e-6,6.4 z"
       id="path12"
       sodipodi:nodetypes="cccccccc" /><path
       style="display:inline;fill:#fff29e;fill-opacity:1;fill-rule:evenodd;stroke:none;stroke-width:0.385762;stroke-linecap:round;stroke-linejoin:round;paint-order:stroke fill markers"
       d="m 105,168 9.78527,3.17942 L 119.35,200 h -28.7 l 4.56473,-28.82058 z"
       id="path13" /><path
       id="path1-6"
       style="fill:#000000;stroke-width:0.415129"
       d="m 105.72319,176.10831 c -0.32589,0.003 -0.68936,0.0374 -1.0931,0.10555 -2.59205,0.43853 -5.470902,0.67186 -7.231261,0.5868 -0.625113,-0.0303 -1.16514,-0.009 -1.198649,0.0447 -0.167763,0.27259 1.882873,1.79862 2.679968,1.45268 0.34743,-0.15079 0.63578,-0.22195 0.89631,-0.29518 0.279012,-0.0784 0.514532,-0.0938 0.572482,-0.0358 0.13639,0.13639 -0.0641,1.4685 -0.24867,1.65306 -0.161402,0.16139 -1.098702,0.20137 -2.257762,0.0948 -0.802782,-0.0738 -0.948415,-0.0222 -0.787172,0.27908 0.293903,0.54916 1.995412,1.18187 2.223762,1.13425 0.22836,-0.0476 1.070102,-0.1278 1.118142,-0.0483 0.0198,0.0329 0.054,0.35609 0.0751,0.7174 l 0.0394,0.65657 -0.4401,0.0805 c -0.241652,0.0441 -0.957932,0.10769 -1.592232,0.14312 -1.202361,0.14785 -2.356794,0.10301 -3.526183,-0.2272 -0.05444,-0.0337 -0.0984,-4.1e-4 -0.0984,0.0716 0,0.25623 1.065268,1.12524 2.016237,1.64591 0.701124,0.38389 1.005502,0.39268 1.864176,0.0537 2.827742,-1.11608 3.652002,-1.1918 7.157912,-0.66195 2.08836,0.31562 3.1308,0.0687 3.1308,-0.74244 0,-0.35708 -0.53649,-0.9272 -0.9786,-1.03943 -0.32791,-0.0832 -2.96448,0.0478 -3.63531,0.18069 -0.70758,0.14009 -0.77517,0.009 -0.38285,-0.74065 l 0.32918,-0.62795 0.7675,-0.004 c 0.90885,-0.004 1.228,-0.0976 1.31851,-0.38284 0.1179,-0.37142 -0.13342,-0.63217 -0.79612,-0.82654 -0.34754,-0.10198 -0.76475,-0.19317 -0.92672,-0.20216 -0.38301,-0.0213 -0.4401,-0.088 -0.6029,-0.70488 -0.17199,-0.6517 -0.18077,-0.93423 -0.0268,-0.83905 0.30053,0.18574 2.60548,0.0104 3.08072,-0.23436 0.5593,-0.28774 0.51498,-0.71017 -0.10913,-1.02691 -0.28349,-0.14387 -0.62299,-0.2282 -1.02512,-0.25404 -0.10054,-0.006 -0.20445,-0.008 -0.31308,-0.007 z"
       transform="matrix(1.5526719,0,0,1.5526719,-53.278421,-95.926618)" /></g></svg>
